<svg xmlns="http://www.w3.org/2000/svg" width="150.509" height="150.509" viewBox="0 0 150.509 150.509">
  <g id="Search_results_for_Resolution_-_Flaticon-12" data-name="Search results for Resolution - Flaticon-12" transform="translate(-16 -16)">
    <path id="Path_4351" data-name="Path 4351" d="M91.255,16A27.779,27.779,0,1,1,63.476,43.779,27.779,27.779,0,0,1,91.255,16ZM142.4,117.219a12.259,12.259,0,1,1-12.259,12.259A12.259,12.259,0,0,1,142.4,117.219Zm-105-4.806A58.01,58.01,0,0,1,58.462,43.6a33.066,33.066,0,0,0,.489,5.854,52.965,52.965,0,0,0-16.11,62.962,17.445,17.445,0,0,0-5.435-.005ZM126.8,136.89a58.072,58.072,0,0,1-71.082,0,17.156,17.156,0,0,0,1.529-5.217,53.034,53.034,0,0,0,68.024,0,17.165,17.165,0,0,0,1.529,5.216ZM124.047,43.6A58.01,58.01,0,0,1,145.1,112.413a17.444,17.444,0,0,0-5.435.006,52.966,52.966,0,0,0-16.11-62.962,33.037,33.037,0,0,0,.489-5.854ZM118.3,166.509h48.212a24.247,24.247,0,0,0-48.212,0Zm-78.191-49.29a12.259,12.259,0,1,1-12.259,12.259A12.259,12.259,0,0,1,40.106,117.219ZM16,166.509H64.212a24.247,24.247,0,0,0-48.212,0ZM116.4,77.587l10.346,26.687c.219.451.218.451.7.309l5-1.94a.38.38,0,0,0,.2-.468L122.244,75.317a.38.38,0,0,0-.468-.2l-5.17,2a.38.38,0,0,0-.2.468Zm5.619,1.382a1.723,1.723,0,1,1-1.723-1.723,1.723,1.723,0,0,1,1.723,1.723ZM55.585,102.423,67.23,76.076a.354.354,0,0,0-.178-.472L61.98,73.363a.354.354,0,0,0-.472.178L49.863,99.887a.354.354,0,0,0,.177.472l5.072,2.242a.354.354,0,0,0,.472-.177ZM63.2,79A1.723,1.723,0,1,1,65,77.357,1.723,1.723,0,0,1,63.2,79ZM61.591,99.6l7.275-16.46,2.505,1.155c3.016,1.666,5.712,1.035,8.642.349a12.914,12.914,0,0,1,6.608-.332,70.237,70.237,0,0,1-5.5,4.876,54.067,54.067,0,0,1-5.21,3.428,2.65,2.65,0,0,0-.752,3.914c5.653,7.274,11.663,4.843,17.361,2.536,3.048-1.234,5.974-2.419,8.006-1.26l14.2,8.193a1.795,1.795,0,0,1-2.11,2.845c-3.148-1.8-6.331-3.549-9.481-5.352a2.176,2.176,0,1,0-2.161,3.778c3.149,1.8,6.315,3.576,9.481,5.35a1.8,1.8,0,0,1-1.69,3.18l-12.47-7.017a2.175,2.175,0,1,0-2.127,3.8c3.389,1.907,6.77,3.845,10.158,5.745a1.825,1.825,0,0,1,.719,2.473,1.8,1.8,0,0,1-2.442.692l-7.107-4.023a6.27,6.27,0,0,0-5.979-2.064,6.263,6.263,0,0,0-7.012-3.75,6.258,6.258,0,0,0-6.217-3.851,6.268,6.268,0,0,0-9.513-3.694c-.834-3.051-2.646-3.39-5.183-4.509ZM66,113.145a1.937,1.937,0,0,0,.786,2.606,1.983,1.983,0,0,0,1.983-.1l3.242-5.611a1.924,1.924,0,0,0-3.486-1.613L66,113.145Zm16.446,11.039,3.181-6.114a1.914,1.914,0,0,0-3.168-1.711l-3.411,6.605a1.911,1.911,0,0,0,1.006,1.7A1.944,1.944,0,0,0,82.443,124.184Zm7.031-4.079L86.405,126a1.918,1.918,0,0,0,3.609.979l2.421-4.527a1.92,1.92,0,0,0-2.961-2.351Zm-10.866-5.767a1.916,1.916,0,0,0-2.979-1.88L71.6,119.531a1.924,1.924,0,0,0,3.345,1.9ZM114.5,84.683l6.513,16.8-3.28,1.369a6.263,6.263,0,0,0-1.306-.988l-13.751-7.838c-3.862-2.2-7.743-.631-11.784,1-3.71,1.5-7.6,3.076-10.959.239,4.716-2.975,7.8-6.5,12.055-9.69,4.965-3.366,8.661-1.856,11.819-.566,5.385,2.2,6.352,1.991,10.692-.331Zm-17.71,38.5a17.363,17.363,0,0,1-1.578,3.286c.711.408,1.3.892,2.18.633a2.1,2.1,0,0,0,1.092-.873,1.8,1.8,0,0,0,.151-1.367c-.25-.865-1.115-1.266-1.845-1.679ZM91.255,56.892a3.851,3.851,0,1,0,3.851,3.851A3.851,3.851,0,0,0,91.255,56.892Zm0-6.874a3.006,3.006,0,0,0,3-2.9l.76-21.042a2.993,2.993,0,0,0-3-3.115h-1.52a2.993,2.993,0,0,0-3,3.115l.76,21.042a3.007,3.007,0,0,0,3,2.9Z" fill="#857b7b" fill-rule="evenodd"/>
  </g>
</svg>
