<svg id="Group_1201" data-name="Group 1201" xmlns="http://www.w3.org/2000/svg" xmlns:xlink="http://www.w3.org/1999/xlink" width="52.903" height="52.907" viewBox="0 0 52.903 52.907">
  <defs>
    <clipPath id="clip-path">
      <rect id="Rectangle_247" data-name="Rectangle 247" width="52.903" height="52.907" fill="#5a5656"/>
    </clipPath>
  </defs>
  <g id="Group_153" data-name="Group 153" clip-path="url(#clip-path)">
    <path id="Path_170" data-name="Path 170" d="M11.8,19.388c.084-.064.1-.071.11-.085.782-1.335.782-1.335-.151-2.576-.889-1.183-.888-1.229.175-2.284.2-.2.424-.378.674-.6-.17-.181-.284-.309-.405-.43-1.733-1.734-3.471-3.462-5.2-5.2a.562.562,0,0,0-.8-.15,4.2,4.2,0,0,1-5.14-.966A4.267,4.267,0,0,1,5.576.2,4.2,4.2,0,0,1,8.519,4.528,10.76,10.76,0,0,1,8.03,6.307c-.042.159-.081.411,0,.5,1.894,1.921,3.805,3.825,5.785,5.8.358-.374.689-.735,1.036-1.081a.888.888,0,0,1,1.4-.116c.459.335.919.67,1.36,1.027a.484.484,0,0,0,.663.043c.291-.2.609-.351.977-.558-.81-.806-1.563-1.6-2.372-2.342a1.81,1.81,0,0,1-.669-1.637,11.393,11.393,0,0,0,.008-1.188c-.189-.08-.368-.152-.544-.231a3.391,3.391,0,0,1-1.929-3.818A3.4,3.4,0,0,1,20.4,2.7a3.415,3.415,0,0,1-1.92,3.828c-.2.093-.527.269-.522.4.018.49-.244,1.04.18,1.471.86.873,1.72,1.747,2.61,2.589a.674.674,0,0,0,.632.086c.446-.289,1.23.033,1.392-.726.122-.572.175-1.158.262-1.737.1-.663.364-.909,1.014-.911q2.4-.009,4.8,0a.888.888,0,0,1,1.031.894c.088.579.143,1.165.268,1.735a.831.831,0,0,0,.4.451,1.722,1.722,0,0,0,2.5-.621,6.978,6.978,0,0,1,1.275-1.281,1.758,1.758,0,0,0,.68-1.664.618.618,0,0,0-.447-.648,3.356,3.356,0,0,1-2.126-3.21,3.41,3.41,0,0,1,6.565-1.224,3.358,3.358,0,0,1-1.8,4.392c-.442.181-.571.407-.5.82a2.67,2.67,0,0,1-1.1,2.686c-.685.556-1.271,1.234-1.936,1.893.416.236.772.469,1.156.639a.6.6,0,0,0,.461-.12c.48-.335.937-.7,1.411-1.048A.864.864,0,0,1,38,11.476c.355.347.691.714,1.067,1.1.148-.129.269-.221.376-.328,1.76-1.757,3.513-3.521,5.282-5.268a.534.534,0,0,0,.123-.762,4.219,4.219,0,0,1,.95-5.146,4.268,4.268,0,0,1,6.889,4.533,4.2,4.2,0,0,1-4.347,2.909,11.158,11.158,0,0,1-1.776-.5.621.621,0,0,0-.491.04q-2.842,2.809-5.653,5.649c-.023.023-.026.064-.074.189.347.322.735.659,1.1,1.023a.85.85,0,0,1,.095,1.28c-.331.461-.66.927-1.028,1.359a.56.56,0,0,0-.036.8c.181.258.314.55.505.895.715-.717,1.443-1.364,2.069-2.1a2.308,2.308,0,0,1,2.273-.934.92.92,0,0,0,1.147-.664,3.307,3.307,0,0,1,3.874-1.783,3.407,3.407,0,1,1-3.958,4.718c-.095-.2-.246-.526-.39-.537-.462-.034-1.08-.123-1.373.123-.987.833-1.867,1.8-2.773,2.723-.283.29.3,1.9.7,1.968.595.1,1.194.175,1.79.266a.872.872,0,0,1,.872,1q.01,2.425,0,4.849c0,.618-.26.892-.88.991a2.57,2.57,0,0,1-.578.086,1.63,1.63,0,0,0-1.956,1.685.756.756,0,0,0,.138.537c.837.871,1.7,1.718,2.553,2.571a2.6,2.6,0,0,0,1.659.181,1.089,1.089,0,0,0,.181-.377,3.41,3.41,0,1,1,2.953,4.673A3.266,3.266,0,0,1,46.337,37.1c-.128-.3-.252-.484-.6-.423a2.931,2.931,0,0,1-3-1.24,19.517,19.517,0,0,0-1.647-1.666.917.917,0,0,0-.13-.082c-.208.365-.439.718-.609,1.1a.585.585,0,0,0,.108.462c.334.481.7.938,1.047,1.411a.876.876,0,0,1-.109,1.36c-.349.35-.719.677-1.1,1.03.168.183.27.3.381.413,1.745,1.747,3.495,3.489,5.231,5.244a.533.533,0,0,0,.759.139,4.211,4.211,0,0,1,5.147.937A4.271,4.271,0,0,1,47.4,52.722a4.2,4.2,0,0,1-3.018-4.272,10.952,10.952,0,0,1,.5-1.882c.039-.156.056-.4-.033-.493q-2.808-2.843-5.648-5.654a.85.85,0,0,0-.183-.075c-.3.321-.617.677-.953,1.014a.906.906,0,0,1-1.442.114c-.429-.316-.87-.618-1.274-.964a.56.56,0,0,0-.8-.045c-.257.182-.55.315-.916.518.647.636,1.218,1.291,1.882,1.829a2.771,2.771,0,0,1,1.164,2.817c-.071.395.089.579.47.733a3.34,3.34,0,0,1,2.02,3.76,3.4,3.4,0,0,1-6.684,0,3.337,3.337,0,0,1,2.025-3.757c.387-.155.455-.351.484-.734a1.757,1.757,0,0,0-.652-1.57c-.752-.676-1.432-1.431-2.166-2.128a.931.931,0,0,0-.539-.137c-.114-.008-.233.1-.353.1-.966.066-1.3.638-1.3,1.534a5.737,5.737,0,0,1-.125.949.853.853,0,0,1-.931.825q-2.478.015-4.956,0a.85.85,0,0,1-.936-.818c-.093-.6-.182-1.193-.253-1.792-.034-.286-.149-.456-.449-.488a.886.886,0,0,1-.356-.1c-.807-.49-1.339-.116-1.875.5-.567.657-1.221,1.24-1.836,1.855a2.223,2.223,0,0,0-.32,1.725c.078.127.282.186.439.253a3.4,3.4,0,1,1-4.659,3.785,3.339,3.339,0,0,1,2.012-3.764c.374-.152.549-.327.477-.728a2.771,2.771,0,0,1,1.159-2.818c.659-.532,1.219-1.187,1.871-1.833-.422-.239-.79-.473-1.183-.654-.1-.046-.3.04-.416.122-.492.35-.963.729-1.453,1.081a.847.847,0,0,1-1.279-.095c-.364-.361-.7-.749-1.2-1.282a4.008,4.008,0,0,1-.4.625q-2.571,2.591-5.164,5.161a.508.508,0,0,0-.108.72,4.221,4.221,0,0,1-.93,5.15A4.269,4.269,0,0,1,.2,47.356a4.2,4.2,0,0,1,4.3-2.973,11.519,11.519,0,0,1,1.83.5.668.668,0,0,0,.53-.062c1.872-1.845,3.727-3.708,5.584-5.568a1.712,1.712,0,0,0,.139-.217c-.35-.325-.72-.651-1.069-1a.887.887,0,0,1-.089-1.4c.337-.458.7-.9,1.01-1.372a.745.745,0,0,0,.045-.6,12.174,12.174,0,0,0-.634-1.183c-.757.76-1.529,1.443-2.189,2.22a2.444,2.444,0,0,1-2.413.984c-.363-.06-.546.076-.694.448A3.344,3.344,0,0,1,2.8,39.177a3.4,3.4,0,0,1-.039-6.685,3.39,3.39,0,0,1,3.788,2c.078.177.218.46.335.463.407.01.945.065,1.2-.161,1.01-.892,1.936-1.879,2.879-2.845.09-.092.085-.278.117-.422.006-.029-.024-.065-.034-.1-.378-1.3-.378-1.3-1.749-1.451-1.538-.17-1.605-.246-1.605-1.8,0-1.35,0-2.7,0-4.05,0-.73.226-.987.94-1.1.228-.035.456-.072.685-.1,1.365-.156,1.375-.152,1.723-1.473a.676.676,0,0,0-.134-.548c-.912-.946-1.829-1.89-2.8-2.779-.2-.186-.617-.134-.931-.206-.435-.1-.52.2-.651.507a3.367,3.367,0,0,1-3.79,1.975,3.4,3.4,0,0,1,.024-6.672,3.327,3.327,0,0,1,3.765,2.006c.166.411.382.545.781.481a2.32,2.32,0,0,1,2.279.92c.678.792,1.462,1.495,2.212,2.249m1.355-3.647c.355.474.729.988,1.12,1.49a.985.985,0,0,1,.055,1.27,14.174,14.174,0,0,0-2.073,5.036.918.918,0,0,1-.859.806c-.662.083-1.321.2-1.976.3v3.621c.672.1,1.319.214,1.97.293a.915.915,0,0,1,.862.8A14.187,14.187,0,0,0,14.328,34.4a.986.986,0,0,1-.05,1.27c-.39.5-.764,1.018-1.1,1.462l2.584,2.6c.484-.362,1.012-.752,1.534-1.148a.908.908,0,0,1,1.136-.05,14.5,14.5,0,0,0,5.13,2.12.893.893,0,0,1,.775.828c.087.666.2,1.328.3,2.007h3.622c.1-.658.217-1.3.293-1.95a.939.939,0,0,1,.833-.895,13.989,13.989,0,0,0,4.987-2.052,1.009,1.009,0,0,1,1.315.051c.5.393,1.014.764,1.464,1.1l2.592-2.573c-.357-.477-.73-.993-1.121-1.495a.984.984,0,0,1-.056-1.27,14.2,14.2,0,0,0,2.073-5.036.915.915,0,0,1,.858-.806c.663-.082,1.321-.2,1.978-.3V24.636c-.671-.1-1.318-.212-1.969-.291a.915.915,0,0,1-.862-.8,14.183,14.183,0,0,0-2.071-5.036.983.983,0,0,1,.05-1.269c.392-.5.765-1.016,1.1-1.467l-2.593-2.59c-.466.348-.982.724-1.487,1.113a.96.96,0,0,1-1.226.056,14.223,14.223,0,0,0-5.084-2.093.892.892,0,0,1-.777-.825c-.087-.666-.2-1.329-.3-2.01H24.64c-.1.656-.215,1.3-.291,1.947a.942.942,0,0,1-.831.9,14.085,14.085,0,0,0-4.987,2.052,1.011,1.011,0,0,1-1.315-.05c-.5-.393-1.012-.764-1.472-1.11l-2.586,2.586M6.838,4.293A2.555,2.555,0,1,0,4.3,6.838,2.565,2.565,0,0,0,6.838,4.293m44.336-.012a2.555,2.555,0,1,0-2.529,2.554,2.567,2.567,0,0,0,2.529-2.554M6.838,48.61a2.555,2.555,0,1,0-2.517,2.566A2.566,2.566,0,0,0,6.838,48.61m44.336.022a2.555,2.555,0,1,0-2.541,2.542,2.566,2.566,0,0,0,2.541-2.542M5.133,17.1a1.7,1.7,0,1,0-1.716,1.677A1.71,1.71,0,0,0,5.133,17.1m0,18.763a1.7,1.7,0,1,0-1.721,1.672,1.71,1.71,0,0,0,1.721-1.672M17.074,1.727a1.7,1.7,0,1,0,1.7,1.692,1.709,1.709,0,0,0-1.7-1.692M35.82,5.133a1.7,1.7,0,1,0-1.693-1.7,1.712,1.712,0,0,0,1.693,1.7M18.775,49.48a1.7,1.7,0,1,0-1.7,1.694,1.716,1.716,0,0,0,1.7-1.694m17.07-1.711a1.7,1.7,0,1,0,1.688,1.7,1.711,1.711,0,0,0-1.688-1.7m15.33-30.683a1.7,1.7,0,1,0-1.7,1.687,1.711,1.711,0,0,0,1.7-1.687m0,18.733a1.7,1.7,0,1,0-1.68,1.712,1.711,1.711,0,0,0,1.68-1.712" transform="translate(0 0.001)" fill="#5a5656"/>
    <path id="Path_171" data-name="Path 171" d="M134.389,124.153a10.231,10.231,0,1,1-10.128-10.226,10.241,10.241,0,0,1,10.128,10.226m-10.226-8.52a8.526,8.526,0,1,0,8.521,8.5,8.531,8.531,0,0,0-8.521-8.5" transform="translate(-97.706 -97.706)" fill="#5a5656"/>
    <path id="Path_172" data-name="Path 172" d="M154.9,161.794h-3.434v2.512h-1.725c.161-1.517-.29-3.055.4-4.542.493-1.059.888-2.163,1.308-3.255a.979.979,0,0,1,1.053-.708c.461.019.923.013,1.384,0a.913.913,0,0,1,.955.615q.82,2.048,1.632,4.1a1.029,1.029,0,0,1,.092.357c.007,1.132,0,2.264,0,3.427H154.9Zm-.447-1.749c-.323-.807-.624-1.577-.947-2.337a.4.4,0,0,0-.314-.183.477.477,0,0,0-.364.186c-.328.758-.626,1.529-.949,2.334Z" transform="translate(-128.417 -133.617)" fill="#5a5656"/>
    <rect id="Rectangle_246" data-name="Rectangle 246" width="1.642" height="8.459" transform="translate(29.046 22.214)" fill="#5a5656"/>
  </g>
</svg>
