<svg id="Group_1217" data-name="Group 1217" xmlns="http://www.w3.org/2000/svg" xmlns:xlink="http://www.w3.org/1999/xlink" width="52.372" height="61" viewBox="0 0 52.372 61">
  <defs>
    <clipPath id="clip-path">
      <rect id="Rectangle_252" data-name="Rectangle 252" width="52.372" height="61" fill="#5a5656"/>
    </clipPath>
  </defs>
  <g id="Group_169" data-name="Group 169" clip-path="url(#clip-path)">
    <path id="Path_195" data-name="Path 195" d="M26.579,61h-.941a1.551,1.551,0,0,0-.263-.114,46.557,46.557,0,0,1-9.1-3.124A33.692,33.692,0,0,1,4.622,49.4,17.383,17.383,0,0,1,.013,37.861C-.011,28.313,0,18.765.006,9.217a1.8,1.8,0,0,1,1.9-2c1.878-.09,3.759-.145,5.631-.305a45.486,45.486,0,0,0,11.2-2.261A16.2,16.2,0,0,0,25.194.89,10.316,10.316,0,0,1,26.344,0h.823c.4.34.8.668,1.184,1.022.447.413.843.89,1.317,1.268a18.132,18.132,0,0,0,6.563,3.07A55.318,55.318,0,0,0,50.282,7.217c1.484.027,2.084.662,2.084,2.169,0,9.348.019,18.7-.02,28.045a19.334,19.334,0,0,1-.458,4.182,19.221,19.221,0,0,1-6.526,10.213,41.254,41.254,0,0,1-14.175,7.851c-1.512.515-3.071.886-4.609,1.324M3.558,10.806c-.01.18-.025.318-.025.455q0,13.312,0,26.623a12.623,12.623,0,0,0,.99,4.863,18.446,18.446,0,0,0,6.49,7.756,44.638,44.638,0,0,0,14.842,6.79,1.568,1.568,0,0,0,.853-.047c1.972-.644,3.968-1.23,5.9-1.993A33.7,33.7,0,0,0,43.992,48.28a14.819,14.819,0,0,0,4.867-11.132c-.065-8.516-.019-17.034-.019-25.551v-.866c-.476,0-.883.015-1.288,0a48.966,48.966,0,0,1-13-2.135,22.126,22.126,0,0,1-7.871-4.22c-6.963,4.953-14.938,6.073-23.121,6.433" transform="translate(0)" fill="#5a5656"/>
    <path id="Path_196" data-name="Path 196" d="M124.652,135.157h15.422c1.554,0,2.2.666,2.2,2.254q0,6.73,0,13.459c0,1.585-.651,2.246-2.21,2.246H119.732c-1.494,0-2.144-.659-2.145-2.175q0-6.819,0-13.638c0-1.474.661-2.141,2.116-2.147.447,0,.894,0,1.417,0v-.687c0-1.588-.011-3.176,0-4.764a8.8,8.8,0,0,1,17.5-1.388,7.975,7.975,0,0,1,.108,1.363,1.757,1.757,0,1,1-3.513.1c-.235-2.727-1.577-4.532-3.852-5.178a5.258,5.258,0,0,0-6.711,5.011c-.037,1.821-.006,3.644-.006,5.541m14.072,3.63H121.151v10.687h17.573Z" transform="translate(-103.733 -106.429)" fill="#5a5656"/>
    <path id="Path_197" data-name="Path 197" d="M207.445,303.272a1.773,1.773,0,0,1,1.741-1.786,1.79,1.79,0,0,1-.007,3.581,1.774,1.774,0,0,1-1.734-1.794" transform="translate(-183.005 -265.566)" fill="#5a5656"/>
  </g>
</svg>
