<svg id="Group_1214" data-name="Group 1214" xmlns="http://www.w3.org/2000/svg" xmlns:xlink="http://www.w3.org/1999/xlink" width="57.166" height="57.24" viewBox="0 0 57.166 57.24">
  <defs>
    <clipPath id="clip-path">
      <rect id="Rectangle_255" data-name="Rectangle 255" width="57.166" height="57.241" fill="#5a5656"/>
    </clipPath>
  </defs>
  <g id="Group_178" data-name="Group 178" clip-path="url(#clip-path)">
    <path id="Path_215" data-name="Path 215" d="M107.467,18.558c-.219,1.148-.371,2.314-.67,3.441A17.227,17.227,0,0,1,79.52,30.675c-.523-.414-1-.892-1.48-1.357a14.878,14.878,0,0,0-17.067-2.787,1.242,1.242,0,0,1-1.457-.033,1.114,1.114,0,0,1,.293-1.886,15.825,15.825,0,0,1,5.343-1.674,16.924,16.924,0,0,1,14.529,4.871,14.47,14.47,0,0,0,12.082,4.279,14.066,14.066,0,0,0,12.247-8.924A14.961,14.961,0,0,0,76.992,10.34c-.074.146-.137.3-.23.5.214-.015.37-.036.527-.036a1.068,1.068,0,0,1,1.075.8.971.971,0,0,1-.448,1.21c-.943.476-1.915.9-2.9,1.28a1.025,1.025,0,0,1-1.307-.665c-.367-.793-.716-1.594-1.057-2.4a1.123,1.123,0,0,1,.363-1.485,1.143,1.143,0,0,1,1.5.266c.037.037.077.07.145.132.065-.105.126-.193.174-.287A16.776,16.776,0,0,1,88.68.088,3.038,3.038,0,0,0,89.057,0h2.566c.455.072.908.152,1.364.215A16.9,16.9,0,0,1,106.8,12.436c.3,1.126.449,2.292.668,3.439Z" transform="translate(-50.301)" fill="#5a5656"/>
    <path id="Path_216" data-name="Path 216" d="M15.882,237.487a32.262,32.262,0,0,1-3.263-.636A16.7,16.7,0,0,1,.517,224.2a16.45,16.45,0,0,1,1.289-11.574,1.174,1.174,0,0,1,1.21-.8,1.131,1.131,0,0,1,.851,1.68,27.74,27.74,0,0,0-1.191,3.3A14.971,14.971,0,0,0,30.464,227.28c.1-.191.189-.39.3-.615-.233,0-.4,0-.559,0a1.012,1.012,0,0,1-1.025-.787.951.951,0,0,1,.428-1.215c.963-.477,1.947-.922,2.952-1.3a.942.942,0,0,1,1.2.566q.627,1.306,1.177,2.649a1.093,1.093,0,0,1-.453,1.365c-.507.308-1.016.183-1.6-.418-.075.128-.151.244-.214.367a16.892,16.892,0,0,1-13.853,9.5,2.484,2.484,0,0,0-.365.1Z" transform="translate(0 -180.246)" fill="#5a5656"/>
    <path id="Path_217" data-name="Path 217" d="M213.474,59.839c-.687-.3-1.27-.534-1.835-.8a1.043,1.043,0,0,0-.916.052,2.331,2.331,0,0,0-1.55,2.478c-.027.952-.442,1.252-1.4,1.254q-1.98,0-3.96,0a1.166,1.166,0,0,1-1.343-1.221c-.006-.056-.008-.112-.015-.167-.19-1.669-.269-1.788-1.784-2.483a.661.661,0,0,0-.461.026c-.466.183-.918.4-1.381.595a1.131,1.131,0,0,1-1.61-.518q-1.071-1.83-2.115-3.675a1.106,1.106,0,0,1,.337-1.612.47.47,0,0,1,.09-.065,2.291,2.291,0,0,0,1.383-2.772.887.887,0,0,0-.241-.5c-.4-.334-.838-.617-1.25-.936a1.092,1.092,0,0,1-.337-1.569q1.065-1.9,2.172-3.772a1.1,1.1,0,0,1,1.487-.483c.069.026.138.056.206.085,1.6.689,1.6.694,3.085-.23a.688.688,0,0,0,.259-.435c.083-.514.12-1.035.183-1.552a1.111,1.111,0,0,1,1.189-1.077q2.175-.014,4.351,0a1.092,1.092,0,0,1,1.156,1.045.89.89,0,0,1,.021.222,2.316,2.316,0,0,0,1.746,2.56.768.768,0,0,0,.509.007c.469-.175.92-.4,1.382-.591a1.131,1.131,0,0,1,1.611.513q1.071,1.83,2.114,3.676a1.12,1.12,0,0,1-.334,1.615c-.058.046-.121.086-.181.131-1.376,1.027-1.382,1.027-1.3,2.764a.7.7,0,0,0,.246.443c.4.329.838.618,1.249.937a1.107,1.107,0,0,1,.334,1.572c-.712,1.264-1.421,2.531-2.186,3.763-.19.306-.593.48-.913.727m.707-11.614-1.23-2.13c-.515.223-.973.418-1.429.619a1.288,1.288,0,0,1-1.311-.144c-.714-.459-1.451-.885-2.2-1.281a1.233,1.233,0,0,1-.761-1.011c-.054-.516-.127-1.03-.192-1.551H204.6c-.056.5-.117.961-.157,1.424a1.392,1.392,0,0,1-.922,1.205,15.33,15.33,0,0,0-2.01,1.17,1.328,1.328,0,0,1-1.406.173c-.451-.2-.906-.4-1.39-.61l-1.229,2.131c.428.319.806.618,1.2.892a1.329,1.329,0,0,1,.569,1.3,20.748,20.748,0,0,0,0,2.441,1.36,1.36,0,0,1-.617,1.334c-.391.268-.764.561-1.16.854l1.238,2.13c.521-.226.981-.424,1.438-.625a1.282,1.282,0,0,1,1.308.158,24.019,24.019,0,0,0,2.155,1.253,1.275,1.275,0,0,1,.8,1.045c.058.513.123,1.025.187,1.553h2.449c.062-.5.143-.974.176-1.453a1.355,1.355,0,0,1,.924-1.2,12.087,12.087,0,0,0,1.917-1.108,1.411,1.411,0,0,1,1.6-.185c.409.2.839.362,1.285.551l1.222-2.128c-.422-.312-.8-.608-1.2-.883a1.336,1.336,0,0,1-.579-1.3,22.515,22.515,0,0,0,0-2.44,1.335,1.335,0,0,1,.572-1.3c.4-.275.776-.572,1.209-.892" transform="translate(-165.837 -34.419)" fill="#5a5656"/>
    <path id="Path_218" data-name="Path 218" d="M60.857,212.829c-.685-.3-1.272-.52-1.831-.8a1.091,1.091,0,0,0-1.014.069,2.249,2.249,0,0,0-1.483,2.342c-.04,1.109-.423,1.36-1.534,1.361-1.283,0-2.566,0-3.849,0a1.169,1.169,0,0,1-1.338-1.231c-.006-.056-.007-.112-.013-.167-.169-1.626-.3-1.815-1.79-2.48a.669.669,0,0,0-.461.033c-.483.191-.951.42-1.433.615a1.1,1.1,0,0,1-1.526-.5q-1.089-1.852-2.144-3.724a1.106,1.106,0,0,1,.35-1.609.465.465,0,0,1,.09-.066,2.337,2.337,0,0,0,1.382-2.827.775.775,0,0,0-.248-.443c-.4-.329-.839-.616-1.25-.936a1.089,1.089,0,0,1-.332-1.569q1.065-1.9,2.17-3.773a1.105,1.105,0,0,1,1.439-.5c.088.031.171.072.257.109,1.6.69,1.6.695,3.084-.234a.7.7,0,0,0,.261-.436c.079-.458.116-.923.162-1.386.088-.88.459-1.236,1.322-1.238q2.064-.007,4.128,0a1.109,1.109,0,0,1,1.267,1.106c.005.037.008.074.013.111a4.276,4.276,0,0,0,.272,1.684c.283.43.931.631,1.438.9a.763.763,0,0,0,.551.032c.488-.176.954-.411,1.436-.606a1.1,1.1,0,0,1,1.526.492Q62.851,199,63.9,200.871a1.124,1.124,0,0,1-.344,1.615.7.7,0,0,1-.136.1,2.254,2.254,0,0,0-1.338,2.742.889.889,0,0,0,.257.5c.4.334.838.617,1.248.938a1.108,1.108,0,0,1,.322,1.575c-.7,1.248-1.4,2.5-2.158,3.715a4.092,4.092,0,0,1-.9.778M44.828,201.2c.4.3.763.6,1.146.852a1.375,1.375,0,0,1,.618,1.385,17.461,17.461,0,0,0,0,2.386,1.352,1.352,0,0,1-.6,1.338c-.393.269-.768.565-1.167.861l1.234,2.132c.492-.215.934-.4,1.373-.6a1.338,1.338,0,0,1,1.408.157,18.987,18.987,0,0,0,2.109,1.22,1.317,1.317,0,0,1,.825,1.093c.055.5.113.992.172,1.513H54.4c.062-.482.147-.957.177-1.434a1.356,1.356,0,0,1,.909-1.209,16.052,16.052,0,0,0,2.01-1.17,1.332,1.332,0,0,1,1.405-.178c.452.2.909.395,1.4.607l1.228-2.13c-.408-.3-.787-.6-1.183-.873a1.361,1.361,0,0,1-.6-1.343,19.794,19.794,0,0,0,0-2.385,1.336,1.336,0,0,1,.553-1.308c.409-.286.8-.592,1.229-.906l-1.234-2.133c-.52.227-.964.416-1.4.614a1.3,1.3,0,0,1-1.358-.154,23.929,23.929,0,0,0-2.155-1.252,1.257,1.257,0,0,1-.789-1.051c-.049-.512-.126-1.021-.19-1.526H51.941c-.053.49-.11.95-.152,1.412a1.394,1.394,0,0,1-.911,1.214,14.5,14.5,0,0,0-2.011,1.167,1.341,1.341,0,0,1-1.454.17c-.433-.2-.876-.386-1.356-.6L44.828,201.2" transform="translate(-35.937 -164.596)" fill="#5a5656"/>
    <path id="Path_219" data-name="Path 219" d="M34.032,185.623a1.111,1.111,0,0,1-1.082,1.111,1.145,1.145,0,0,1-1.139-1.125,1.129,1.129,0,0,1,1.152-1.1,1.1,1.1,0,0,1,1.069,1.116" transform="translate(-27.069 -157.003)" fill="#5a5656"/>
    <path id="Path_220" data-name="Path 220" d="M249.881,93.312a3.9,3.9,0,0,1-7.807-.054,3.9,3.9,0,1,1,7.807.054m-3.888,1.6a1.649,1.649,0,0,0,1.656-1.666,1.674,1.674,0,0,0-1.707-1.675,1.693,1.693,0,0,0-1.635,1.7,1.667,1.667,0,0,0,1.686,1.642" transform="translate(-205.989 -76.031)" fill="#5a5656"/>
    <path id="Path_221" data-name="Path 221" d="M97.21,246.129a3.9,3.9,0,1,1-7.806-.066,3.9,3.9,0,0,1,7.806.066m-2.232,0a1.636,1.636,0,0,0-1.648-1.667,1.661,1.661,0,0,0-1.694,1.688,1.714,1.714,0,0,0,1.687,1.656,1.684,1.684,0,0,0,1.655-1.677" transform="translate(-76.077 -206.112)" fill="#5a5656"/>
  </g>
</svg>
