<svg xmlns="http://www.w3.org/2000/svg" width="83" height="83" viewBox="0 0 83 83">
  <g id="Group_2459" data-name="Group 2459" transform="translate(-1753 -9597)">
    <circle id="Ellipse_127" data-name="Ellipse 127" cx="41.5" cy="41.5" r="41.5" transform="translate(1753 9597)" fill="#1490d2"/>
    <path id="Icon_simple-hipchat" data-name="Icon simple-hipchat" d="M29.6,28.584s.154-.11.4-.3a14.668,14.668,0,0,0,6-11.578C36,8.136,27.941,1.181,18,1.181S0,8.136,0,16.708,8.057,32.243,18,32.243a20.642,20.642,0,0,0,3.786-.342l.393-.067a18.734,18.734,0,0,0,9.432,2.985.966.966,0,0,0,.828-1.656A18.219,18.219,0,0,1,29.6,28.584ZM27.411,21.8a11.635,11.635,0,0,1-9.381,4.333h-.069A11.65,11.65,0,0,1,8.58,21.8a1.705,1.705,0,0,1-.41-.861.735.735,0,0,1,.67-.789.08.08,0,0,1,.031,0,.943.943,0,0,1,.492.167A13.706,13.706,0,0,0,18,23.391a13.208,13.208,0,0,0,8.64-3.088.692.692,0,0,1,.469-.183.724.724,0,0,1,.725.712,1.982,1.982,0,0,1-.4.965h-.017Z" transform="translate(1777 9620.819)" fill="#fff"/>
  </g>
</svg>
