<svg xmlns="http://www.w3.org/2000/svg" xmlns:xlink="http://www.w3.org/1999/xlink" width="53.758" height="53.778" viewBox="0 0 53.758 53.778">
  <defs>
    <clipPath id="clip-path">
      <rect id="Rectangle_349" data-name="Rectangle 349" width="53.758" height="53.778" fill="#000d14"/>
    </clipPath>
  </defs>
  <g id="Group_1219" data-name="Group 1219" transform="translate(0 16.805)">
    <g id="Group_983" data-name="Group 983" transform="translate(0 -16.805)" clip-path="url(#clip-path)">
      <path id="Path_2521" data-name="Path 2521" d="M26.246,53.779a6.907,6.907,0,0,1-3.432-2c-.767-.716-1.564-1.4-2.373-2.071a1.086,1.086,0,0,0-.691-.239c-1.763.112-3.529.209-5.284.4A4.847,4.847,0,0,1,8.873,45.9c-.259-1.407-.675-2.785-.991-4.182a1.182,1.182,0,0,0-.6-.845c-1.6-.93-3.193-1.882-4.782-2.836A4.7,4.7,0,0,1,.443,31.848c.622-1.52,1.264-3.032,1.865-4.561a1.23,1.23,0,0,0,.006-.823c-.6-1.529-1.242-3.041-1.865-4.561A4.7,4.7,0,0,1,2.53,15.685c1.457-.868,2.922-1.722,4.367-2.609a1.237,1.237,0,0,0,.491-.617c.566-1.727,1.1-3.462,1.64-5.2a4.688,4.688,0,0,1,4.987-3.4c1.866.143,3.733.281,5.6.439a1.181,1.181,0,0,0,.991-.316C21.6,3.073,22.62,2.194,23.63,1.3A4.7,4.7,0,0,1,30.1,1.288c1,.877,2.007,1.746,2.984,2.649a1.283,1.283,0,0,0,1.08.361c1.847-.16,3.7-.3,5.546-.436a4.652,4.652,0,0,1,5.046,3.587c.4,1.538.738,3.094,1.143,4.631a1.292,1.292,0,0,0,.515.706c1.56.968,3.131,1.918,4.721,2.836a4.868,4.868,0,0,1,2.542,3.413.962.962,0,0,0,.08.189v1.365c-.16.455-.3.917-.482,1.363-.608,1.5-1.242,2.991-1.833,4.5a1.242,1.242,0,0,0,0,.821c.755,1.98,1.542,3.949,2.319,5.92v1.365a.441.441,0,0,0-.079.131,4.778,4.778,0,0,1-2.44,3.362c-1.625.958-3.245,1.926-4.849,2.918a1.219,1.219,0,0,0-.486.667c-.374,1.418-.7,2.848-1.049,4.272a4.774,4.774,0,0,1-5.532,3.958q-2.637-.232-5.28-.4a1.235,1.235,0,0,0-.779.273c-.8.653-1.577,1.33-2.331,2.035a6.887,6.887,0,0,1-3.429,2ZM14.392,7.043c-1.686-.1-2.039.144-2.491,1.588-.57,1.817-1.154,3.63-1.7,5.454a2.222,2.222,0,0,1-1.07,1.354c-1.647.959-3.279,1.943-4.919,2.914a1.641,1.641,0,0,0-.825,2.409c.7,1.713,1.395,3.432,2.131,5.132a2.309,2.309,0,0,1-.006,1.964C4.781,29.541,4.1,31.245,3.4,32.941A1.656,1.656,0,0,0,4.217,35.4c1.818,1.081,3.63,2.174,5.455,3.243a2.09,2.09,0,0,1,1.047,1.425c.4,1.755.84,3.5,1.256,5.252a1.563,1.563,0,0,0,1.007,1.3,3.75,3.75,0,0,0,1.29.09q3.01-.213,6.016-.478a2.041,2.041,0,0,1,1.629.552c1.238,1.11,2.492,2.2,3.745,3.294a1.61,1.61,0,0,0,2.426,0c1.212-1.06,2.438-2.1,3.621-3.2a2.4,2.4,0,0,1,2.012-.634c2.019.194,4.044.342,6.068.484,1.2.084,1.715-.335,2-1.521.409-1.7.842-3.392,1.225-5.1a2.132,2.132,0,0,1,1.074-1.463c1.839-1.08,3.665-2.183,5.495-3.28a1.642,1.642,0,0,0,.789-2.385c-.712-1.729-1.415-3.462-2.151-5.18a2.223,2.223,0,0,1,0-1.867c.722-1.686,1.408-3.388,2.108-5.085a1.682,1.682,0,0,0-.826-2.538c-1.813-1.089-3.626-2.181-5.449-3.254a2.036,2.036,0,0,1-1.021-1.381c-.4-1.755-.835-3.5-1.259-5.251a1.6,1.6,0,0,0-1.766-1.436c-2.216.162-4.432.325-6.646.511a1.923,1.923,0,0,1-1.539-.5c-1.226-1.1-2.462-2.182-3.695-3.272a1.632,1.632,0,0,0-2.505.007C24.412,4.807,23.2,5.864,22,6.944A2.059,2.059,0,0,1,20.33,7.5c-2.039-.181-4.081-.319-5.938-.459" transform="translate(0 0)" fill="#000d14"/>
      <path id="Path_2522" data-name="Path 2522" d="M71.244,85.5" transform="translate(-58.543 -58.635)" fill="#000d14"/>
      <path id="Path_2523" data-name="Path 2523" d="M134.357,158.158c.288-.275.468-.439.64-.611q4.964-4.963,9.923-9.931a2.18,2.18,0,0,1,1.984-.773,2.009,2.009,0,0,1,1.326,3.126,4.209,4.209,0,0,1-.534.606q-5.747,5.754-11.5,11.5c-1.246,1.246-2.291,1.247-3.532.007q-3.819-3.817-7.633-7.639a2.023,2.023,0,0,1,.812-3.515,2.055,2.055,0,0,1,2.071.672q2.956,2.962,5.917,5.919c.174.175.316.381.526.636" transform="translate(-109.578 -128.018)" fill="#000d14"/>
    </g>
  </g>
</svg>
