<svg id="Group_1544" data-name="Group 1544" xmlns="http://www.w3.org/2000/svg" xmlns:xlink="http://www.w3.org/1999/xlink" width="269.996" height="152.62" viewBox="0 0 269.996 152.62">
  <defs>
    <clipPath id="clip-path">
      <rect id="Rectangle_781" data-name="Rectangle 781" width="269.996" height="152.62" fill="none"/>
    </clipPath>
  </defs>
  <g id="Group_1543" data-name="Group 1543" clip-path="url(#clip-path)">
    <path id="Path_3491" data-name="Path 3491" d="M99.924,157.382c-1.524,0-45.344-18.409-35.774-54.973,9.646-36.853,57.116-55.3,98.784-58.345S186.86,83.572,245.08,74.784c41.244-6.226,39.564,43.768-12.451,54.473S99.924,157.382,99.924,157.382" transform="translate(-36.071 -25.226)" fill="#e29d9d"/>
    <path id="Path_3492" data-name="Path 3492" d="M100.467,131.856c.844.281,87.167,65.8,87.167,65.8l6.467-5.624-81.544-72.265Z" transform="translate(-57.721 -68.808)" fill="#d64d8b"/>
    <path id="Path_3493" data-name="Path 3493" d="M84.964,89.313,72.872,101.405c-9.76,2.085-17.291-3.429-19.738-15.058a30.642,30.642,0,0,1-.5-3.114c-1.2-10.577,3.561-16.47,3.561-16.47.489,5.752,1.838,9.182,15.789,6.489a10.972,10.972,0,0,1,1.468-.183c10.556-.591,11.513,16.245,11.513,16.245" transform="translate(-30.127 -38.357)" fill="#373b54"/>
    <path id="Path_3494" data-name="Path 3494" d="M73.45,73.069c-1.119,6.769-6.378,13.092-18.164,10.786q-1.436-.281-2.655-.621c-1.2-10.577,3.561-16.47,3.561-16.47.489,5.752,1.838,9.182,15.789,6.489a10.972,10.972,0,0,1,1.468-.183" transform="translate(-30.127 -38.357)" fill="#f3c700"/>
    <path id="Path_3495" data-name="Path 3495" d="M181.124,247.358,166,252.2c-25.495-5.246-39.986-19.049-48.117-31.63l8.1-9.241-12.173,2.085a63.677,63.677,0,0,1-5.9-17.185c52.942-9.982,72,50.827,73.212,51.129" transform="translate(-61.998 -112.102)" fill="#55c0bf"/>
    <path id="Path_3496" data-name="Path 3496" d="M191.662,87.97l-15.262-4.4C139.566,46.146,159.3,4.743,159.3,4.743a59.025,59.025,0,0,1,14.526,8.722c-3.685,4.85-8.352,12.832-1.608,13.237,4.178.251,6.344-3.378,7.454-7.595,23.405,26.486,11.3,68.1,11.994,68.863" transform="translate(-88.487 -2.725)" fill="#55c0bf"/>
    <path id="Path_3497" data-name="Path 3497" d="M130.057,212.113c.749,0,15.737,2.5,34.721,24.48" transform="translate(-74.721 -121.864)" fill="none" stroke="#fff" stroke-linecap="round" stroke-miterlimit="10" stroke-width="3"/>
    <path id="Path_3498" data-name="Path 3498" d="M174.676,28.163s.749,17.486,15.737,46.462" transform="translate(-100.356 -16.18)" fill="none" stroke="#fff" stroke-linecap="round" stroke-miterlimit="10" stroke-width="3"/>
    <path id="Path_3499" data-name="Path 3499" d="M300.567,285.884H255.1l5.481-30.244h45.468Z" transform="translate(-146.561 -146.871)" fill="#373b54"/>
    <path id="Path_3500" data-name="Path 3500" d="M292.33,326.992h-57.9a1.816,1.816,0,1,1,0-3.631h57.9a1.816,1.816,0,0,1,0,3.631" transform="translate(-133.645 -185.779)" fill="#494f70"/>
    <path id="Path_3501" data-name="Path 3501" d="M159.832,173.236l14.8-81.642a4.719,4.719,0,0,1,4.644-3.878H302.88a4.719,4.719,0,0,1,4.644,5.561l-14.795,81.642a4.719,4.719,0,0,1-4.644,3.878H164.476a4.719,4.719,0,0,1-4.644-5.561" transform="translate(-91.783 -50.395)" fill="#494f70"/>
    <path id="Path_3502" data-name="Path 3502" d="M297.335,168.131H176.059a2.042,2.042,0,0,1-2.008-2.41l12.36-67.342a2.042,2.042,0,0,1,2.008-1.673H309.694a2.041,2.041,0,0,1,2.008,2.41l-12.36,67.342a2.041,2.041,0,0,1-2.008,1.673" transform="translate(-99.977 -55.56)" fill="#fff"/>
    <path id="Path_3503" data-name="Path 3503" d="M327.756,128.77H223.871v-7.185H329.4Z" transform="translate(-128.619 -69.853)" fill="#55c0bf"/>
    <path id="Path_3504" data-name="Path 3504" d="M229.592,135.347H215.868l2.552-13.724h13.724Z" transform="translate(-124.021 -69.875)" fill="#f3c700"/>
    <path id="Path_3505" data-name="Path 3505" d="M268.109,198.148,294.415,158l18,40.193Z" transform="translate(-154.035 -90.773)" fill="#f2a14d"/>
    <path id="Path_3506" data-name="Path 3506" d="M250.245,177.755A14.606,14.606,0,1,0,264.85,163.15a14.605,14.605,0,0,0-14.605,14.605" transform="translate(-143.772 -93.734)" fill="#d64d8b"/>
    <path id="Path_3507" data-name="Path 3507" d="M212.965,153.774h30.467l22.34-32.969" transform="translate(-122.354 -69.405)" fill="none" stroke="#373b54" stroke-miterlimit="10" stroke-width="3"/>
    <rect id="Rectangle_777" data-name="Rectangle 777" width="3.847" height="3.847" transform="translate(89.371 82.435)" fill="#373b54"/>
    <rect id="Rectangle_778" data-name="Rectangle 778" width="3.847" height="3.847" transform="translate(119.652 82.435)" fill="#373b54"/>
    <rect id="Rectangle_779" data-name="Rectangle 779" width="3.847" height="3.847" transform="translate(141.618 49.424)" fill="#373b54"/>
    <path id="Path_3508" data-name="Path 3508" d="M369.376,186.87a4.4,4.4,0,1,0,0-6.219,4.4,4.4,0,0,0,0,6.219" transform="translate(-211.475 -103.048)" fill="#55c0bf"/>
    <path id="Path_3509" data-name="Path 3509" d="M450.421,219.753c-3.155,15.953-19.194,29.226-35.781,29.226s-30.771-9.883-32.858-26.01c-3.932-30.4,29.809-53.694,48.42-41.108,7.2,4.867-3.615,17.942,6.427,18.879,9.08.847,16.2,6.828,13.791,19.013" transform="translate(-219.162 -102.481)" fill="#55c0bf"/>
    <path id="Path_3510" data-name="Path 3510" d="M451.331,197.764c0,2.618,1.723,4.741,3.848,4.741s3.848-2.122,3.848-4.741-1.723-4.741-3.848-4.741-3.848,2.122-3.848,4.741" transform="translate(-259.3 -110.896)" fill="#f3c700"/>
    <path id="Path_3511" data-name="Path 3511" d="M409.261,225.735c0,3.418,3.11,6.188,6.947,6.188s6.947-2.77,6.947-6.188-3.11-6.188-6.947-6.188-6.947,2.771-6.947,6.188" transform="translate(-235.13 -126.135)" fill="#d64d8b"/>
    <path id="Path_3512" data-name="Path 3512" d="M404.654,276.859c0,3.71,2.7,6.718,6.028,6.718s6.027-3.008,6.027-6.718-2.7-6.718-6.027-6.718-6.028,3.008-6.028,6.718" transform="translate(-232.483 -155.202)" fill="#373b54"/>
    <path id="Path_3513" data-name="Path 3513" d="M459.35,309.747a6.1,6.1,0,1,1-6.089-5.677,5.894,5.894,0,0,1,6.089,5.677" transform="translate(-256.912 -174.695)" fill="#71fffe"/>
    <path id="Path_3514" data-name="Path 3514" d="M492.5,259.6c0,5.282-5.164,9.566-11.528,9.566a13.3,13.3,0,0,1-1.473-.08,11.79,11.79,0,0,1-8.568-4.781,8.27,8.27,0,0,1-1.492-4.7c0-4.77,4.208-8.725,9.715-9.448a14.15,14.15,0,0,1,1.817-.119c4.693,0,8.736,2.33,10.526,5.673a8.116,8.116,0,0,1,1,3.894" transform="translate(-269.706 -143.649)" fill="#fff"/>
    <path id="Path_3515" data-name="Path 3515" d="M511.175,203.818,493.516,223.5l-12,13.38a11.789,11.789,0,0,1-8.568-4.781l8.224-14.153,13.934-23.967Z" transform="translate(-271.721 -111.446)" fill="#494f70"/>
    <path id="Path_3516" data-name="Path 3516" d="M549.9,165.972c-3.557,3.416-9.922,4.132-9.922,4.132l-16.073-9.842s-4.456-12.994,7.371-15.774a19.69,19.69,0,0,1,3.27-.467c9.681-.623,10.239-8.725,10.239-8.725,12.45,15.189,10.5,25.5,5.114,30.675" transform="translate(-300.525 -77.731)" fill="#373b54"/>
    <path id="Path_3517" data-name="Path 3517" d="M561.124,165.815c-7.52.773-3.657-12.151-6.759-14.365-3.58-2.555-9.609,6.437-9.3-.612a7.4,7.4,0,0,0-2.72-6.349,19.691,19.691,0,0,1,3.27-.467c9.681-.623,10.24-8.725,10.24-8.725,12.45,15.189,10.653,25.347,5.271,30.518" transform="translate(-311.589 -77.731)" fill="#d64d8b"/>
    <path id="Path_3518" data-name="Path 3518" d="M411.182,137.409a7.659,7.659,0,1,1-7.659-7.659,7.659,7.659,0,0,1,7.659,7.659" transform="translate(-227.433 -74.544)" fill="#373b54"/>
    <path id="Path_3519" data-name="Path 3519" d="M407.908,62.906A17.208,17.208,0,0,1,403.3,74.652a17.686,17.686,0,0,0-3.443,5.386,16.587,16.587,0,0,0-1.193,5.175c-.027.356-.038.715-.038,1.075h-16c0-.36-.012-.719-.034-1.075a16.435,16.435,0,0,0-4.464-10.37,17.227,17.227,0,0,1-4.758-10.993,15.9,15.9,0,0,1-.011-1.71,17.366,17.366,0,0,1,17.231-16.52,17.28,17.28,0,0,1,17.323,17.285" transform="translate(-214.49 -26.21)" fill="#f2a14d"/>
    <rect id="Rectangle_780" data-name="Rectangle 780" width="15.817" height="4.656" transform="translate(168.269 60.124)" fill="#373b54"/>
    <path id="Path_3520" data-name="Path 3520" d="M409.28,141.431H393.223a1.376,1.376,0,1,1,0-2.753H409.28a1.376,1.376,0,1,1,0,2.753" transform="translate(-225.125 -79.674)" fill="#494f70"/>
    <path id="Path_3521" data-name="Path 3521" d="M409.28,151.752H393.223a1.376,1.376,0,1,1,0-2.752H409.28a1.376,1.376,0,1,1,0,2.752" transform="translate(-225.125 -85.604)" fill="#494f70"/>
    <path id="Path_3522" data-name="Path 3522" d="M401.677,57.964a14.769,14.769,0,0,1-28.312,5.886,15.89,15.89,0,0,1-.011-1.71,17.366,17.366,0,0,1,17.232-16.52,17.152,17.152,0,0,1,5.733.964,14.729,14.729,0,0,1,5.359,11.379" transform="translate(-214.49 -26.21)" fill="#f3c700"/>
    <path id="Path_3523" data-name="Path 3523" d="M405.554,14.438,400.66,3.671,411.428,0Z" transform="translate(-230.189 0)" fill="#f3c700"/>
    <path id="Path_3524" data-name="Path 3524" d="M374.874,33.567l-7.1-5.384-2.2,6.852Z" transform="translate(-210.032 -16.192)" fill="#f3c700"/>
    <path id="Path_3525" data-name="Path 3525" d="M438.969,26.87l8.562-3.045-2.692-4.16Z" transform="translate(-252.198 -11.298)" fill="#f3c700"/>
    <path id="Path_3526" data-name="Path 3526" d="M397.356,84.164s.361,5.892,7.575,5.892,9.132-6.718,4.689-6.974c-3.482-.2-4.93,3.487-4.93,5.17s-.05,15.426-.05,15.426" transform="translate(-228.291 -47.728)" fill="none" stroke="#fff" stroke-linecap="round" stroke-miterlimit="10" stroke-width="3"/>
    <path id="Path_3527" data-name="Path 3527" d="M66.945,285.047h52.027a11.913,11.913,0,1,1,0,23.827H66.945Z" transform="translate(-38.462 -163.766)" fill="#f2a14d"/>
    <path id="Path_3528" data-name="Path 3528" d="M66.925,310.213V294.036H118.96a8.089,8.089,0,0,1,0,16.177Z" transform="translate(-38.45 -168.931)" fill="#fff"/>
    <path id="Path_3529" data-name="Path 3529" d="M108.7,323.777l-4.764-1.831-4.676,1.831V306.23h9.44Z" transform="translate(-57.03 -175.937)" fill="#d64d8b"/>
  </g>
</svg>
