<svg xmlns="http://www.w3.org/2000/svg" xmlns:xlink="http://www.w3.org/1999/xlink" width="56.206" height="58.893" viewBox="0 0 56.206 58.893">
  <defs>
    <clipPath id="clip-path">
      <rect id="Rectangle_251" data-name="Rectangle 251" width="56.206" height="58.893" fill="#2e2b2b"/>
    </clipPath>
  </defs>
  <g id="Group_1209" data-name="Group 1209" opacity="0.59">
    <g id="Group_167" data-name="Group 167" clip-path="url(#clip-path)">
      <path id="Path_191" data-name="Path 191" d="M23.388,58.893a12.78,12.78,0,0,1-1.818-.809,4.092,4.092,0,0,1-1.733-2.742c-.284-1.309-.566-2.619-.891-3.918a1.125,1.125,0,0,0-.491-.6c-1.326-.8-2.681-1.549-4-2.353a.9.9,0,0,0-.838-.131c-1.253.414-2.512.811-3.772,1.205a4.258,4.258,0,0,1-5.333-2.081q-1.917-3.3-3.825-6.613a4.267,4.267,0,0,1,.825-5.577c.98-.915,1.985-1.805,2.95-2.737a1.13,1.13,0,0,0,.3-.727q.038-2.353,0-4.707a1.134,1.134,0,0,0-.289-.731c-.979-.945-2-1.845-2.992-2.776a4.25,4.25,0,0,1-.82-5.486q1.957-3.413,3.94-6.811A4.2,4.2,0,0,1,9.663,9.312q1.951.587,3.887,1.223a.991.991,0,0,0,.94-.131c1.3-.8,2.644-1.536,3.955-2.322a1.125,1.125,0,0,0,.5-.6c.35-1.391.632-2.8.975-4.193A4.153,4.153,0,0,1,24.079.008q4.025-.016,8.05,0A4.151,4.151,0,0,1,36.29,3.294c.333,1.356.628,2.722.922,4.088a1.022,1.022,0,0,0,.593.748q1.988,1.084,3.916,2.276a1,1,0,0,0,.941.135c1.291-.424,2.585-.837,3.885-1.23A4.2,4.2,0,0,1,51.618,11.3q1.987,3.4,3.941,6.811a4.261,4.261,0,0,1-.828,5.488c-.992.931-2.013,1.831-2.992,2.776a1.131,1.131,0,0,0-.287.731c-.025,1.55.008,3.1-.025,4.649a.97.97,0,0,0,.354.836q1.475,1.326,2.922,2.683a4.271,4.271,0,0,1,.819,5.579q-1.907,3.309-3.826,6.612a4.248,4.248,0,0,1-5.332,2.076c-1.278-.4-2.549-.825-3.833-1.2a1.035,1.035,0,0,0-.716.116c-1.331.752-2.631,1.561-3.975,2.288a1.124,1.124,0,0,0-.644.842q-.418,1.965-.878,3.921a4.124,4.124,0,0,1-3.29,3.3,1.2,1.2,0,0,0-.208.092ZM8.212,12.725a3.563,3.563,0,0,0-.533.588c-1.258,2.148-2.486,4.313-3.753,6.456a.881.881,0,0,0,.205,1.293c1.26,1.121,2.485,2.281,3.738,3.41a1.962,1.962,0,0,1,.7,1.845,21.582,21.582,0,0,0,0,6.243,2.006,2.006,0,0,1-.723,1.892c-1.268,1.141-2.508,2.313-3.776,3.453a.8.8,0,0,0-.172,1.155q1.917,3.271,3.794,6.565a.782.782,0,0,0,1.088.4c1.525-.506,3.076-.935,4.589-1.474a2.476,2.476,0,0,1,2.654.48,15.886,15.886,0,0,0,4.7,2.718,2.338,2.338,0,0,1,1.628,1.887c.317,1.6.714,3.174,1.044,4.767a.872.872,0,0,0,1.01.825c2.453-.031,4.907-.012,7.36-.013.812,0,.875-.058,1.06-.88.37-1.643.757-3.282,1.111-4.929a1.964,1.964,0,0,1,1.308-1.54,18.373,18.373,0,0,0,5.2-3.005,2.079,2.079,0,0,1,2.14-.38c1.615.539,3.251,1.015,4.868,1.548a.78.78,0,0,0,1.084-.406q1.859-3.271,3.767-6.514a.856.856,0,0,0-.195-1.248c-1.243-1.111-2.45-2.263-3.694-3.373a2.044,2.044,0,0,1-.762-1.932,21.116,21.116,0,0,0,0-6.186,2.042,2.042,0,0,1,.744-1.94c1.257-1.124,2.479-2.288,3.735-3.414a.829.829,0,0,0,.179-1.2q-1.9-3.245-3.763-6.517a.813.813,0,0,0-1.135-.413c-1.635.54-3.284,1.039-4.922,1.57a1.976,1.976,0,0,1-1.988-.368,18.771,18.771,0,0,0-5.3-3.066,1.892,1.892,0,0,1-1.252-1.454c-.374-1.7-.775-3.4-1.138-5.1a.852.852,0,0,0-.982-.789c-2.472.026-4.945.01-7.418.011-.768,0-.851.073-1.025.852-.364,1.625-.745,3.246-1.089,4.875a2.1,2.1,0,0,1-1.411,1.659A17.955,17.955,0,0,0,15.8,14.027a2.118,2.118,0,0,1-2.193.386c-1.558-.527-3.135-1-4.7-1.5-.182-.057-.367-.1-.687-.192" transform="translate(0 0)" fill="#2e2b2b"/>
      <path id="Path_192" data-name="Path 192" d="M164.691,127.873a1.819,1.819,0,0,1,1.732,2.305q-1.069,4.7-2.159,9.4-.722,3.132-1.449,6.263a1.847,1.847,0,1,1-3.58-.809q1.79-7.8,3.592-15.6a1.849,1.849,0,0,1,1.863-1.552" transform="translate(-134.712 -108.225)" fill="#2e2b2b"/>
      <path id="Path_193" data-name="Path 193" d="M83.666,151.109c1.518,1.364,2.978,2.687,4.45,4a1.937,1.937,0,0,1,.754,1.712,1.746,1.746,0,0,1-1.1,1.5,1.707,1.707,0,0,1-1.884-.279c-.916-.786-1.806-1.6-2.7-2.408q-1.668-1.5-3.332-3a1.863,1.863,0,0,1-.019-3.021c1.935-1.746,3.877-3.484,5.808-5.234a1.922,1.922,0,0,1,1.777-.582,1.748,1.748,0,0,1,1.4,1.3,1.769,1.769,0,0,1-.551,1.879c-1.274,1.163-2.562,2.309-3.845,3.462-.227.2-.453.411-.748.678" transform="translate(-66.917 -121.658)" fill="#2e2b2b"/>
      <path id="Path_194" data-name="Path 194" d="M228.052,151.1c-1.045-.943-2.037-1.839-3.03-2.734-.513-.462-1.035-.913-1.539-1.384a1.845,1.845,0,0,1-.191-2.625,1.818,1.818,0,0,1,2.625-.125q3.054,2.708,6.07,5.458a1.807,1.807,0,0,1-.012,2.824q-2.995,2.731-6.027,5.42a1.816,1.816,0,0,1-2.667-.111,1.854,1.854,0,0,1,.259-2.664c1.476-1.337,2.961-2.665,4.513-4.06" transform="translate(-188.592 -121.645)" fill="#2e2b2b"/>
    </g>
  </g>
</svg>
