<svg id="Group_1401" data-name="Group 1401" xmlns="http://www.w3.org/2000/svg" xmlns:xlink="http://www.w3.org/1999/xlink" width="57.96" height="60.594" viewBox="0 0 57.96 60.594">
  <defs>
    <clipPath id="clip-path">
      <rect id="Rectangle_588" data-name="Rectangle 588" width="57.96" height="60.594"/>
    </clipPath>
  </defs>
  <g id="Group_1400" data-name="Group 1400" clip-path="url(#clip-path)">
    <path id="Path_2689" data-name="Path 2689" d="M4.868,34.592c-1.252,0-2.436,0-3.62,0C.3,34.588.005,34.3,0,33.356Q0,28.97,0,24.584c0-.934.3-1.222,1.256-1.226,1.047,0,2.094-.016,3.141.007A.511.511,0,0,0,5,22.9a22.849,22.849,0,0,1,2.732-6.586.507.507,0,0,0-.118-.751c-.767-.741-1.517-1.5-2.266-2.259-.614-.623-.616-1.056,0-1.674q3.138-3.148,6.286-6.287c.614-.612,1.053-.609,1.675,0,.774.763,1.528,1.545,2.317,2.292a.639.639,0,0,0,.575.125,25.536,25.536,0,0,1,7.156-2.894c0-1.16,0-2.3,0-3.443C23.359.235,23.591,0,24.772,0q4.267,0,8.534,0c1.02,0,1.292.276,1.3,1.307,0,1.164,0,2.328,0,3.5,1.1.359,2.184.641,3.211,1.07,1.271.53,2.507,1.151,3.724,1.8a.642.642,0,0,0,.941-.139c.7-.751,1.441-1.464,2.172-2.186.621-.612,1.063-.618,1.675-.007q3.148,3.138,6.286,6.287c.613.615.612,1.052,0,1.675-.749.76-1.5,1.518-2.266,2.26a.507.507,0,0,0-.119.751A22.892,22.892,0,0,1,52.957,22.9a.512.512,0,0,0,.6.467c1.086-.022,2.173-.015,3.259,0,.8.008,1.132.32,1.135,1.107q.015,4.5,0,9.009c0,.792-.333,1.108-1.125,1.114-1.223.009-2.446,0-3.679,0-.363,1.112-.648,2.221-1.086,3.265-.541,1.288-1.192,2.531-1.835,3.773a.526.526,0,0,0,.1.754c.756.724,1.489,1.472,2.226,2.216.672.677.679,1.1.019,1.76q-3.118,3.126-6.244,6.244c-.621.619-1.055.621-1.673.012-.774-.763-1.548-1.526-2.3-2.309-.239-.248-.408-.233-.707-.085q-2.145,1.06-4.326,2.045a.56.56,0,0,0-.416.594,3.277,3.277,0,0,1-1.988,3.1.774.774,0,0,0-.356.514,4.456,4.456,0,0,1-4.5,4.1c-.888.025-1.78.027-2.665-.037a4.272,4.272,0,0,1-4.035-4.064.727.727,0,0,0-.334-.512,3.271,3.271,0,0,1-1.985-3.106.565.565,0,0,0-.416-.6q-2.178-.989-4.326-2.043c-.3-.147-.468-.158-.708.092-.752.784-1.525,1.548-2.3,2.309-.617.606-1.053.6-1.674-.017Q8.5,49.484,5.379,46.358C4.72,45.7,4.728,45.279,5.4,44.6c.752-.757,1.516-1.5,2.252-2.274a.6.6,0,0,0,.138-.529,25.687,25.687,0,0,1-2.924-7.205M7.246,12.526c.794.79,1.622,1.606,2.44,2.432.521.525.58.877.192,1.469A23.307,23.307,0,0,0,6.6,24.306c-.156.718-.422.93-1.147.942-.948.015-1.9,0-2.845,0H1.937V32.7c1.12,0,2.2,0,3.283,0,.986,0,1.23.179,1.432,1.123a22.657,22.657,0,0,0,3.134,7.557c.5.773.46,1.059-.184,1.7-.793.794-1.59,1.585-2.3,2.288l5.247,5.287c-.019.01.022,0,.049-.028q1.155-1.15,2.308-2.3c.6-.595.9-.622,1.611-.2.676.407,1.347.826,2.049,1.184.779.4,1.591.732,2.467,1.129,0-1.283-.034-2.428.009-3.571a2.869,2.869,0,0,0-1.491-2.683c-6.125-4.05-9.034-9.76-8.356-17.083A17.894,17.894,0,1,1,38.3,44.271a2.415,2.415,0,0,0-1.355,1.961c-.053,1.359-.014,2.722-.014,4.143a4,4,0,0,0,.528-.176c1.214-.611,2.45-1.186,3.629-1.858,1.207-.688,1.258-.721,2.259.283l2.074,2.08,5.281-5.287c-.748-.743-1.531-1.519-2.311-2.3-.7-.7-.727-.953-.187-1.8a22.482,22.482,0,0,0,3.087-7.45c.213-.992.445-1.17,1.453-1.172,1.081,0,2.162,0,3.274,0V25.253c-1.141,0-2.242,0-3.344,0-.921,0-1.162-.18-1.353-1.065a22.921,22.921,0,0,0-3.184-7.664c-.456-.7-.412-1.016.18-1.61.807-.809,1.619-1.613,2.367-2.356l-5.279-5.3c-.735.74-1.5,1.512-2.264,2.28-.727.729-.974.755-1.844.2a22.338,22.338,0,0,0-6.875-2.949c-1.719-.416-1.72-.414-1.72-2.195V1.945H25.253c0,1.112,0,2.176,0,3.24,0,1.039-.163,1.263-1.146,1.472a22.351,22.351,0,0,0-7.45,3.081c-.871.557-1.115.524-1.844-.206-.776-.777-1.55-1.557-2.281-2.292L7.246,12.526M34.959,46.962a.561.561,0,0,0,.054-.136c.008-.158.007-.316.014-.473a4.228,4.228,0,0,1,1.8-3.374c.319-.232.669-.42.99-.65,5.392-3.858,7.89-9.107,6.976-15.672a16,16,0,1,0-30.479,8.729,16.07,16.07,0,0,0,6.415,7.321A4.364,4.364,0,0,1,22.9,45.93c.05.342.048.692.07,1.032ZM35,48.924H22.965v1.688H35Zm0,3.663H22.963c-.062,1.131.466,1.736,1.544,1.741q4.472.019,8.944,0c1.077,0,1.606-.61,1.544-1.741m-9.69,3.668A2.226,2.226,0,0,0,27.259,58.6a19.182,19.182,0,0,0,3.361.009A2.339,2.339,0,0,0,32.6,56.255Z" transform="translate(0 0.001)"/>
    <path id="Path_2690" data-name="Path 2690" d="M118.485,137.449l.943-4.047c.152-.653.277-1.314.468-1.956a.623.623,0,0,0-.252-.754c-1.4-1.19-2.78-2.4-4.177-3.594a1.215,1.215,0,0,1,.731-2.253c1.772-.132,3.54-.312,5.313-.431a.9.9,0,0,0,.9-.649c.661-1.647,1.373-3.273,2.05-4.914.229-.555.551-.965,1.2-.962s.968.417,1.2.971c.692,1.677,1.418,3.34,2.1,5.022a.739.739,0,0,0,.741.521c1.85.139,3.7.31,5.549.456a1.191,1.191,0,0,1,.686,2.168c-1.407,1.211-2.8,2.435-4.222,3.633a.721.721,0,0,0-.273.854c.443,1.78.834,3.572,1.263,5.356a1.226,1.226,0,0,1-.431,1.423,1.194,1.194,0,0,1-1.436-.03c-1.5-.916-3.016-1.8-4.5-2.746a1.046,1.046,0,0,0-1.317-.023c-1.513.967-3.065,1.87-4.6,2.8a1.066,1.066,0,0,1-1.323.012,3.889,3.889,0,0,1-.614-.858m15.02-10.83c-1.712-.151-3.238-.309-4.769-.409a1.238,1.238,0,0,1-1.207-.85c-.524-1.3-1.081-2.584-1.627-3.873-.063-.148-.147-.286-.267-.516-.5,1.182-.942,2.255-1.4,3.323-.889,2.065-.457,1.815-2.858,2.017-1.133.1-2.265.2-3.525.3.24.224.374.358.518.483,1.016.879,2.025,1.766,3.055,2.627a1.281,1.281,0,0,1,.482,1.454c-.386,1.5-.712,3.023-1.085,4.633.261-.147.431-.238.6-.336,1.15-.693,2.311-1.367,3.441-2.09a1.3,1.3,0,0,1,1.581-.016c1.062.683,2.157,1.314,3.239,1.967l.831.5c-.374-1.6-.682-3.066-1.069-4.511a1.457,1.457,0,0,1,.565-1.7c1.145-.932,2.244-1.921,3.5-3.006" transform="translate(-96.68 -99.222)"/>
  </g>
</svg>
