<svg id="instagram_1" data-name="instagram 1" xmlns="http://www.w3.org/2000/svg" width="20" height="20" viewBox="0 0 20.056 20.056">
  <rect id="instagram_1-2" data-name="instagram 1" width="20.056" height="20.056" fill="none"/>
  <path id="Vector" d="M4.178,0h8.357a4.178,4.178,0,0,1,4.178,4.178v8.357a4.178,4.178,0,0,1-4.178,4.178H4.178A4.178,4.178,0,0,1,0,12.535V4.178A4.178,4.178,0,0,1,4.178,0Z" transform="translate(1.671 1.671)" fill="#2e84d3" stroke="#2e84d3" stroke-linecap="round" stroke-linejoin="round" stroke-width="2"/>
  <path id="Vector-2" data-name="Vector" d="M6.649,2.852A3.343,3.343,0,1,1,5.706.979a3.343,3.343,0,0,1,.943,1.873Z" transform="translate(6.721 6.649)" fill="#fff"/>
  <path id="Vector-3" data-name="Vector" d="M0,0H.009" transform="translate(14.624 5.432)" fill="none" stroke="#fff" stroke-linecap="round" stroke-linejoin="round" stroke-width="2"/>
</svg>
