<svg id="Group_1203" data-name="Group 1203" xmlns="http://www.w3.org/2000/svg" xmlns:xlink="http://www.w3.org/1999/xlink" width="59.021" height="61.594" viewBox="0 0 59.021 61.594">
  <defs>
    <clipPath id="clip-path">
      <rect id="Rectangle_248" data-name="Rectangle 248" width="59.021" height="61.594" fill="#5a5656"/>
    </clipPath>
  </defs>
  <g id="Group_157" data-name="Group 157" clip-path="url(#clip-path)">
    <path id="Path_173" data-name="Path 173" d="M44.313,40.577l3.63,2.145c3.033-2.717,6.152-3.026,8.793-.9A6.176,6.176,0,0,1,50.69,52.4c-3.138-1.183-4.5-4.063-3.7-7.923L43.279,42.3c-3.4,4.755-7.979,7.356-13.8,7.353-5.8,0-10.364-2.59-13.779-7.351l-3.665,2.169c.728,4.022-.591,6.823-3.723,7.96A6.186,6.186,0,0,1,2.19,41.9c2.618-2.193,5.643-1.92,8.888.825L14.7,40.58c-2.424-5.308-2.421-10.579.487-15.655s7.464-7.744,13.286-8.338v-4.3a6.252,6.252,0,0,1-4.393-3.166,5.91,5.91,0,0,1-.632-4.118,6.139,6.139,0,0,1,6.407-5,6.2,6.2,0,0,1,.684,12.3v4.282c5.777.574,10.334,3.226,13.26,8.3s2.946,10.343.515,15.7m-14.8-21.938A14.523,14.523,0,1,0,44.027,33.111,14.509,14.509,0,0,0,29.516,18.639m-19.155,27.9A4.181,4.181,0,0,0,2,46.6a4.236,4.236,0,0,0,4.319,4.18,4.178,4.178,0,0,0,4.042-4.239m42.458-4.11a4.179,4.179,0,0,0,.008,8.357A4.22,4.22,0,0,0,57.011,46.6a4.176,4.176,0,0,0-4.192-4.165M25.34,6.08A4.168,4.168,0,1,0,29.61,2,4.187,4.187,0,0,0,25.34,6.08" transform="translate(0 0)" fill="#5a5656"/>
    <path id="Path_174" data-name="Path 174" d="M246.184,64.779c-.136,1.283-.286,2.858-.475,4.429-.1.806-.593,1.223-1.214,1.108-.606-.112-.9-.637-.768-1.414a25.349,25.349,0,0,0-.534-11.281,26.171,26.171,0,0,0-15.926-17.844c-.231-.1-.469-.175-.695-.281a.995.995,0,1,1,.751-1.842,26.65,26.65,0,0,1,6.891,3.626,28.336,28.336,0,0,1,11.691,19.7c.159,1.154.175,2.328.279,3.8" transform="translate(-188.15 -31.295)" fill="#5a5656"/>
    <path id="Path_175" data-name="Path 175" d="M5.675,64.489a28.791,28.791,0,0,1,18.69-26.735c.738-.274,1.284-.1,1.524.481s-.055,1.107-.844,1.407A26.579,26.579,0,0,0,8.139,68.854a2.071,2.071,0,0,1,.009.863.886.886,0,0,1-1,.672.976.976,0,0,1-.937-.931c-.192-1.655-.358-3.312-.535-4.969" transform="translate(-4.726 -31.336)" fill="#5a5656"/>
    <path id="Path_176" data-name="Path 176" d="M82.1,326.043a27.859,27.859,0,0,1-17.213-6.577c-.623-.513-.734-1.059-.325-1.557s.964-.5,1.592.016a25.771,25.771,0,0,0,12.212,5.683,26.118,26.118,0,0,0,21.119-5.272c.215-.165.416-.347.633-.511a.988.988,0,0,1,1.489.11.953.953,0,0,1-.232,1.428c-1.38,1-2.737,2.059-4.2,2.92a28.854,28.854,0,0,1-15.07,3.759" transform="translate(-53.563 -264.449)" fill="#5a5656"/>
    <path id="Path_177" data-name="Path 177" d="M127.716,163.8a13.185,13.185,0,0,1,9.318,3.759c.682.652.576,1.518-.2,1.816a1.1,1.1,0,0,1-1.225-.386,10.992,10.992,0,0,0-5.437-2.908,11.276,11.276,0,0,0-10.26,2.772c-.078.069-.149.145-.228.214a1,1,0,0,1-1.5.063,1.022,1.022,0,0,1,.112-1.5,13.281,13.281,0,0,1,9.417-3.833" transform="translate(-98.197 -136.417)" fill="#5a5656"/>
    <path id="Path_178" data-name="Path 178" d="M142.3,188.568a9.151,9.151,0,0,1,6.466,2.653.972.972,0,0,1,.1,1.446,1.021,1.021,0,0,1-1.5-.023c-.063-.055-.121-.115-.183-.171a7.233,7.233,0,0,0-8.142-1.126,11.5,11.5,0,0,0-1.838,1.276c-.548.427-1.1.482-1.5.071a1,1,0,0,1,.139-1.536,9.194,9.194,0,0,1,6.456-2.591" transform="translate(-112.767 -157.041)" fill="#5a5656"/>
    <path id="Path_179" data-name="Path 179" d="M157,213.356a5.032,5.032,0,0,1,3.43,1.353A1.01,1.01,0,1,1,159.1,216.2a3.113,3.113,0,0,0-4.309.016,1.01,1.01,0,1,1-1.3-1.521,5.084,5.084,0,0,1,3.51-1.34" transform="translate(-127.45 -177.685)" fill="#5a5656"/>
  </g>
</svg>
