<svg xmlns="http://www.w3.org/2000/svg" width="17.354" height="17.354" viewBox="0 0 17.354 17.354">
  <g id="Search_results_for_Linked_in_-_Flaticon-12" data-name="Search results for Linked in - Flaticon-12" transform="translate(-10 -10)">
    <path id="Path_4362" data-name="Path 4362" d="M27.354,27.354V21c0-3.124-.672-5.51-4.317-5.51a3.767,3.767,0,0,0-3.406,1.866h-.043V15.77H16.139V27.354h3.6V21.605c0-1.518.282-2.972,2.148-2.972,1.844,0,1.866,1.714,1.866,3.059v5.64h3.6ZM10.282,15.77h3.6V27.354h-3.6Zm1.8-5.77a2.093,2.093,0,1,0,2.082,2.082A2.083,2.083,0,0,0,12.082,10Z" fill="#2e84d3"/>
  </g>
</svg>
