<svg xmlns="http://www.w3.org/2000/svg" xmlns:xlink="http://www.w3.org/1999/xlink" width="44.545" height="40.27" viewBox="0 0 44.545 40.27">
  <defs>
    <clipPath id="clip-path">
      <rect id="Rectangle_234" data-name="Rectangle 234" width="44.545" height="40.27" fill="#0e9ce8"/>
    </clipPath>
  </defs>
  <g id="Group_133" data-name="Group 133" clip-path="url(#clip-path)">
    <path id="Path_147" data-name="Path 147" d="M24.45,0l1.156.152c.143.019.288.034.429.062.477.094.739.4.666.774s-.436.574-.912.545a23.808,23.808,0,0,0-3.377-.152c-2.146.177-4.285.457-6.408.793a24.554,24.554,0,0,0-3.679.9A9.792,9.792,0,0,0,6.016,9.265C5.6,10.324,5.33,11.426,4.952,12.5A12.2,12.2,0,0,1,4.287,13.9a.723.723,0,0,0,.251,1.012c.146.108.283.225.425.336a1.841,1.841,0,0,1,.577,2.5A27.794,27.794,0,0,1,1.954,22.94c-.61.7-.592.757.265,1.208.263.138.537.258.8.394a1.9,1.9,0,0,1,.994,2.774c-.136.273-.3.535-.47.834.236.168.47.339.708.5.56.388.613.655.234,1.2-.06.086-.108.179-.152.254.018.037.02.054.03.06,1.521.944,1.73,1.4,1.351,3.029a2.5,2.5,0,0,0,.224,1.686,1.309,1.309,0,0,0,1.564.622c2.355-.64,4.707-1.288,7.05-1.962,1.2-.345,2.4-.709,3.555-1.146a9.985,9.985,0,0,0,1.846-1.008,1.444,1.444,0,0,0,.636-1.121.737.737,0,1,1,1.465.139,2.879,2.879,0,0,1-1.26,2.117,9.168,9.168,0,0,1-2.853,1.387c-.759.244-1.522.478-2.336.732A10.631,10.631,0,0,1,18.2,38.883H34.942c-.393-.783-.814-1.512-1.133-2.276a18.728,18.728,0,0,1-1.222-4.93.677.677,0,0,1,.629-.764.714.714,0,0,1,.828.585c.228,1.066.409,2.141.672,3.2a9.809,9.809,0,0,0,1.753,3.693,3.943,3.943,0,0,1,.451.8c.268.594-.045,1.016-.759,1.022q-2.631.023-5.262.028-6.481.017-12.961.027c-.713,0-.868-.114-1.071-.734a10.479,10.479,0,0,0-1.645-3.231c-.075-.1-.155-.19-.237-.281-.8-.888-.882-.887-2.062-.554-1.588.448-3.2.816-4.783,1.285a2.873,2.873,0,0,1-3.862-2.246,5.3,5.3,0,0,1,.048-1.785c.133-.79.106-.946-.644-1.345-.954-.507-1.072-.782-.787-1.733a.355.355,0,0,0-.117-.311c-1.022-.817-1.061-1-.393-2.092C3.04,26.174,3,26.032,1.8,25.471A3.269,3.269,0,0,1,0,23.911V23.36c.326-.49.641-.987.979-1.47.972-1.394,2.011-2.753,2.909-4.185.629-1,.812-.838-.335-1.77a1.87,1.87,0,0,1-.659-2.446A31.894,31.894,0,0,0,4.456,9.295,11.526,11.526,0,0,1,13.088,1.4,50.783,50.783,0,0,1,19.821.235C20.551.153,21.282.078,22.013,0Z" fill="#0e9ce8"/>
    <path id="Path_148" data-name="Path 148" d="M250.079,0a.891.891,0,0,1,.522.913c-.026.536,0,1.073-.007,1.61a.739.739,0,0,1-.756.831.721.721,0,0,1-.725-.811c0-.563.019-1.127-.007-1.689A.812.812,0,0,1,249.644,0Z" transform="translate(-220.148)" fill="#0e9ce8"/>
    <path id="Path_149" data-name="Path 149" d="M179.1,63.83a2.621,2.621,0,0,0-.941-1.382c-.66-.53-1.356-1.024-2.037-1.532a8.425,8.425,0,0,1-3.611-7.1c.018-4.378,3.281-7.981,8.053-8.748a9.567,9.567,0,0,1,9.376,3.534,8.554,8.554,0,0,1-1.913,12.445,25.841,25.841,0,0,0-2.159,1.7,3.4,3.4,0,0,0-.573.825c-.1.16-.054.274.146.375a1.969,1.969,0,0,1,1.173,1.882c0,.458.015.919-.022,1.375a1.9,1.9,0,0,1-1.162,1.6.486.486,0,0,0-.326.445,2.825,2.825,0,0,1-2.887,2.489,2.858,2.858,0,0,1-3.011-2.462.552.552,0,0,0-.368-.5,1.858,1.858,0,0,1-1.11-1.509,8.934,8.934,0,0,1,0-1.805A2,2,0,0,1,179.1,63.83m3.775-8.883a7.119,7.119,0,0,1,.089-1.09,2.186,2.186,0,0,1,2.5-1.552,2.069,2.069,0,0,1,1.886,2.076,2.134,2.134,0,0,1-2.13,1.921c-.268.015-.538,0-.8,0v5.738c.857-.658,1.753-1.336,2.636-2.028a10.855,10.855,0,0,0,1.266-1.072,7.2,7.2,0,0,0,.023-9.95,7.945,7.945,0,0,0-7.645-2.6,7.648,7.648,0,0,0-6.454,5.762c-.813,3.117.209,5.791,2.992,7.858.737.548,1.452,1.12,2.169,1.69a6.145,6.145,0,0,1,.5.51v-5.9c-.254,0-.483.005-.712,0a2.118,2.118,0,0,1-2.229-2.029,2.094,2.094,0,0,1,2.17-1.992,2.128,2.128,0,0,1,2.279,2.023c.006.206,0,.411,0,.638Zm-.715,10.09c-.724,0-1.449-.007-2.173,0-.5.007-.783.251-.8.7-.017.418-.016.838,0,1.257a.709.709,0,0,0,.794.716q2.173.016,4.346,0a.7.7,0,0,0,.793-.71c.017-.418.018-.838,0-1.257-.019-.481-.284-.7-.831-.709-.71-.007-1.42,0-2.129,0m-.711-1.374h1.431V56.327h-1.431Zm-.757,5.418a1.426,1.426,0,0,0,1.613,1.312,1.288,1.288,0,0,0,1.274-1.312Zm3.7-14.1a7.46,7.46,0,0,0,.9-.047.652.652,0,0,0,.565-.728.713.713,0,0,0-.758-.57.679.679,0,0,0-.708.613c-.019.22,0,.442,0,.732m-4.47-.02a5.327,5.327,0,0,0-.006-.753.7.7,0,0,0-.794-.571.659.659,0,0,0-.013,1.318,7.6,7.6,0,0,0,.813.005" transform="translate(-152.458 -40.195)" fill="#0e9ce8"/>
    <path id="Path_150" data-name="Path 150" d="M58.807,45.541a10.784,10.784,0,0,1,2.105-4.725A8.755,8.755,0,0,1,65.846,37.8a.731.731,0,0,1,.952.457.638.638,0,0,1-.533.814,7.59,7.59,0,0,0-5.771,5.774c-.09.316-.152.64-.261.951a.719.719,0,0,1-.859.436.669.669,0,0,1-.566-.694" transform="translate(-51.971 -33.8)" fill="#0e9ce8"/>
    <path id="Path_151" data-name="Path 151" d="M324.525,36.03a3.708,3.708,0,0,1-.4.582c-.456.438-.931.86-1.408,1.28a.8.8,0,0,1-1.148.068c-.307-.289-.28-.667.09-1.008q.744-.687,1.507-1.357a.7.7,0,0,1,.835-.118,2.736,2.736,0,0,1,.524.553" transform="translate(-284.004 -31.669)" fill="#0e9ce8"/>
    <path id="Path_152" data-name="Path 152" d="M166.273,37.617c-.151.173-.272.437-.48.516a.946.946,0,0,1-.753-.055,21.839,21.839,0,0,1-1.728-1.541.578.578,0,0,1,.061-.885.76.76,0,0,1,.984-.026c.578.493,1.134,1.009,1.684,1.528a1.735,1.735,0,0,1,.232.464" transform="translate(-144.17 -31.732)" fill="#0e9ce8"/>
    <path id="Path_153" data-name="Path 153" d="M353.157,122.609c-.362,0-.725.01-1.087,0a.7.7,0,0,1-.741-.636.692.692,0,0,1,.727-.691q1.13-.029,2.261,0a.691.691,0,0,1,.717.7.7.7,0,0,1-.747.628c-.376.012-.754,0-1.131,0" transform="translate(-310.491 -108.522)" fill="#0e9ce8"/>
    <path id="Path_154" data-name="Path 154" d="M129.705,122.609c-.362,0-.725.009-1.086,0-.461-.014-.749-.273-.752-.655a.681.681,0,0,1,.738-.674q1.108-.026,2.216,0a.679.679,0,0,1,.731.68c-.007.383-.295.629-.759.651h-1.086Z" transform="translate(-113.004 -108.522)" fill="#0e9ce8"/>
    <path id="Path_155" data-name="Path 155" d="M52.563,128.535a.71.71,0,0,1-.75.664.733.733,0,0,1-.723-.659.7.7,0,0,1,.74-.672.678.678,0,0,1,.733.667" transform="translate(-45.152 -114.432)" fill="#0e9ce8"/>
  </g>
</svg>
