<svg id="Group_136" data-name="Group 136" xmlns="http://www.w3.org/2000/svg" xmlns:xlink="http://www.w3.org/1999/xlink" width="41.404" height="41.304" viewBox="0 0 41.404 41.304">
  <defs>
    <clipPath id="clip-path">
      <rect id="Rectangle_235" data-name="Rectangle 235" width="41.404" height="41.304" fill="#0e9ce8"/>
    </clipPath>
  </defs>
  <g id="Group_135" data-name="Group 135" clip-path="url(#clip-path)">
    <path id="Path_156" data-name="Path 156" d="M0,198.034q.884-1.275,1.769-2.549a.853.853,0,0,1,1.4-.266q1.13.744,2.251,1.5a.818.818,0,0,1,.334,1.2c-.281.413-.735.463-1.242.135-.27-.175-.537-.353-.919-.6.188.753.3,1.408.513,2.032Q7.532,209.7,18.126,211.7c.545.1.817.3.882.688.1.616-.375,1.057-1.07.918a22.209,22.209,0,0,1-2.979-.708,18.8,18.8,0,0,1-12.851-14.42c-.009-.039-.016-.079-.026-.118,0-.011-.014-.019-.064-.08l-.41.586c-.519.743-1.121.728-1.607-.042v-.485" transform="translate(0 -173.902)" fill="#0e9ce8"/>
    <path id="Path_157" data-name="Path 157" d="M102.446,83.889a2.946,2.946,0,0,1-.825,1.846c-.319.329-.65.646-.973.971a.958.958,0,0,0-.006,1.566c.325.323.656.64.973.97a2.518,2.518,0,0,1,.39,3.123q-.8,1.38-1.642,2.735A2.68,2.68,0,0,1,97.4,96.329c-.446-.1-.889-.214-1.335-.32a1.093,1.093,0,0,0-1.5.855c-.125.412-.242.826-.375,1.236a2.552,2.552,0,0,1-2.353,1.847c-1.238.042-2.48.042-3.718,0a2.554,2.554,0,0,1-2.357-1.841c-.14-.435-.261-.877-.395-1.314a1.059,1.059,0,0,0-1.361-.809c-.474.1-.942.225-1.414.334a2.68,2.68,0,0,1-3.046-1.28q-.787-1.294-1.557-2.6a2.533,2.533,0,0,1,.424-3.279c.314-.315.637-.621.945-.941a.936.936,0,0,0,0-1.456c-.329-.338-.673-.661-1-1a2.52,2.52,0,0,1-.41-3.152q.815-1.395,1.666-2.769a2.651,2.651,0,0,1,2.86-1.2c.539.117,1.073.261,1.613.369a1.031,1.031,0,0,0,1.259-.737c.148-.461.268-.931.415-1.392a2.612,2.612,0,0,1,2.515-1.859q1.7-.016,3.4,0a2.612,2.612,0,0,1,2.517,1.858c.144.448.264.9.4,1.353A1.039,1.039,0,0,0,95.9,79c.527-.108,1.047-.248,1.573-.362a2.646,2.646,0,0,1,2.839,1.169c.593.947,1.174,1.9,1.717,2.879a7.063,7.063,0,0,1,.415,1.2M97.894,94.78a1.124,1.124,0,0,0,1.12-.564c.519-.866,1.042-1.729,1.556-2.6a.935.935,0,0,0-.174-1.309c-.33-.337-.675-.659-1-1a2.545,2.545,0,0,1,0-3.631c.326-.34.672-.662,1-1a.949.949,0,0,0,.162-1.344Q99.8,82.07,99.035,80.81a1.088,1.088,0,0,0-1.369-.556c-.445.1-.889.216-1.334.319a2.657,2.657,0,0,1-3.293-1.911c-.121-.4-.235-.8-.36-1.2a1.019,1.019,0,0,0-1.091-.826q-1.617-.01-3.234,0a1,1,0,0,0-1.072.8c-.158.5-.285,1.011-.462,1.5a2.594,2.594,0,0,1-2.852,1.689c-.583-.094-1.154-.259-1.732-.389a1.081,1.081,0,0,0-1.305.545q-.776,1.277-1.539,2.561a.951.951,0,0,0,.173,1.342c.321.326.656.64.974.969a2.552,2.552,0,0,1,.01,3.662c-.317.331-.651.645-.973.971a.952.952,0,0,0-.171,1.373q.733,1.232,1.476,2.458a1.124,1.124,0,0,0,1.46.6c.445-.106.888-.219,1.335-.319A2.656,2.656,0,0,1,86.9,96.262c.134.437.262.876.391,1.315a.97.97,0,0,0,.973.764q1.717.025,3.435,0a.969.969,0,0,0,.966-.772c.122-.413.248-.824.373-1.236a2.642,2.642,0,0,1,3.325-1.91c.55.127,1.1.257,1.533.358" transform="translate(-69.191 -66.909)" fill="#0e9ce8"/>
    <path id="Path_158" data-name="Path 158" d="M199.223,222.193c1.026-.305,2.087-.526,3.073-.93a17.214,17.214,0,0,0,11.053-13.654c.127-.706.632-1.055,1.181-.786a.821.821,0,0,1,.431.954,18.354,18.354,0,0,1-2.629,7.19,18.843,18.843,0,0,1-12.591,8.7c-.022,0-.039.029-.1.077.227.156.444.3.656.453a.811.811,0,0,1,.273,1.157.821.821,0,0,1-1.179.176q-1.2-.778-2.4-1.577a.8.8,0,0,1-.241-1.195q.8-1.237,1.635-2.455a.808.808,0,0,1,1.128-.275.817.817,0,0,1,.208,1.172c-.181.293-.376.578-.565.867l.063.123" transform="translate(-175.346 -184.398)" fill="#0e9ce8"/>
    <path id="Path_159" data-name="Path 159" d="M225.508,30.688c.222-.324.38-.571.554-.806a.8.8,0,0,1,1.133-.24.787.787,0,0,1,.2,1.139Q226.6,32,225.77,33.192a.784.784,0,0,1-1.168.209q-1.257-.844-2.492-1.722a.8.8,0,0,1-.235-1.162.808.808,0,0,1,1.148-.161c.258.164.507.342.851.575-.048-.228-.066-.355-.1-.475a17.2,17.2,0,0,0-13.447-12.638c-.288-.066-.582-.106-.874-.157a.81.81,0,0,1-.743-.964.821.821,0,0,1,1.008-.635,18.562,18.562,0,0,1,8,3.151,18.912,18.912,0,0,1,7.715,11.18l.074.295" transform="translate(-186.148 -14.315)" fill="#0e9ce8"/>
    <path id="Path_160" data-name="Path 160" d="M32.517,2.013c-.286-.195-.521-.347-.748-.511A.806.806,0,1,1,32.658.16q1.2.786,2.378,1.6a.8.8,0,0,1,.218,1.2q-.839,1.212-1.711,2.4a.806.806,0,0,1-1.167.229.82.82,0,0,1-.132-1.182c.157-.233.323-.459.485-.688l-.053-.1c-.807.272-1.639.485-2.416.824A17.231,17.231,0,0,0,19.574,17.974c-.071.4-.216.728-.649.824a.8.8,0,0,1-.954-1.03,22.749,22.749,0,0,1,.688-2.942A18.793,18.793,0,0,1,32.207,2.111c.078-.021.154-.049.31-.1" transform="translate(-16.009 -0.001)" fill="#0e9ce8"/>
    <path id="Path_161" data-name="Path 161" d="M140.956,145.468a6.418,6.418,0,0,1-6.221-5.905,6.292,6.292,0,0,1,5.454-6.546,6.006,6.006,0,0,1,5.472,2.151.822.822,0,0,1,.04,1.249c-.376.341-.845.267-1.264-.2a4.365,4.365,0,0,0-4.657-1.471,4.483,4.483,0,0,0-3.33,3.505,4.611,4.611,0,0,0,2.45,5.036,4.5,4.5,0,0,0,5.394-.98c.1-.109.19-.228.294-.333a.8.8,0,0,1,1.222,1.041,5.952,5.952,0,0,1-3.115,2.127c-.565.16-1.158.22-1.738.325" transform="translate(-120.169 -118.599)" fill="#0e9ce8"/>
    <path id="Path_162" data-name="Path 162" d="M166.192,174.6c.346-.374.629-.7.928-1,.461-.471.921-.943,1.4-1.392a.785.785,0,0,1,1.125.02.775.775,0,0,1,.016,1.1q-1.449,1.489-2.937,2.939a.754.754,0,0,1-1.122-.027q-.73-.7-1.426-1.426a.8.8,0,1,1,1.129-1.141c.151.133.291.279.43.425s.25.281.453.509" transform="translate(-146.216 -153.397)" fill="#0e9ce8"/>
    <path id="Path_163" data-name="Path 163" d="M236.67,183.843a.806.806,0,0,1-1.61.033.84.84,0,0,1,.813-.835.816.816,0,0,1,.8.8" transform="translate(-209.664 -163.265)" fill="#0e9ce8"/>
  </g>
</svg>
