<svg xmlns="http://www.w3.org/2000/svg" xmlns:xlink="http://www.w3.org/1999/xlink" width="45.649" height="43.151" viewBox="0 0 45.649 43.151">
  <defs>
    <clipPath id="clip-path">
      <rect id="Rectangle_236" data-name="Rectangle 236" width="45.649" height="43.151" fill="#0e9ce8"/>
    </clipPath>
  </defs>
  <g id="Group_137" data-name="Group 137" clip-path="url(#clip-path)">
    <path id="Path_164" data-name="Path 164" d="M83.276,134.2a13.115,13.115,0,0,1-7.006,0c-.083.129-.172.258-.251.392-.761,1.288-1.517,2.578-2.281,3.864-.437.736-.994.775-1.543.117s-1.109-1.3-1.633-1.98a.687.687,0,0,0-.746-.288c-1.078.181-2.16.333-3.237.515a.8.8,0,0,1-.888-1.251c1.163-1.965,2.317-3.936,3.488-5.9a.585.585,0,0,0-.006-.725A12.279,12.279,0,0,1,77.8,110.175a12.544,12.544,0,0,1,14.434,10.667,11.909,11.909,0,0,1-1.871,8.118.584.584,0,0,0,.007.725c1.111,1.865,2.21,3.738,3.313,5.608.065.111.176.218.186.334.025.3.117.681-.029.883a1.052,1.052,0,0,1-.835.3c-1.085-.122-2.163-.31-3.24-.495a.717.717,0,0,0-.792.291c-.522.676-1.083,1.324-1.633,1.979s-1.1.605-1.541-.134c-.755-1.273-1.5-2.549-2.254-3.824-.081-.137-.169-.269-.268-.426m7.487-11.84a10.991,10.991,0,1,0-10.992,10.774A10.857,10.857,0,0,0,90.763,122.36M74.749,133.666a13.287,13.287,0,0,1-4.324-3.051L67.8,135.083c.857-.131,1.6-.213,2.333-.367a1.139,1.139,0,0,1,1.269.475c.446.581.934,1.131,1.434,1.729l1.915-3.254M89.117,130.6a13.127,13.127,0,0,1-4.332,3.062L86.7,136.92c.523-.628,1.02-1.2,1.484-1.791a1.061,1.061,0,0,1,1.148-.426c.762.146,1.533.243,2.4.376L89.117,130.6" transform="translate(-56.948 -95.891)" fill="#0e9ce8"/>
    <path id="Path_165" data-name="Path 165" d="M137.546,10.75a.781.781,0,0,1-1.2.671q-1.284-.646-2.545-1.335a.652.652,0,0,0-.716-.008c-.809.448-1.637.863-2.453,1.3a.844.844,0,0,1-1-.006.821.821,0,0,1-.25-.911c.18-.878.318-1.764.5-2.641a.668.668,0,0,0-.246-.711c-.675-.6-1.325-1.235-1.988-1.852a.8.8,0,0,1-.317-.931.894.894,0,0,1,.845-.542c.89-.11,1.775-.261,2.668-.346a.7.7,0,0,0,.637-.477c.377-.8.783-1.582,1.167-2.377a.823.823,0,0,1,1.573-.008c.407.837.811,1.676,1.245,2.5a.716.716,0,0,0,.453.325c.917.15,1.839.268,2.761.385.395.05.735.154.872.574a.838.838,0,0,1-.341.929c-.675.628-1.357,1.25-2.008,1.9a.759.759,0,0,0-.183.574c.143.916.33,1.826.5,2.738.018.094.025.19.032.248m-1.859-1.4c-.12-.675-.2-1.275-.338-1.863a.976.976,0,0,1,.331-1.032c.453-.409.892-.832,1.41-1.318-.569-.078-1.044-.182-1.521-.2A1.448,1.448,0,0,1,134.1,3.905a13.9,13.9,0,0,0-.676-1.377c-.318.644-.592,1.17-.838,1.708a1.01,1.01,0,0,1-.888.642c-.616.064-1.227.167-1.927.266.529.495.972.917,1.426,1.329a.946.946,0,0,1,.315.991c-.133.594-.221,1.2-.342,1.879.62-.322,1.16-.583,1.679-.878a1.073,1.073,0,0,1,1.15,0c.531.3,1.077.571,1.682.889" transform="translate(-110.607 0)" fill="#0e9ce8"/>
    <path id="Path_166" data-name="Path 166" d="M267.025,58.96a2.87,2.87,0,0,1-.364.512q-.988.966-2.014,1.9a.616.616,0,0,0-.208.673c.189.892.373,1.788.489,2.691a1.223,1.223,0,0,1-.266.85c-.243.288-.616.21-.944.035-.831-.444-1.669-.873-2.494-1.326a.607.607,0,0,0-.667-.008c-.809.448-1.638.862-2.452,1.3a.876.876,0,0,1-1.007.024.831.831,0,0,1-.273-.948c.171-.847.3-1.7.48-2.547a.772.772,0,0,0-.279-.838c-.645-.564-1.252-1.171-1.881-1.753-.286-.265-.514-.535-.374-.961s.5-.513.881-.564c.824-.109,1.648-.23,2.475-.316a.887.887,0,0,0,.846-.574c.334-.78.745-1.529,1.112-2.3a.818.818,0,0,1,1.567-.016c.384.795.8,1.577,1.162,2.379a.784.784,0,0,0,.726.513c.924.095,1.844.234,2.764.368a.807.807,0,0,1,.722.906m-8.413,4.609c.6-.311,1.134-.567,1.646-.864a1.121,1.121,0,0,1,1.237.006c.51.3,1.045.554,1.644.868-.118-.659-.194-1.229-.327-1.786a1.116,1.116,0,0,1,.4-1.195c.424-.382.8-.814,1.224-1.251-.6-.08-1.18-.171-1.76-.228a1.077,1.077,0,0,1-.971-.683c-.239-.541-.52-1.065-.826-1.683-.294.593-.573,1.111-.81,1.648a1.13,1.13,0,0,1-1.046.726c-.57.045-1.134.148-1.649.219.434.465.839.925,1.273,1.356a.994.994,0,0,1,.311,1c-.129.591-.223,1.189-.347,1.869" transform="translate(-221.376 -47.257)" fill="#0e9ce8"/>
    <path id="Path_167" data-name="Path 167" d="M6.153,52.72a4.12,4.12,0,0,1,.73.732c.424.774.809,1.569,1.175,2.371a.846.846,0,0,0,.8.563,26.37,26.37,0,0,1,2.662.371,1.169,1.169,0,0,1,.7.489c.191.314.034.639-.246.9C11.3,58.757,10.657,59.394,9.98,60a.74.74,0,0,0-.268.8c.183.877.365,1.756.476,2.643a1.211,1.211,0,0,1-.264.844c-.245.288-.615.2-.943.028-.844-.451-1.687-.907-2.545-1.332a.729.729,0,0,0-.563,0c-.845.415-1.677.857-2.5,1.3a.873.873,0,0,1-1.006.021.833.833,0,0,1-.262-.951c.183-.893.353-1.789.489-2.69a.767.767,0,0,0-.2-.573c-.65-.652-1.33-1.275-2-1.9A.833.833,0,0,1,.03,57.3.864.864,0,0,1,.876,56.7c.889-.113,1.777-.238,2.668-.342A.728.728,0,0,0,4.2,55.89c.379-.831.778-1.655,1.216-2.457a3.856,3.856,0,0,1,.737-.712m0,2.73c-.318.637-.6,1.16-.841,1.7a1.08,1.08,0,0,1-.981.667c-.575.055-1.147.148-1.651.215.416.456.825.928,1.259,1.375a.962.962,0,0,1,.306.95c-.133.606-.224,1.221-.346,1.9.563-.293,1.082-.524,1.558-.82a1.216,1.216,0,0,1,1.408.013c.47.286.974.518,1.534.81-.112-.639-.167-1.182-.308-1.7a1.184,1.184,0,0,1,.436-1.316c.412-.367.766-.8,1.153-1.207-.544-.074-1.089-.177-1.638-.215a1.173,1.173,0,0,1-1.109-.783c-.215-.511-.486-1-.778-1.591" transform="translate(0 -45.952)" fill="#0e9ce8"/>
    <path id="Path_168" data-name="Path 168" d="M115.277,154.69a7.731,7.731,0,1,1,7.691,7.618,7.682,7.682,0,0,1-7.691-7.618m7.753,6.075a6.039,6.039,0,1,0-6.181-6.039,6.116,6.116,0,0,0,6.181,6.039" transform="translate(-100.184 -128.257)" fill="#0e9ce8"/>
    <path id="Path_169" data-name="Path 169" d="M148.312,192.2l3.371-3.311a3.24,3.24,0,0,1,.356-.329.732.732,0,0,1,1.019.059.693.693,0,0,1,.065,1,6.15,6.15,0,0,1-.575.588q-1.851,1.818-3.706,3.633c-.587.573-1.075.509-1.49-.19q-.677-1.14-1.339-2.288c-.3-.513-.225-.929.184-1.175s.859-.1,1.171.418.6,1.02.943,1.6" transform="translate(-126.739 -164.202)" fill="#0e9ce8"/>
  </g>
</svg>
