<svg id="Group_1208" data-name="Group 1208" xmlns="http://www.w3.org/2000/svg" xmlns:xlink="http://www.w3.org/1999/xlink" width="60.903" height="52" viewBox="0 0 60.903 52">
  <defs>
    <clipPath id="clip-path">
      <rect id="Rectangle_250" data-name="Rectangle 250" width="60.903" height="52" fill="#5a5656"/>
    </clipPath>
  </defs>
  <g id="Group_165" data-name="Group 165" clip-path="url(#clip-path)">
    <path id="Path_184" data-name="Path 184" d="M0,46.252V5.742a.7.7,0,0,0,.08-.154C.941,1.9,3.4,0,7.3,0H21.754Q37.81,0,53.866,0c4.042,0,7.028,2.813,7.031,6.646q.015,19.361-.013,38.721a6.953,6.953,0,0,1-.386,2.251A6.71,6.71,0,0,1,53.853,52q-23.4,0-46.8,0c-.218,0-.436,0-.654-.013A6.752,6.752,0,0,1,.274,47.3c-.1-.347-.184-.7-.274-1.052M58.885,15.633H2.035c-.008.155-.018.267-.018.379q0,14.669.006,29.339a4.634,4.634,0,0,0,4.91,4.694q23.516.014,47.032-.016a5.5,5.5,0,0,0,2.231-.476,4.484,4.484,0,0,0,2.693-4.429q-.012-14.439,0-28.879Zm0-2.012c0-2.3,0-4.542,0-6.785a4.689,4.689,0,0,0-5.026-4.883q-23.4-.008-46.8,0A4.691,4.691,0,0,0,2.017,6.825c-.006,2.071,0,4.143,0,6.214,0,.185.018.37.029.581Z" transform="translate(0 0)" fill="#5a5656"/>
    <path id="Path_185" data-name="Path 185" d="M189.634,173.607a1,1,0,0,1-.968-1.283c.365-1.744.747-3.486,1.127-5.227q1.419-6.517,2.842-13.033c.012-.056.017-.114.033-.169a1.038,1.038,0,0,1,1.225-.825,1,1,0,0,1,.742,1.256c-.23,1.127-.486,2.248-.731,3.372q-1.59,7.3-3.179,14.607c-.2.9-.509,1.285-1.09,1.3" transform="translate(-161.472 -131.761)" fill="#5a5656"/>
    <path id="Path_186" data-name="Path 186" d="M117.285,187.392c1.779,1.464,3.5,2.876,5.213,4.293a2.943,2.943,0,0,1,.543.525.859.859,0,0,1-.069,1.162.943.943,0,0,1-1.183.226,2.043,2.043,0,0,1-.388-.263q-3.057-2.513-6.11-5.032c-.745-.616-.752-1.2,0-1.823q3.044-2.529,6.107-5.035a1.079,1.079,0,0,1,1.536-.095c.45.435.38,1.059-.206,1.546-1.578,1.312-3.165,2.613-4.748,3.918-.21.173-.419.349-.693.577" transform="translate(-98.208 -155.893)" fill="#5a5656"/>
    <path id="Path_187" data-name="Path 187" d="M255.077,187.321c-1.8-1.485-3.534-2.914-5.265-4.345a2.941,2.941,0,0,1-.464-.441.874.874,0,0,1,.047-1.209.922.922,0,0,1,1.183-.2,2.95,2.95,0,0,1,.527.369q2.921,2.4,5.836,4.81c.927.766.919,1.285-.01,2.05q-2.92,2.4-5.838,4.807c-.106.087-.207.18-.32.256a1.024,1.024,0,0,1-1.391-.106.937.937,0,0,1,.088-1.347c.4-.373.835-.706,1.257-1.054,1.43-1.179,2.86-2.357,4.352-3.585" transform="translate(-213.251 -155.825)" fill="#5a5656"/>
    <path id="Path_188" data-name="Path 188" d="M29.436,37.143a3.172,3.172,0,0,1,6.339.158,3.175,3.175,0,0,1-3.258,3,3.126,3.126,0,0,1-3.081-3.157m4.321.055A1.176,1.176,0,0,0,32.6,36.1a1.126,1.126,0,1,0-.008,2.252A1.178,1.178,0,0,0,33.756,37.2" transform="translate(-25.196 -29.399)" fill="#5a5656"/>
    <path id="Path_189" data-name="Path 189" d="M171.5,37.7a3.169,3.169,0,1,1-3.161-3.071A3.1,3.1,0,0,1,171.5,37.7m-2.018.022a1.149,1.149,0,1,0-1.2,1.078,1.126,1.126,0,0,0,1.2-1.078" transform="translate(-141.38 -29.815)" fill="#5a5656"/>
    <path id="Path_190" data-name="Path 190" d="M97.327,37.553a3.167,3.167,0,1,1,3.193,3.041,3.095,3.095,0,0,1-3.193-3.041m2.016-.021a1.149,1.149,0,1,0,1.168-1.118,1.125,1.125,0,0,0-1.168,1.118" transform="translate(-83.311 -29.671)" fill="#5a5656"/>
  </g>
</svg>
