<svg xmlns="http://www.w3.org/2000/svg" xmlns:xlink="http://www.w3.org/1999/xlink" width="56" height="56" viewBox="0 0 56 56">
  <defs>
    <clipPath id="clip-path">
      <rect id="Rectangle_553" data-name="Rectangle 553" width="56" height="56" fill="#5a5656"/>
    </clipPath>
  </defs>
  <g id="Group_1312" data-name="Group 1312" clip-path="url(#clip-path)">
    <path id="Path_2679" data-name="Path 2679" d="M26.907,0h2.3c.409.072.817.149,1.227.216a13.382,13.382,0,0,1,11.03,12.055c.077,1.135.011,2.28.011,3.46-.032-.006.036.014.106.017,1.108.051,1.3.245,1.3,1.331,0,2.041.009,4.082,0,6.123-.011,2.007.254,1.717-1.588,2.633a.269.269,0,0,0-.094.054c-.128.16-.322.308-.365.49a13.18,13.18,0,0,1-6.352,8.635.72.72,0,0,0-.334.477c-.036.762-.016,1.527-.016,2.311.179.052.332.1.488.141,1.942.485,3.88.982,5.827,1.445a11.494,11.494,0,0,0,3.17.6,14.6,14.6,0,0,0,3.12-.94c.426-.127.533-.352.531-.784-.018-4.228-.013-8.456-.01-12.684,0-.943.593-1.348,1.435-.946a28.76,28.76,0,0,1,2.757,1.436c2.173,1.344,4,2.994,4.557,5.651V45.391c-.647,2.609-2.458,4.265-4.648,5.571a25.24,25.24,0,0,1-3.258,1.64A47.856,47.856,0,0,1,33.5,55.784c-.923.075-1.846.144-2.769.216H25.266c-.2-.029-.392-.068-.59-.087-2.316-.228-4.643-.371-6.945-.7a36.951,36.951,0,0,1-11.265-3.26C3.566,50.521.9,48.812,0,45.391V31.719A7.127,7.127,0,0,1,1.864,28.2a16.7,16.7,0,0,1,5.647-3.652.865.865,0,0,1,1.235.8c.012.163,0,.328,0,.492,0,4.118.009,8.236-.012,12.353,0,.472.1.726.577.859a19.873,19.873,0,0,1,2.013.685,3.327,3.327,0,0,0,2.534.091,11.728,11.728,0,0,1,1.374-.35l6.64-1.664c0-.736-.023-1.446.009-2.153a.7.7,0,0,0-.435-.716,12.7,12.7,0,0,1-6.038-7.773,2.151,2.151,0,0,0-1.462-1.729,1.171,1.171,0,0,1-.837-1.3c.031-2.386.016-4.774.009-7.16a1.207,1.207,0,0,1,.419-1.121c.082-.06.088-.288.061-.424a9.209,9.209,0,0,1,.737-5.96.728.728,0,0,0-.146-.967,14.828,14.828,0,0,1-1.752-2.35,4.063,4.063,0,0,1-.316-3.431c.3-.877.593-1.013,1.509-.952,1.179.079,2.364.12,3.546.109C20.537,1.862,23.636.486,26.907,0M54.24,36.449a18.748,18.748,0,0,1-7.293,4.365,51.989,51.989,0,0,1-14.649,2.8,63.915,63.915,0,0,1-19-1.524,28.23,28.23,0,0,1-8.942-3.542c-.9-.588-1.726-1.3-2.607-1.979v.524c0,2.3.049,4.595-.017,6.89a4.887,4.887,0,0,0,1.6,3.8,15.409,15.409,0,0,0,4.924,3.085,46.925,46.925,0,0,0,15.532,3.258,65.624,65.624,0,0,0,14.39-.64,38.3,38.3,0,0,0,10.357-2.966A13.484,13.484,0,0,0,53,47.434a3.985,3.985,0,0,0,1.226-2.562c.042-2.768.014-5.537.014-8.423M13.718,3.6a2.371,2.371,0,0,0,.373,1.95,20.243,20.243,0,0,0,1.976,2.309c.631.637.709.849.239,1.637a7.637,7.637,0,0,0-.943,5.78c.083.369.229.5.621.482A8.148,8.148,0,0,0,22.7,12.064c.589-.859,1.041-.916,1.795-.2a13.749,13.749,0,0,0,6.293,3.459c2.857.708,5.766.345,8.655.4.029,0,.059-.036.088-.057a11.645,11.645,0,0,0-8.712-13.6,13.244,13.244,0,0,0-7,.394A25.681,25.681,0,0,1,14.11,3.6c-.123-.011-.247,0-.392,0m1.157,13.911c0,1.649.1,3.257-.032,4.846A1.9,1.9,0,0,0,16.3,24.688a15.751,15.751,0,0,0,2.02.757c1.926.289,3.873.433,5.805.681A2.213,2.213,0,0,0,26,25.68c.428-.363.936-.629,1.4-.954a.958.958,0,0,1,1.21,0c.644.445,1.3.882,1.959,1.3a1.027,1.027,0,0,0,.6.15c1.885-.188,3.768-.387,5.649-.609a7.424,7.424,0,0,0,1.752-.347c.745-.282,1.433-.712,2.159-1.048a.624.624,0,0,0,.405-.67c-.017-1.841-.007-3.682-.009-5.522,0-.155-.021-.31-.032-.468ZM17.22,27.1a11.365,11.365,0,0,0,11.4,7.891c4.57-.219,9.609-4.125,10.118-7.852a3.466,3.466,0,0,0-.378,0c-2.442.273-4.882.565-7.327.807a2.119,2.119,0,0,1-1.113-.268,12.528,12.528,0,0,1-1.551-1.016.519.519,0,0,0-.721-.01,18.293,18.293,0,0,1-1.637,1.086,1.6,1.6,0,0,1-.863.233c-1.088-.086-2.171-.234-3.257-.355-1.535-.172-3.071-.34-4.67-.517M6.976,38.038V26.713A11.764,11.764,0,0,0,2.632,30a3.638,3.638,0,0,0,.008,4.772,11.946,11.946,0,0,0,4.336,3.271m42.047,0c1.965-1.033,3.809-2.107,4.851-4.12a3.209,3.209,0,0,0,.044-3c-1.018-2.082-2.905-3.159-4.894-4.224ZM39.29,40.912c-1.939-.482-3.876-.97-5.818-1.438a1.139,1.139,0,0,0-.576.072c-1.279.416-2.569.807-3.825,1.285a2.669,2.669,0,0,1-2.15-.013c-.547-.239-1.163-.327-1.7-.583a6.165,6.165,0,0,0-5.093-.192,15.727,15.727,0,0,1-1.741.453c-.561.144-1.121.292-1.682.438a61.136,61.136,0,0,0,22.585-.022M23.626,35.983c0,.524.023.995-.008,1.461-.022.338.109.474.42.572,1.211.385,2.41.805,3.62,1.193a1.1,1.1,0,0,0,.63.019q1.893-.606,3.767-1.267a.522.522,0,0,0,.305-.35c.034-.522.014-1.048.014-1.628a12.945,12.945,0,0,1-8.75,0m3.135-20.26-2.971-2.042-2.147,2.042Z" transform="translate(-0.001)" fill="#5a5656"/>
    <path id="Path_2680" data-name="Path 2680" d="M252.874,133.768a.871.871,0,1,1,.9-.845.88.88,0,0,1-.9.845" transform="translate(-215.276 -112.773)" fill="#5a5656"/>
  </g>
</svg>
