<svg id="Group_1215" data-name="Group 1215" xmlns="http://www.w3.org/2000/svg" xmlns:xlink="http://www.w3.org/1999/xlink" width="66.628" height="66" viewBox="0 0 66.628 66">
  <defs>
    <clipPath id="clip-path">
      <rect id="Rectangle_253" data-name="Rectangle 253" width="66.628" height="66" fill="#5a5656"/>
    </clipPath>
  </defs>
  <g id="Group_174" data-name="Group 174" clip-path="url(#clip-path)">
    <path id="Path_198" data-name="Path 198" d="M52.049,28.62h-.927v6.557a6.843,6.843,0,0,1,5,2.32,6.56,6.56,0,0,1-1.193,9.683,1.126,1.126,0,0,1-1.563-.077.993.993,0,0,1-.064-1.377,4.508,4.508,0,0,1,.671-.591,4.38,4.38,0,0,0,1.334-4.677,4.444,4.444,0,0,0-3.829-3.043c-.11-.009-.221,0-.394,0v.851q0,10.862,0,21.724c0,3.755-2.29,6.011-6.1,6.011q-11.728,0-23.457,0c-3.655,0-5.975-2.3-5.975-5.928q0-9.8,0-19.592V39.6c-.585,0-1.111,0-1.636,0a1.178,1.178,0,0,1-1.359-1.076c-.164-.69-.3-1.387-.461-2.078-.131-.562-2.343-1.476-2.837-1.172-.608.375-1.2.77-1.813,1.144a1.166,1.166,0,0,1-1.728-.169c-.792-.771-1.569-1.557-2.359-2.33a1.135,1.135,0,0,1-.192-1.6c.089-.134.174-.27.261-.4,1.207-1.869,1.214-1.872.291-3.892a.832.832,0,0,0-.494-.384c-.713-.191-1.441-.324-2.158-.5C.277,26.943.011,26.616,0,25.842c-.009-1.1,0-2.2,0-3.3a1.146,1.146,0,0,1,1.01-1.266c.7-.146,1.408-.277,2.089-.487a1.428,1.428,0,0,0,.652-.559c.166-.238.179-.582.348-.816a1.581,1.581,0,0,0-.2-2.188,10.321,10.321,0,0,1-.757-1.15,1.1,1.1,0,0,1,.141-1.5Q4.545,13.3,5.828,12.042a1.09,1.09,0,0,1,1.453-.157c.648.4,1.271.841,1.941,1.2a1.513,1.513,0,0,0,.856.044c.219-.031.412-.232.632-.266,1.16-.182,1.554-.942,1.642-1.994A5.857,5.857,0,0,1,12.637,9.6a1.039,1.039,0,0,1,1.225-.772,1.025,1.025,0,0,1,.9,1.19c-.219,1.215-.465,2.43-.8,3.618-.084.3-.514.558-.845.712-.937.435-1.916.783-2.857,1.211a1.326,1.326,0,0,1-1.374-.044c-.563-.361-1.114-.743-1.7-1.056a.8.8,0,0,0-.68.063,12.335,12.335,0,0,0-1.128.917c.516.8.924,1.459,1.361,2.1a1.359,1.359,0,0,1,.062,1.482c-.42.887-.8,1.795-1.142,2.714a1.382,1.382,0,0,1-1.091,1.015c-.768.149-1.527.343-2.312.522v1.868c.72.161,1.45.344,2.189.483A1.5,1.5,0,0,1,5.68,26.745a17.574,17.574,0,0,0,1.055,2.526,1.481,1.481,0,0,1-.078,1.723A12.5,12.5,0,0,0,5.7,32.5a.737.737,0,0,0,.075.669c.954,1.085.965,1.076,2.186.3a5,5,0,0,0,.524-.335,1.689,1.689,0,0,1,2.157-.1,9.675,9.675,0,0,0,2.232.91,1.554,1.554,0,0,1,1.262,1.358c.115.694.293,1.377.444,2.072H15.5V30.9a16.634,16.634,0,0,1-2.276-.542,6.344,6.344,0,0,1-4.278-5.375,6.338,6.338,0,0,1,2.516-6,2.436,2.436,0,0,1,.458-.307,1.053,1.053,0,0,1,1.422.289,1,1,0,0,1-.114,1.428c-.176.179-.4.316-.588.481a4.359,4.359,0,0,0-1.267,4.811,4.407,4.407,0,0,0,4.172,2.883v-.792q0-10.931,0-21.861C15.55,2.3,17.871,0,21.531,0q11.8,0,23.6,0c3.616,0,5.953,2.306,5.954,5.879q0,9.8,0,19.592V26.4c.569,0,1.112-.006,1.656,0a1.162,1.162,0,0,1,1.327,1.028,1.315,1.315,0,0,1,.061.267,2.852,2.852,0,0,0,2.394,3.05c.353.074.606.181.937-.055.581-.413,1.2-.768,1.8-1.156a1.168,1.168,0,0,1,1.622.178q1.2,1.2,2.4,2.382A1.141,1.141,0,0,1,63.46,33.7c-.367.556-.724,1.118-1.085,1.677a3.393,3.393,0,0,0-.219.35,4.5,4.5,0,0,0,1.269,2.646q1.113.261,2.229.507a1.126,1.126,0,0,1,.974,1.225c0,1.123,0,2.246,0,3.369A1.15,1.15,0,0,1,65.6,44.729c-.723.15-1.442.323-2.161.492-.564.133-1.483,2.326-1.176,2.81q.591.93,1.2,1.848a1.145,1.145,0,0,1-.177,1.608q-1.2,1.191-2.4,2.39a1.163,1.163,0,0,1-1.62.188c-.135-.089-.272-.174-.408-.261-1.894-1.208-1.9-1.214-3.93-.281a.828.828,0,0,0-.379.5c-.187.707-.315,1.43-.488,2.142-.183.753-.7,1.139-1.319,1.019-.659-.128-.993-.686-.835-1.486.2-1.033.455-2.056.666-3.087a1.282,1.282,0,0,1,.949-.978c.947-.354,1.886-.736,2.8-1.162a1.384,1.384,0,0,1,1.495.076c.457.311.967.554,1.392.9.476.387.787.278,1.144-.145a7.317,7.317,0,0,1,.877-.758c-.466-.721-.852-1.363-1.284-1.974a1.449,1.449,0,0,1-.078-1.661,20.907,20.907,0,0,0,1.082-2.59,1.455,1.455,0,0,1,1.2-1.083c.744-.139,1.479-.321,2.23-.486V40.858c-.757-.169-1.512-.357-2.276-.5A1.419,1.419,0,0,1,60.968,39.3a27.071,27.071,0,0,0-1.113-2.652,1.364,1.364,0,0,1,.055-1.54c.255-.354.491-.723.709-1.1.177-.306.528-.758.427-.929A5.321,5.321,0,0,0,59.9,31.908c-.062-.054-.3.036-.421.11-.554.332-1.107.667-1.639,1.03a1.42,1.42,0,0,1-1.557.063A28.26,28.26,0,0,0,53.612,32a1.4,1.4,0,0,1-1.062-1.126c-.136-.742-.324-1.474-.5-2.258m-34.28,4.308q0,13.61,0,27.22A3.348,3.348,0,0,0,21.481,63.8q11.831,0,23.662,0a3.351,3.351,0,0,0,3.718-3.647q0-27.151,0-54.3A3.347,3.347,0,0,0,45.148,2.2q-11.831,0-23.662,0a3.357,3.357,0,0,0-3.718,3.714q0,13.507,0,27.013" transform="translate(-0.001 0)" fill="#5a5656"/>
    <path id="Path_199" data-name="Path 199" d="M299.51,49.1a1.107,1.107,0,1,1,2.213-.008,1.222,1.222,0,0,1-1.138,1.159A1.046,1.046,0,0,1,299.51,49.1" transform="translate(-243.985 -39.139)" fill="#5a5656"/>
    <path id="Path_200" data-name="Path 200" d="M299.511,73.1A1.109,1.109,0,1,1,301.724,73a1.218,1.218,0,0,1-1.158,1.208,1.039,1.039,0,0,1-1.056-1.1" transform="translate(-243.986 -58.695)" fill="#5a5656"/>
    <path id="Path_201" data-name="Path 201" d="M300.621,95.858a1.111,1.111,0,0,1,1.1,1.083,1.22,1.22,0,0,1-1.143,1.222,1.039,1.039,0,0,1-1.07-1.088,1.121,1.121,0,0,1,1.109-1.217" transform="translate(-243.987 -78.252)" fill="#5a5656"/>
    <path id="Path_202" data-name="Path 202" d="M47.933,251.568a1.108,1.108,0,1,1,2.214-.1,1.183,1.183,0,0,1-1.16,1.206,1.013,1.013,0,0,1-1.054-1.1" transform="translate(-39.047 -204.399)" fill="#5a5656"/>
    <path id="Path_203" data-name="Path 203" d="M49.018,276.627a1.012,1.012,0,0,1-1.085-1.073,1.126,1.126,0,0,1,1.131-1.212,1.114,1.114,0,0,1,1.084,1.118,1.186,1.186,0,0,1-1.13,1.167" transform="translate(-39.047 -223.955)" fill="#5a5656"/>
    <path id="Path_204" data-name="Path 204" d="M47.93,299.438a1.107,1.107,0,1,1,2.214-.018,1.179,1.179,0,0,1-1.2,1.162,1.015,1.015,0,0,1-1.012-1.144" transform="translate(-39.044 -243.511)" fill="#5a5656"/>
    <path id="Path_205" data-name="Path 205" d="M122.364,155.245c1.127,1.1,2.195,2.148,3.262,3.194a5.249,5.249,0,0,1,.431.446,1.069,1.069,0,0,1-.036,1.493,1.04,1.04,0,0,1-1.5.054q-2.311-2.225-4.557-4.516a.988.988,0,0,1,.061-1.484q2.186-2.2,4.411-4.371a1.08,1.08,0,0,1,1.558-.037,1.064,1.064,0,0,1-.007,1.593c-.994,1.022-2.021,2.013-3.033,3.017-.177.176-.347.358-.592.612" transform="translate(-97.475 -122.213)" fill="#5a5656"/>
    <path id="Path_206" data-name="Path 206" d="M207.639,155.173c-1.125-1.109-2.187-2.153-3.247-3.2a4.6,4.6,0,0,1-.521-.55,1.089,1.089,0,0,1,1.547-1.507c.428.345.8.757,1.2,1.144,1.064,1.05,2.131,2.1,3.186,3.158a1.138,1.138,0,0,1,0,1.9q-2.05,2.049-4.119,4.08a1.143,1.143,0,0,1-1.712.148,1.108,1.108,0,0,1,.133-1.692c1.154-1.148,2.322-2.282,3.54-3.476" transform="translate(-165.874 -122.164)" fill="#5a5656"/>
    <path id="Path_207" data-name="Path 207" d="M172.313,150.928c-.27,1.076-.553,2.206-.838,3.335q-.681,2.692-1.367,5.382c-.212.822-.768,1.218-1.419,1.033s-.923-.75-.726-1.539q1.058-4.222,2.128-8.441a1.105,1.105,0,0,1,1.293-.952,1.122,1.122,0,0,1,.929,1.183" transform="translate(-136.774 -122.222)" fill="#5a5656"/>
    <path id="Path_208" data-name="Path 208" d="M160.235,23.948c1.041,0,2.081-.007,3.122,0,.8.008,1.306.453,1.291,1.119a1.122,1.122,0,0,1-1.267,1.074q-3.157.014-6.313,0c-.8,0-1.305-.452-1.29-1.12.014-.643.5-1.065,1.267-1.074,1.064-.011,2.128,0,3.191,0" transform="translate(-126.898 -19.547)" fill="#5a5656"/>
  </g>
</svg>
