<svg id="Layer_1" data-name="Layer 1" xmlns="http://www.w3.org/2000/svg" width="79.401" height="72.783" viewBox="0 0 79.401 72.783">
  <g id="Group_1327" data-name="Group 1327">
    <path id="Path_16" data-name="Path 16" d="M79.395,13.766a8.837,8.837,0,0,1-3,4.832c-1.08,1-2.117,2.051-3.115,3.133a1.953,1.953,0,0,0-.493,1.2q-.041,13.1-.014,26.2a6.815,6.815,0,0,1-2.626,5.755,7.011,7.011,0,0,1-4.5,1.373q-19.767-.006-39.536,0c-2.171,0-4.341.017-6.512-.012a1.616,1.616,0,0,0-1.278.542Q10.8,64.346,3.254,71.868a3.958,3.958,0,0,1-.9.73A1.61,1.61,0,0,1,.036,71.437,4.094,4.094,0,0,1,0,70.664Q0,38.839,0,7.017A6.41,6.41,0,0,1,3.8.715,7.9,7.9,0,0,1,7.016.035Q36.4-.023,65.778,0a6.684,6.684,0,0,1,6.969,6.341c0,.072.043.144.031.107a20.051,20.051,0,0,1,3.014.858,6,6,0,0,1,3.48,4.549,2.482,2.482,0,0,0,.124.361v1.55ZM47.933,29.78H18.972a7.553,7.553,0,0,1-1.006-.041A1.557,1.557,0,0,1,16.577,28.3a1.533,1.533,0,0,1,1.148-1.7,4.448,4.448,0,0,1,1.148-.111q15.429-.009,30.856.01a1.9,1.9,0,0,0,1.48-.616q9-8.982,18.022-17.935a.9.9,0,0,0,.229-.528c.21-2.509-1.2-4.077-3.69-4.079Q36.386,3.337,7,3.343a3.344,3.344,0,0,0-3.71,3.688q-.009,29.693,0,59.385a4.671,4.671,0,0,0,.06.542l.2.107a6.3,6.3,0,0,1,.515-.674c4.088-4.1,8.2-8.173,12.259-12.3a3.6,3.6,0,0,1,2.8-1.148q23.257.044,46.516.017c2.517,0,3.818-1.313,3.818-3.826V26.42c0-.241-.025-.482-.039-.724a1.846,1.846,0,0,0-.7.554c-3.651,3.657-7.3,7.324-10.981,10.946a3.744,3.744,0,0,1-1.721.911c-2.389.542-4.8.981-7.206,1.47-1.845.375-2.746-.509-2.375-2.335.5-2.447.979-4.9,1.49-7.46Zm2.15,6.172c1.608-.324,3.1-.594,4.576-.94a2.7,2.7,0,0,0,1.251-.645q7.009-6.951,13.976-13.951c.175-.175.336-.363.423-.456l-4.244-4.25a.9.9,0,0,0-.122.1q-7.228,7.228-14.45,14.462a1.532,1.532,0,0,0-.418.711c-.342,1.61-.649,3.228-.992,4.97Zm18.494-22.79c1.457,1.455,2.857,2.853,4.283,4.279.759-.759,1.585-1.538,2.352-2.368a3.012,3.012,0,0,0-4.281-4.238C70.121,11.591,69.354,12.391,68.577,13.162Z" transform="translate(0.004 0)" fill="#fff"/>
    <path id="Path_17" data-name="Path 17" d="M105.143,88.559H87.7a6.915,6.915,0,0,1-1-.047,1.565,1.565,0,0,1-1.352-1.47,1.545,1.545,0,0,1,1.117-1.655,3.545,3.545,0,0,1,.992-.118q17.716-.009,35.432,0c1.429,0,2.23.732,2.067,1.872a1.542,1.542,0,0,1-1.356,1.379,7.229,7.229,0,0,1-1.006.043Q113.865,88.562,105.143,88.559Z" transform="translate(-68.762 -68.704)" fill="#fff"/>
    <path id="Path_18" data-name="Path 18" d="M96.849,190.756H87.633a6.408,6.408,0,0,1-.926-.045,1.563,1.563,0,0,1-1.358-1.462,1.54,1.54,0,0,1,1.1-1.661,3.857,3.857,0,0,1,1.068-.122q9.369-.012,18.741,0a3.786,3.786,0,0,1,1.068.124,1.592,1.592,0,0,1,1.117,1.661,1.621,1.621,0,0,1-1.377,1.461,6.407,6.407,0,0,1-.926.045Q101.5,190.762,96.849,190.756Z" transform="translate(-68.767 -151.051)" fill="#fff"/>
  </g>
</svg>
