<svg xmlns="http://www.w3.org/2000/svg" width="28.916" height="28.949" viewBox="0 0 28.916 28.949">
  <g id="phone-call" transform="translate(0 0.033)">
    <rect id="phone-call-2" data-name="phone-call" width="28.916" height="28.916" transform="translate(0 0)" fill="none"/>
    <path id="Vector" d="M15.345,4.744A5.93,5.93,0,0,1,20.03,9.429M15.345,0a10.674,10.674,0,0,1,9.429,9.417m-1.186,9.464V22.44A2.372,2.372,0,0,1,21,24.812a23.471,23.471,0,0,1-10.235-3.641,23.128,23.128,0,0,1-7.116-7.116A23.471,23.471,0,0,1,.01,3.772,2.372,2.372,0,0,1,2.37,1.186H5.928A2.372,2.372,0,0,1,8.3,3.226a15.228,15.228,0,0,0,.83,3.333,2.372,2.372,0,0,1-.534,2.5L7.09,10.567a18.976,18.976,0,0,0,7.116,7.116l1.506-1.506a2.372,2.372,0,0,1,2.5-.534,15.228,15.228,0,0,0,3.333.83,2.372,2.372,0,0,1,2.04,2.408Z" transform="translate(2.817 1.071)" fill="none" stroke="#5a5656" stroke-linecap="round" stroke-linejoin="round" stroke-width="2"/>
  </g>
</svg>
