<svg xmlns="http://www.w3.org/2000/svg" xmlns:xlink="http://www.w3.org/1999/xlink" width="68.678" height="68.967" viewBox="0 0 68.678 68.967">
  <defs>
    <clipPath id="clip-path">
      <rect id="Rectangle_254" data-name="Rectangle 254" width="68.678" height="68.967" fill="#5a5656"/>
    </clipPath>
  </defs>
  <g id="Group_176" data-name="Group 176" clip-path="url(#clip-path)">
    <path id="Path_209" data-name="Path 209" d="M22.643,42.315c-.881,0-1.762,0-2.643,0-.983,0-1.291-.246-1.492-1.183-.3-1.381-.593-2.762-.866-4.148-.084-.425-.225-.714-.707-.79a2.525,2.525,0,0,1-.977-.342,1.643,1.643,0,0,0-2.107.221c-1.063.781-2.192,1.473-3.3,2.195A1.245,1.245,0,0,1,8.8,38.141C7.419,36.9,6.05,35.648,4.677,34.4A.953.953,0,0,1,4.6,32.985c.889-1.272,1.758-2.559,2.662-3.82a.724.724,0,0,0,.063-.935,3.9,3.9,0,0,1-.54-1.122,1.472,1.472,0,0,0-1.506-1.2c-1.448-.156-2.886-.413-4.326-.64a1.051,1.051,0,0,1-.931-1.125q-.037-2.782,0-5.565c.008-.725.472-1.042,1.152-1.157,1.53-.259,3.058-.528,4.578-.841a1.222,1.222,0,0,0,.652-.542c.2-.307.228-.722.437-1.015A1.657,1.657,0,0,0,6.677,12.8c-.77-.985-1.469-2.025-2.2-3.037a1.082,1.082,0,0,1,.126-1.7C5.962,6.764,7.323,5.472,8.707,4.2c.477-.437.962-.116,1.392.139q1.972,1.171,3.916,2.387a.807.807,0,0,0,.948.07,2.617,2.617,0,0,1,.9-.362c1.2-.177,1.644-.913,1.788-2.051.142-1.121.447-2.223.7-3.329A1.146,1.146,0,0,1,19.665.007q2.748-.012,5.5,0c.888,0,1.178.254,1.368,1.147.289,1.359.587,2.716.851,4.079.091.471.235.809.776.892a2.453,2.453,0,0,1,.977.344,1.566,1.566,0,0,0,2-.187c1.1-.77,2.266-1.443,3.394-2.173a1.236,1.236,0,0,1,1.6.054q2.12,1.854,4.187,3.769c.509.471.5.982.049,1.623-.855,1.212-1.713,2.422-2.6,3.614a.687.687,0,0,0-.063.868,9.235,9.235,0,0,1,.717,1.577.957.957,0,0,0,.9.7c1.532.243,3.059.522,4.585.8a1.179,1.179,0,0,1,1.127,1.331q.017,2.609,0,5.217a1.1,1.1,0,0,1-1.069,1.284c-1.5.283-3.005.561-4.512.814-.447.075-.766.189-.877.7a3.3,3.3,0,0,1-.481,1.147,1.261,1.261,0,0,0,.17,1.711c.807,1.015,1.534,2.093,2.286,3.15.555.78.52,1.172-.15,1.811q-1.863,1.776-3.732,3.545c-.724.685-.956.7-1.8.158-1.291-.82-2.578-1.646-3.893-2.425a1.277,1.277,0,0,0-.875-.047c-.467.12-.9.41-1.365.5-.819.153-1.094.644-1.222,1.409-.212,1.278-.52,2.54-.8,3.805-.184.831-.489,1.071-1.352,1.079-.9.009-1.809,0-2.713,0M42.758,19.1c-1.71-.288-3.352-.567-5-.838a1.317,1.317,0,0,1-1.1-.91,25.42,25.42,0,0,0-1.314-2.827,1.523,1.523,0,0,1,.115-1.851c.9-1.2,1.751-2.446,2.653-3.718L35.195,6.264c-1.45.916-2.87,1.788-4.26,2.706a1.308,1.308,0,0,1-1.362.1c-.96-.4-1.934-.77-2.92-1.1a1.449,1.449,0,0,1-1.1-1.194c-.255-1.365-.558-2.722-.807-4.088-.078-.426-.25-.571-.685-.558q-1.564.046-3.129,0c-.421-.013-.56.163-.639.533-.3,1.4-.645,2.8-.915,4.207a1.276,1.276,0,0,1-.941,1.062c-1.086.391-2.168.8-3.224,1.27a1.447,1.447,0,0,1-1.553-.1c-1.213-.811-2.452-1.584-3.7-2.334-.2-.119-.64-.157-.762-.032-.819.846-1.581,1.745-2.362,2.628-.047.065.093.275.233.486C7.883,11.083,8.725,12.3,9.5,13.565a1.279,1.279,0,0,1,.08,1.01c-.385.934-.953,1.8-1.285,2.748a1.841,1.841,0,0,1-1.629,1.362c-1.526.242-3.04.562-4.577.852v3.726a3.421,3.421,0,0,0,.411.123q2.262.375,4.526.739a1.226,1.226,0,0,1,1.091.722q.69,1.625,1.456,3.217A1.364,1.364,0,0,1,9.53,29.51c-.433.658-.884,1.3-1.33,1.954s-.911,1.32-1.4,2.028c.9.755,1.734,1.451,2.561,2.155a.663.663,0,0,0,.918.024c1.257-.828,2.519-1.655,3.826-2.4a1.776,1.776,0,0,1,1.276-.092c1.033.327,2.017.805,3.041,1.163a1.421,1.421,0,0,1,1.057,1.15c.261,1.364.556,2.722.808,4.088.077.415.238.58.681.566,1.042-.032,2.087-.025,3.13,0a.545.545,0,0,0,.655-.515c.288-1.382.647-2.75.923-4.134a1.185,1.185,0,0,1,.908-1,17.513,17.513,0,0,0,2.91-1.108,1.907,1.907,0,0,1,2.237.123c1.2.809,2.455,1.546,3.693,2.318l2.9-2.7-2.539-3.482c-.671-.919-.632-1.135-.12-2.129a10.54,10.54,0,0,0,.968-2.5,1.325,1.325,0,0,1,1.2-1.2c1.459-.254,2.911-.55,4.368-.817.318-.058.572-.1.564-.532-.022-1.088-.007-2.176-.007-3.354" transform="translate(0 -0.001)" fill="#5a5656"/>
    <path id="Path_210" data-name="Path 210" d="M191.4,187.653a8.408,8.408,0,0,1,.917.448c.873.569,1.746,1.141,2.588,1.754a1.183,1.183,0,0,0,1.127.106,1.911,1.911,0,0,0,1.573-2,19.458,19.458,0,0,1,.419-2.252,1.186,1.186,0,0,1,1.351-1.107q2.051-.018,4.1,0c.848.009,1.159.283,1.322,1.121.2,1.045.41,2.09.578,3.142.067.423.3.54.654.745a1.928,1.928,0,0,0,2.455-.381c.553-.453,1.2-.786,1.767-1.229a1.1,1.1,0,0,1,1.611.12c1.008.957,2,1.936,2.979,2.918a1.173,1.173,0,0,1,.172,1.682c-.583.92-1.2,1.817-1.748,2.758a1.573,1.573,0,0,0-.068.928c.165,1.178.931,1.6,2.052,1.664a16.672,16.672,0,0,1,2.184.4c.829.163,1.123.489,1.132,1.319.015,1.368.008,2.735,0,4.1a1.144,1.144,0,0,1-1.043,1.252c-1.07.195-2.131.441-3.2.624-.368.063-.5.245-.678.554a2.285,2.285,0,0,0,.391,2.964,17.589,17.589,0,0,1,1.223,1.771,1.137,1.137,0,0,1-.123,1.575c-.978,1.022-1.955,2.044-2.952,3.046a1.148,1.148,0,0,1-1.627.145c-.892-.624-1.815-1.2-2.7-1.843a1.1,1.1,0,0,0-1.06-.109,1.934,1.934,0,0,0-1.6,2.054,17.347,17.347,0,0,1-.4,2.184c-.167.849-.463,1.119-1.311,1.129q-1.982.023-3.964,0c-.844-.009-1.119-.236-1.289-1.056-.225-1.088-.443-2.178-.623-3.274-.062-.377-.272-.475-.567-.662a1.891,1.891,0,0,0-2.517.36,21.123,21.123,0,0,1-1.815,1.283,1.265,1.265,0,0,1-1.756-.074q-1.658-1.535-3.265-3.125a1.046,1.046,0,0,1-.061-1.4c.573-.925,1.146-1.852,1.767-2.745a1.143,1.143,0,0,0,.133-1.08,1.858,1.858,0,0,0-1.961-1.529c-.85-.043-1.689-.268-2.536-.392a.965.965,0,0,1-.883-1q-.063-2.362-.011-4.727a.981.981,0,0,1,.926-.968c1.051-.172,2.1-.378,3.152-.52a1.1,1.1,0,0,0,.89-.7,2.127,2.127,0,0,0-.4-2.718,18.949,18.949,0,0,1-1.289-1.894,1.174,1.174,0,0,1,.171-1.627c.99-1.041,1.952-2.109,2.949-3.143a5.089,5.089,0,0,1,.854-.583m21.519,24c-.654-.949-1.29-1.887-1.943-2.813a1.464,1.464,0,0,1-.084-1.683,15.232,15.232,0,0,0,.887-2.1A1.454,1.454,0,0,1,212.856,204c1.01-.253,2.009-.552,3.022-.794.384-.092.544-.25.519-.656a14.739,14.739,0,0,1,0-1.669c.022-.407-.121-.567-.529-.628a28.857,28.857,0,0,1-3-.555,1.683,1.683,0,0,1-.964-.748c-.432-.813-.726-1.7-1.094-2.546a1.376,1.376,0,0,1,.114-1.441q.846-1.231,1.633-2.5c.1-.158.164-.479.077-.584-.528-.633-1.1-1.224-1.628-1.789-1.137.788-2.129,1.47-3.114,2.163a1.075,1.075,0,0,1-1.279.073,9.507,9.507,0,0,0-1.984-.813,1.428,1.428,0,0,1-1.132-1.237c-.183-.978-.382-1.955-.617-2.922-.044-.182-.278-.442-.438-.452-.759-.048-1.523-.021-2.336-.021-.242,1.169-.477,2.3-.71,3.427a1.322,1.322,0,0,1-.89,1.128,24.26,24.26,0,0,0-2.367.978,1.46,1.46,0,0,1-1.622-.12c-.922-.658-1.872-1.278-2.791-1.9l-2.019,2.047c.606.915,1.21,1.9,1.895,2.831a1.371,1.371,0,0,1,.168,1.592,15.3,15.3,0,0,0-.869,2.189,1.527,1.527,0,0,1-1.3,1.175c-.957.174-1.911.368-2.855.6a.676.676,0,0,0-.432.454c-.046.758-.02,1.52-.02,2.306,1.245.226,2.425.452,3.611.649a.912.912,0,0,1,.8.733,14.563,14.563,0,0,0,.9,2.325,1.832,1.832,0,0,1-.118,2.13c-.606.839-1.149,1.722-1.7,2.559l1.938,1.949c1-.69,2.013-1.378,3.015-2.083a1.23,1.23,0,0,1,1.418-.088,12.541,12.541,0,0,0,1.993.8,1.479,1.479,0,0,1,1.145,1.237c.21,1.131.469,2.253.706,3.371h2.695c.205-1.183.414-2.321.6-3.464a1.366,1.366,0,0,1,1.04-1.228,18.644,18.644,0,0,0,2.236-.937,1.4,1.4,0,0,1,1.559.109c.935.68,1.9,1.316,2.848,1.965l1.945-1.954" transform="translate(-149.895 -150.279)" fill="#5a5656"/>
    <path id="Path_211" data-name="Path 211" d="M22.035,227.659c-.69.7-1.3,1.323-1.926,1.938s-1.211.67-1.7.176c-.47-.478-.426-1.045.154-1.647q1.736-1.8,3.491-3.589a1.062,1.062,0,0,1,1.744-.048q1.861,1.777,3.685,3.592a1.067,1.067,0,1,1-1.5,1.5c-.493-.477-.959-.981-1.5-1.425a14.2,14.2,0,0,0,1.435,4.922c3.6,7.231,9.418,11.165,17.5,11.694.891.058,1.33.426,1.322,1.173-.008.72-.506,1.111-1.383,1.083A22.353,22.353,0,0,1,22.2,228.345c-.03-.195-.092-.385-.165-.687" transform="translate(-14.73 -182.409)" fill="#5a5656"/>
    <path id="Path_212" data-name="Path 212" d="M261.98,63.266c.683-.707,1.252-1.315,1.842-1.9s1.161-.616,1.639-.13.418.973-.172,1.568q-1.764,1.777-3.542,3.54c-.684.675-1.161.67-1.84,0q-1.7-1.69-3.394-3.393c-.646-.649-.717-1.182-.24-1.69.492-.525,1.048-.475,1.748.173.571.528,1.132,1.066,1.8,1.692a16.315,16.315,0,0,0-.621-5.472c-2.29-7.823-7.369-12.771-15.314-14.724-.845-.208-1.211-.691-1.045-1.422.145-.638.67-.89,1.477-.71a22.367,22.367,0,0,1,17.429,19.113c.135,1.05.152,2.115.237,3.361" transform="translate(-197.666 -33.164)" fill="#5a5656"/>
    <path id="Path_213" data-name="Path 213" d="M78.193,63.934c4.074.356,7.315,2.159,8.927,6.135,1.958,4.83-.77,10.168-5.936,11.946a9.745,9.745,0,0,1-13.162-8.144,7.894,7.894,0,0,1,1.717-5.859,10.233,10.233,0,0,1,8.455-4.079m-.372,16.4A8.088,8.088,0,0,0,83.52,78a6.671,6.671,0,0,0,1.189-8.046,7.891,7.891,0,0,0-8.874-3.7,7.261,7.261,0,0,0-5.659,6.2c-.318,4.5,2.954,7.866,7.646,7.874" transform="translate(-55.331 -52.05)" fill="#5a5656"/>
    <path id="Path_214" data-name="Path 214" d="M241.11,250.351a8.2,8.2,0,0,1-.085-16.395,8.283,8.283,0,0,1,8.225,8.308,8,8,0,0,1-8.14,8.086m6.093-8.4c.2-2.6-2.432-5.8-5.89-5.825a6,6,0,0,0-6.13,6.024,5.9,5.9,0,0,0,5.8,6.1,6.215,6.215,0,0,0,6.223-6.3" transform="translate(-189.604 -190.469)" fill="#5a5656"/>
  </g>
</svg>
