<svg xmlns="http://www.w3.org/2000/svg" width="174.28" height="155" viewBox="0 0 174.28 155">
  <g id="Search_results_for_Navigate_website_-_Flaticon-12" data-name="Search results for Navigate website - Flaticon-12" transform="translate(0 -28.32)">
    <path id="Path_2848" data-name="Path 2848" d="M163.553,219.958V129.676H107.1v9.17h47.283v81.111H107.03v9.17h58.079v4.8A7.08,7.08,0,0,1,158.037,241H16.243a7.08,7.08,0,0,1-7.072-7.072v-4.8H67.25v-9.17H19.9V138.846H64.771v-9.17H10.726v90.282H0v13.975a16.261,16.261,0,0,0,16.243,16.243H158.037a16.261,16.261,0,0,0,16.243-16.243V219.958Z" transform="translate(0 -66.855)" fill="#4d148c"/>
    <path id="Path_2849" data-name="Path 2849" d="M133.716,45.746v94.834h9.17V45.746l9.775,9.661,6.447-6.522L138.3,28.32,117.494,48.885l6.447,6.522ZM155.4,140.579h9.17v-36.2h16.461l-9.075,9.183,6.522,6.446,20.565-20.807L178.475,78.4l-6.522,6.446L182.2,95.214H155.4Zm-34.191,0V95.214H94.4L104.65,84.846,98.128,78.4,77.563,99.206l20.565,20.807,6.522-6.446-9.075-9.183h16.461v36.195Z" transform="translate(-51.161)" fill="#4d148c"/>
  </g>
</svg>
