<svg id="Search_results_for_Money_-_Flaticon-12" data-name="Search results for Money - Flaticon-12" xmlns="http://www.w3.org/2000/svg" width="19.58" height="19.58" viewBox="0 0 19.58 19.58">
  <path id="Path_3736" data-name="Path 3736" d="M13.27,6.96a6.31,6.31,0,1,0,6.31,6.31A6.317,6.317,0,0,0,13.27,6.96Zm0,5.736a1.717,1.717,0,0,1,.574,3.336v1.253H12.7V16.033a1.718,1.718,0,0,1-1.147-1.615H12.7a.574.574,0,1,0,.574-.574,1.717,1.717,0,0,1-.574-3.336V9.255h1.147v1.253a1.718,1.718,0,0,1,1.147,1.615H13.844a.574.574,0,1,0-.574.574ZM6.386,6.96c3.538,0,6.31-1.512,6.31-3.442S9.925,0,6.386,0,0,1.588,0,3.518,2.848,6.96,6.386,6.96ZM0,12.909v.935c0,1.93,2.848,3.442,6.386,3.442.2,0,.4-.018.593-.028a7.409,7.409,0,0,1-.961-2.28A9.143,9.143,0,0,1,0,12.909Zm5.84.905c-.013-.18-.028-.361-.028-.544a7.425,7.425,0,0,1,.212-1.734A9.146,9.146,0,0,1,0,9.467V10.4C0,12.229,2.572,13.666,5.84,13.815ZM6.386,10.4h0A7.483,7.483,0,0,1,8,8a12.8,12.8,0,0,1-1.613.108A9.33,9.33,0,0,1,0,6.025V6.96C0,8.89,2.848,10.4,6.386,10.4Z" fill="#0083bd"/>
</svg>
