<svg xmlns="http://www.w3.org/2000/svg" width="20.444" height="19.601" viewBox="0 0 20.444 19.601">
  <g id="Search_results_for_Verified_-_Flaticon-12" data-name="Search results for Verified - Flaticon-12" transform="translate(0 -12.575)">
    <path id="Path_3746" data-name="Path 3746" d="M19.031,20.372a3.454,3.454,0,0,1-.7-.628,3.227,3.227,0,0,1,.2-.98,2.7,2.7,0,0,0-.034-2.4,2.716,2.716,0,0,0-2.285-.776,3.348,3.348,0,0,1-.975-.1,3.314,3.314,0,0,1-.4-.886c-.261-.742-.585-1.665-1.454-1.948a2.642,2.642,0,0,0-2.267.7,3.178,3.178,0,0,1-.892.5,3.172,3.172,0,0,1-.892-.5,2.645,2.645,0,0,0-2.268-.7c-.869.282-1.193,1.205-1.454,1.947a3.379,3.379,0,0,1-.392.883,3.272,3.272,0,0,1-.979.108,2.716,2.716,0,0,0-2.285.776,2.7,2.7,0,0,0-.034,2.4,3.318,3.318,0,0,1,.2.974,3.334,3.334,0,0,1-.706.634c-.63.48-1.414,1.078-1.414,2s.784,1.524,1.414,2a3.454,3.454,0,0,1,.7.628,3.227,3.227,0,0,1-.2.98,2.7,2.7,0,0,0,.034,2.4,2.717,2.717,0,0,0,2.285.776,3.348,3.348,0,0,1,.975.1,3.315,3.315,0,0,1,.4.886c.261.742.585,1.665,1.454,1.948a1.531,1.531,0,0,0,.477.076,3.372,3.372,0,0,0,1.79-.781,3.177,3.177,0,0,1,.892-.5,3.174,3.174,0,0,1,.892.5,2.646,2.646,0,0,0,2.267.7c.869-.282,1.193-1.205,1.454-1.947a3.379,3.379,0,0,1,.392-.883,3.272,3.272,0,0,1,.979-.108,2.716,2.716,0,0,0,2.285-.776,2.7,2.7,0,0,0,.034-2.4,3.318,3.318,0,0,1-.2-.974,3.334,3.334,0,0,1,.706-.634c.63-.48,1.413-1.078,1.413-2s-.784-1.524-1.414-2Zm-5.012.477L9.76,25.108a.852.852,0,0,1-1.2,0h0l-2.13-2.13a.852.852,0,0,1,1.189-1.22l.015.015L9.157,23.3l3.657-3.657a.852.852,0,0,1,1.22,1.189Z" fill="#0083bd"/>
  </g>
</svg>
