<svg id="Search_results_for_Comments_-_Flaticon-12" data-name="Search results for Comments - Flaticon-12" xmlns="http://www.w3.org/2000/svg" width="18" height="16.588" viewBox="0 0 18 16.588">
  <path id="Path_3745" data-name="Path 3745" d="M21,10.4c0-2.24,0-3.36-.436-4.216a4,4,0,0,0-1.748-1.748C17.96,4,16.84,4,14.6,4H9.4c-2.24,0-3.36,0-4.216.436A4,4,0,0,0,3.436,6.184C3,7.04,3,8.16,3,10.4v1.2c0,2.24,0,3.36.436,4.216a4,4,0,0,0,1.748,1.748C6.04,18,7.16,18,9.4,18h7.186a1,1,0,0,1,.707.293l2,2A1,1,0,0,0,21,19.586V10.4ZM15,8a1,1,0,0,1,0,2H9A1,1,0,0,1,9,8Zm0,4a1,1,0,0,1,0,2H12a1,1,0,0,1,0-2Z" transform="translate(-3 -4)" fill="#0083bd" fill-rule="evenodd"/>
</svg>
