<svg xmlns="http://www.w3.org/2000/svg" width="22.444" height="12.674" viewBox="0 0 22.444 12.674">
  <g id="Search_results_for_Person_-_Flaticon-12" data-name="Search results for Person - Flaticon-12" transform="translate(0 -111.445)">
    <path id="Path_3737" data-name="Path 3737" d="M13.972,119.407a3.949,3.949,0,0,0-1.9-.483H10.438a3.969,3.969,0,0,0-3.97,3.97v1.225h9.575v-1.225a3.969,3.969,0,0,0-2.071-3.487Zm4.514-1.571H17.127a3.931,3.931,0,0,0-2.153.639,5.3,5.3,0,0,1,2.384,4.42v.576h5.086v-1.676A3.963,3.963,0,0,0,18.486,117.836Zm-13.169,0H3.958A3.963,3.963,0,0,0,0,121.794v1.676H5.153v-.576A5.3,5.3,0,0,1,7.5,118.5a3.933,3.933,0,0,0-2.187-.661ZM17.8,111.882h-.021a2.817,2.817,0,0,0,.025,5.625h.021a2.583,2.583,0,0,0,1.9-.856,2.877,2.877,0,0,0,.749-1.979A2.747,2.747,0,0,0,17.8,111.882Zm-13.168,0H4.615a2.817,2.817,0,0,0,.025,5.625h.021a2.583,2.583,0,0,0,1.9-.856,2.876,2.876,0,0,0,.749-1.979A2.747,2.747,0,0,0,4.636,111.882Zm6.62-.437a3.17,3.17,0,0,0-3.076,3.25,3.271,3.271,0,0,0,1.761,2.937,2.925,2.925,0,0,0,2.629,0,3.27,3.27,0,0,0,1.761-2.937,3.17,3.17,0,0,0-3.076-3.25Z" fill="#0083bd"/>
  </g>
</svg>
