<svg id="Group_1943" data-name="Group 1943" xmlns="http://www.w3.org/2000/svg" xmlns:xlink="http://www.w3.org/1999/xlink" width="125.944" height="120.695" viewBox="0 0 125.944 120.695">
  <defs>
    <clipPath id="clip-path">
      <rect id="Rectangle_1047" data-name="Rectangle 1047" width="125.944" height="120.695" fill="none" stroke="#707070" stroke-width="1"/>
    </clipPath>
    <clipPath id="clip-path-3">
      <rect id="Rectangle_1025" data-name="Rectangle 1025" width="125.944" height="5.039" fill="none" stroke="#707070" stroke-width="1"/>
    </clipPath>
    <clipPath id="clip-path-4">
      <rect id="Rectangle_1026" data-name="Rectangle 1026" width="47.727" height="10.731" fill="none" stroke="#707070" stroke-width="1"/>
    </clipPath>
    <clipPath id="clip-path-5">
      <path id="Path_12563" data-name="Path 12563" d="M64.69,99.208l47.539-1.24-.479-9.491-47.247.9Z" transform="translate(-64.503 -88.477)" fill="none" stroke="#707070" stroke-width="1"/>
    </clipPath>
    <clipPath id="clip-path-6">
      <rect id="Rectangle_1027" data-name="Rectangle 1027" width="2.856" height="1.884" fill="none" stroke="#707070" stroke-width="1"/>
    </clipPath>
    <clipPath id="clip-path-7">
      <rect id="Rectangle_1028" data-name="Rectangle 1028" width="3.16" height="1.78" fill="none" stroke="#707070" stroke-width="1"/>
    </clipPath>
    <clipPath id="clip-path-8">
      <rect id="Rectangle_1029" data-name="Rectangle 1029" width="4.762" height="2.36" fill="none" stroke="#707070" stroke-width="1"/>
    </clipPath>
    <clipPath id="clip-path-9">
      <rect id="Rectangle_1031" data-name="Rectangle 1031" width="31.294" height="5.764" fill="none" stroke="#707070" stroke-width="1"/>
    </clipPath>
    <clipPath id="clip-path-10">
      <rect id="Rectangle_1030" data-name="Rectangle 1030" width="31.201" height="5.171" transform="matrix(1, -0.019, 0.019, 1, 0, 0.595)" fill="none" stroke="#707070" stroke-width="1"/>
    </clipPath>
    <clipPath id="clip-path-11">
      <rect id="Rectangle_1033" data-name="Rectangle 1033" width="20.722" height="4.879" fill="none" stroke="#707070" stroke-width="1"/>
    </clipPath>
    <clipPath id="clip-path-12">
      <rect id="Rectangle_1032" data-name="Rectangle 1032" width="20.64" height="4.487" transform="matrix(1, -0.019, 0.019, 1, 0, 0.393)" fill="none" stroke="#707070" stroke-width="1"/>
    </clipPath>
  </defs>
  <g id="Group_1942" data-name="Group 1942" clip-path="url(#clip-path)">
    <g id="Group_1941" data-name="Group 1941">
      <g id="Group_1940" data-name="Group 1940" clip-path="url(#clip-path)">
        <g id="Group_1914" data-name="Group 1914" transform="translate(0 115.656)" opacity="0.4">
          <g id="Group_1913" data-name="Group 1913">
            <g id="Group_1912" data-name="Group 1912" clip-path="url(#clip-path-3)">
              <path id="Path_12558" data-name="Path 12558" d="M125.944,388.261c0,1.391-28.194,2.52-62.972,2.52S0,389.652,0,388.261s28.193-2.52,62.972-2.52,62.972,1.128,62.972,2.52" transform="translate(0 -385.741)" fill="#3968ff" stroke="#707070" stroke-width="1"/>
            </g>
          </g>
        </g>
        <path id="Path_12559" data-name="Path 12559" d="M95.771,132.261,91.23,48.75a10.074,10.074,0,0,0-10.238-9.478c-.136,0-.271.008-.407.016L47.252,41.241a10.073,10.073,0,0,0-9.466,10.644l4.541,83.51a10.085,10.085,0,0,0,10.242,9.477c.133,0,.267-.008.4-.016L86.3,142.9a10.073,10.073,0,0,0,9.466-10.644" transform="translate(-26.444 -27.496)" fill="#3968ff" stroke="#707070" stroke-width="1"/>
        <path id="Path_12560" data-name="Path 12560" d="M110.316,131.483l-4.541-83.51a10.074,10.074,0,0,0-10.238-9.478c-.136,0-.271.008-.407.016L61.8,40.463a10.073,10.073,0,0,0-9.466,10.644l4.541,83.51A10.085,10.085,0,0,0,67.114,144.1c.133,0,.267-.008.4-.016l33.334-1.953a10.073,10.073,0,0,0,9.466-10.644" transform="translate(-36.628 -26.952)" fill="#193149" stroke="#707070" stroke-width="1"/>
        <path id="Path_12561" data-name="Path 12561" d="M115.158,136.808l-3.965-80.356c-.237-4.8-3.888-8.517-8.114-8.267l-2.179.09a2.637,2.637,0,0,0-2.444,1.975l-.11.427a1.72,1.72,0,0,1-1.572,1.287l-19.33,1.055a1.72,1.72,0,0,1-1.737-1.207,2.637,2.637,0,0,0-2.674-1.851l-1.809.107a7.476,7.476,0,0,0-5.813,3.608,9.506,9.506,0,0,0-1.44,5.567L67.936,139.6c.237,4.8,3.888,8.518,8.114,8.268l31.856-1.883c4.225-.25,7.489-4.379,7.253-9.176" transform="translate(-44.782 -33.729)" fill="#fff" stroke="#707070" stroke-width="1"/>
        <g id="Group_1919" data-name="Group 1919" transform="translate(19.34 26.528)" opacity="0.5">
          <g id="Group_1918" data-name="Group 1918">
            <g id="Group_1917" data-name="Group 1917" clip-path="url(#clip-path-4)">
              <g id="Group_1916" data-name="Group 1916" transform="translate(0)">
                <g id="Group_1915" data-name="Group 1915" clip-path="url(#clip-path-5)">
                  <path id="Path_12562" data-name="Path 12562" d="M112.237,96.412,65.015,99.2l-.392-7.945,47.212-2.781Z" transform="translate(-64.587 -88.477)" fill="#3968ff" stroke="#707070" stroke-width="1"/>
                </g>
              </g>
            </g>
          </g>
        </g>
        <text id="DECEMBER" transform="translate(28.772 32.123) rotate(-2.892)" fill="#193149" stroke="#707070" stroke-width="1" font-size="2" font-family="Montserrat-ExtraBold, Montserrat" font-weight="800"><tspan x="0" y="0">DECEMBER</tspan></text>
        <g id="Group_1922" data-name="Group 1922" transform="translate(58.606 15.849)" opacity="0.42">
          <g id="Group_1921" data-name="Group 1921">
            <g id="Group_1920" data-name="Group 1920" clip-path="url(#clip-path-6)">
              <path id="Path_12564" data-name="Path 12564" d="M198.321,54.253l-.057-1.076-.371.021v-.006a.342.342,0,0,0-.129-.248.382.382,0,0,0-.261-.083l-1.687.093a.362.362,0,0,0-.351.369l.058,1.09a.343.343,0,0,0,.129.248.38.38,0,0,0,.246.083h.014l1.687-.093a.362.362,0,0,0,.351-.37v-.007Zm-.574.037a.171.171,0,0,1-.159.177l-.472.026-.075-1.424.474-.026h.006a.167.167,0,0,1,.169.157l.01.191.371-.02.037.71-.371.02Z" transform="translate(-195.466 -52.86)" fill="#3968ff" stroke="#707070" stroke-width="1"/>
            </g>
          </g>
        </g>
        <g id="Group_1925" data-name="Group 1925" transform="translate(54.466 16.151)" opacity="0.42">
          <g id="Group_1924" data-name="Group 1924">
            <g id="Group_1923" data-name="Group 1923" clip-path="url(#clip-path-7)">
              <path id="Path_12565" data-name="Path 12565" d="M184.725,53.869l-3.068,1.781,3.16-.174Z" transform="translate(-181.658 -53.869)" fill="#3968ff" stroke="#707070" stroke-width="1"/>
            </g>
          </g>
        </g>
        <g id="Group_1928" data-name="Group 1928" transform="translate(24.254 17.531)" opacity="0.42">
          <g id="Group_1927" data-name="Group 1927">
            <g id="Group_1926" data-name="Group 1926" clip-path="url(#clip-path-8)">
              <text id="_14:50" data-name="14:50" transform="matrix(0.999, -0.049, 0.049, 0.999, 0.039, 1.062)" fill="#3968ff" stroke="#707070" stroke-width="1" font-size="1" font-family="Montserrat-ExtraBold, Montserrat" font-weight="800"><tspan x="0" y="0">14:50</tspan></text>
            </g>
          </g>
        </g>
        <text id="BOOKING" transform="translate(31.979 23.517) rotate(-2.826)" fill="#3968ff" stroke="#707070" stroke-width="1" font-size="2" font-family="Montserrat-ExtraBold, Montserrat" font-weight="800"><tspan x="0" y="0" letter-spacing="-0.002em">BO</tspan><tspan y="0" letter-spacing="-0.001em">OKIN</tspan><tspan y="0">G</tspan></text>
        <path id="Path_12566" data-name="Path 12566" d="M205.454,93.479l2.552,2.456a.178.178,0,0,1,.012.239l-.016.019a.241.241,0,0,1-.028.042l-2.208,2.638a.213.213,0,0,1-.316.019l-.294-.283a.253.253,0,0,1-.017-.339l1.8-2.147-2.047-1.97a.178.178,0,0,1-.012-.239l.353-.421a.151.151,0,0,1,.223-.013" transform="translate(-143.421 -65.421)" fill="#fff" stroke="#707070" stroke-width="1"/>
        <path id="Path_12567" data-name="Path 12567" d="M71.208,100.708l-2.3,2.743a.178.178,0,0,0,.012.239l.017.017a.239.239,0,0,0,.032.038l2.455,2.362a.213.213,0,0,0,.316-.019l.265-.317a.253.253,0,0,0-.016-.339l-2-1.922,1.841-2.2a.178.178,0,0,0-.012-.239l-.392-.377a.151.151,0,0,0-.223.013" transform="translate(-48.222 -70.474)" fill="#fff" stroke="#707070" stroke-width="1"/>
        <path id="Path_12568" data-name="Path 12568" d="M98.2,300.422l-6.277.371a1.167,1.167,0,0,1-1.192-1.147l-.159-3.229a1.2,1.2,0,0,1,1.072-1.281l6.276-.371a1.166,1.166,0,0,1,1.192,1.147l.16,3.228a1.194,1.194,0,0,1-1.072,1.281" transform="translate(-63.418 -206.385)" fill="none" stroke="#d3deef" stroke-miterlimit="10" stroke-width="1"/>
        <path id="Path_12569" data-name="Path 12569" d="M131.714,298.441l-6.276.371a1.166,1.166,0,0,1-1.192-1.147l-.159-3.229a1.194,1.194,0,0,1,1.072-1.281l6.276-.371a1.166,1.166,0,0,1,1.192,1.147l.16,3.228a1.194,1.194,0,0,1-1.072,1.281" transform="translate(-86.881 -204.998)" fill="none" stroke="#d3deef" stroke-miterlimit="10" stroke-width="1"/>
        <path id="Path_12570" data-name="Path 12570" d="M166.062,296.411l-6.276.371a1.166,1.166,0,0,1-1.192-1.147l-.16-3.229a1.2,1.2,0,0,1,1.073-1.281l6.276-.371a1.166,1.166,0,0,1,1.192,1.147l.16,3.228a1.194,1.194,0,0,1-1.072,1.281" transform="translate(-110.93 -203.577)" fill="none" stroke="#d3deef" stroke-miterlimit="10" stroke-width="1"/>
        <path id="Path_12571" data-name="Path 12571" d="M199.573,294.43l-6.276.371a1.167,1.167,0,0,1-1.192-1.147l-.159-3.229a1.2,1.2,0,0,1,1.072-1.281l6.277-.371a1.166,1.166,0,0,1,1.191,1.147l.16,3.228a1.2,1.2,0,0,1-1.072,1.281" transform="translate(-134.394 -202.19)" fill="none" stroke="#d3deef" stroke-miterlimit="10" stroke-width="1"/>
        <path id="Path_12572" data-name="Path 12572" d="M131.336,343.342,98.3,345.3a1.744,1.744,0,0,1-1.782-1.715l-.1-2.026a1.786,1.786,0,0,1,1.6-1.915l33.036-1.953a1.744,1.744,0,0,1,1.782,1.715l.1,2.026a1.786,1.786,0,0,1-1.6,1.915" transform="translate(-67.507 -236.437)" fill="none" stroke="#d3deef" stroke-miterlimit="10" stroke-width="1"/>
        <g id="Group_1934" data-name="Group 1934" transform="translate(31.04 94.907)" opacity="0.5">
          <g id="Group_1933" data-name="Group 1933">
            <g id="Group_1932" data-name="Group 1932" clip-path="url(#clip-path-9)">
              <g id="Group_1931" data-name="Group 1931" transform="translate(0 0)">
                <g id="Group_1930" data-name="Group 1930" transform="translate(0 0)" clip-path="url(#clip-path-10)">
                  <path id="Path_12573" data-name="Path 12573" d="M133.445,320.679l-28.1,1.661a1.568,1.568,0,0,1-1.6-1.542l-.038-.776a1.606,1.606,0,0,1,1.442-1.722l28.1-1.661a1.568,1.568,0,0,1,1.6,1.542l.038.776a1.605,1.605,0,0,1-1.441,1.722" transform="translate(-103.647 -316.608)" fill="#3968ff" stroke="#707070" stroke-width="1"/>
                </g>
              </g>
            </g>
          </g>
        </g>
        <text id="SELECT_CATEGORY_" data-name="SELECT CATEGORY " transform="matrix(0.998, -0.056, 0.056, 0.998, 34.051, 98.034)" fill="#193149" stroke="#707070" stroke-width="1" font-size="1" font-family="Montserrat-ExtraBold, Montserrat" font-weight="800"><tspan x="0" y="0" letter-spacing="-0.001em">SELECT CATEG</tspan><tspan y="0" letter-spacing="-0.002em">O</tspan><tspan y="0" letter-spacing="-0.001em">RY</tspan><tspan y="0"> </tspan></text>
        <g id="Group_1939" data-name="Group 1939" transform="translate(35.893 81.465)" opacity="0.5">
          <g id="Group_1938" data-name="Group 1938">
            <g id="Group_1937" data-name="Group 1937" clip-path="url(#clip-path-11)">
              <g id="Group_1936" data-name="Group 1936" transform="translate(0 0)">
                <g id="Group_1935" data-name="Group 1935" transform="translate(0 0)" clip-path="url(#clip-path-12)">
                  <path id="Path_12574" data-name="Path 12574" d="M139.142,275.568l-17.756,1.049a1.463,1.463,0,0,1-1.5-1.439l-.036-.724a1.5,1.5,0,0,1,1.345-1.607l17.756-1.05a1.464,1.464,0,0,1,1.5,1.439l.036.725a1.5,1.5,0,0,1-1.346,1.607" transform="translate(-119.81 -271.768)" fill="#3968ff" stroke="#707070" stroke-width="1"/>
                </g>
              </g>
            </g>
          </g>
        </g>
        <text id="SEL" transform="translate(37.886 83.712) rotate(-3.027)" fill="#193149" stroke="#707070" stroke-width="1" font-size="1" font-family="Montserrat-ExtraBold, Montserrat" font-weight="800"><tspan x="0" y="0">SEL</tspan></text>
        <text id="E" transform="translate(42.588 83.454) rotate(-3.027)" fill="#193149" stroke="#707070" stroke-width="1" font-size="1" font-family="Montserrat-ExtraBold, Montserrat" font-weight="800"><tspan x="0" y="0">E</tspan></text>
        <text id="C" transform="translate(44.221 83.364) rotate(-3.027)" fill="#193149" stroke="#707070" stroke-width="1" font-size="1" font-family="Montserrat-ExtraBold, Montserrat" font-weight="800"><tspan x="0" y="0">C</tspan></text>
        <text id="T_TIME" data-name="T TIME" transform="translate(46.003 83.266) rotate(-3.027)" fill="#193149" stroke="#707070" stroke-width="1" font-size="1" font-family="Montserrat-ExtraBold, Montserrat" font-weight="800"><tspan x="0" y="0">T TIME</tspan></text>
        <text id="_1" data-name="1" transform="translate(24.689 41.764) rotate(-2.826)" fill="#193149" stroke="#707070" stroke-width="1" font-size="1" font-family="Helvetica"><tspan x="0" y="0">1</tspan></text>
        <text id="_5" data-name="5" transform="translate(52.775 40.103) rotate(-2.826)" fill="#193149" stroke="#707070" stroke-width="1" font-size="1" font-family="Helvetica"><tspan x="0" y="0">5</tspan></text>
        <text id="_4" data-name="4" transform="translate(45.993 40.504) rotate(-2.826)" fill="#193149" stroke="#707070" stroke-width="1" font-size="1" font-family="Helvetica"><tspan x="0" y="0">4</tspan></text>
        <text id="_3" data-name="3" transform="translate(39.211 40.905) rotate(-2.826)" fill="#193149" stroke="#707070" stroke-width="1" font-size="1" font-family="Helvetica"><tspan x="0" y="0">3</tspan></text>
        <text id="_2" data-name="2" transform="translate(32.179 41.321) rotate(-2.826)" fill="#193149" stroke="#707070" stroke-width="1" font-size="1" font-family="Helvetica"><tspan x="0" y="0">2</tspan></text>
        <text id="_6" data-name="6" transform="translate(59.81 39.687) rotate(-2.826)" fill="#193149" stroke="#707070" stroke-width="1" font-size="1" font-family="Helvetica"><tspan x="0" y="0">6</tspan></text>
        <text id="_7" data-name="7" transform="translate(25.016 49.307) rotate(-2.826)" fill="#193149" stroke="#707070" stroke-width="1" font-size="1" font-family="Helvetica"><tspan x="0" y="0">7</tspan></text>
        <text id="_1-2" data-name="1" transform="translate(52.393 47.688) rotate(-2.826)" fill="#193149" stroke="#707070" stroke-width="1" font-size="1" font-family="Helvetica"><tspan x="0" y="0">1</tspan></text>
        <text id="_1-3" data-name="1" transform="translate(53.967 47.595) rotate(-2.826)" fill="#193149" stroke="#707070" stroke-width="1" font-size="1" font-family="Helvetica"><tspan x="0" y="0">1</tspan></text>
        <text id="_10" data-name="10" transform="translate(45.612 48.089) rotate(-2.826)" fill="#193149" stroke="#707070" stroke-width="1" font-size="1" font-family="Helvetica"><tspan x="0" y="0">10</tspan></text>
        <text id="_9" data-name="9" transform="translate(38.83 48.49) rotate(-2.826)" fill="#193149" stroke="#707070" stroke-width="1" font-size="1" font-family="Helvetica"><tspan x="0" y="0">9</tspan></text>
        <text id="_8" data-name="8" transform="translate(31.798 48.905) rotate(-2.826)" fill="#193149" stroke="#707070" stroke-width="1" font-size="1" font-family="Helvetica"><tspan x="0" y="0">8</tspan></text>
        <text id="_12" data-name="12" transform="translate(59.429 47.272) rotate(-2.826)" fill="#193149" stroke="#707070" stroke-width="1" font-size="1" font-family="Helvetica"><tspan x="0" y="0">12</tspan></text>
        <text id="_13" data-name="13" transform="translate(25.111 56.325) rotate(-2.826)" fill="#193149" stroke="#707070" stroke-width="1" font-size="1" font-family="Helvetica"><tspan x="0" y="0">13</tspan></text>
        <text id="_17" data-name="17" transform="translate(52.489 54.706) rotate(-2.826)" fill="#193149" stroke="#707070" stroke-width="1" font-size="1" font-family="Helvetica"><tspan x="0" y="0">17</tspan></text>
        <text id="_16" data-name="16" transform="translate(45.707 55.107) rotate(-2.826)" fill="#193149" stroke="#707070" stroke-width="1" font-size="1" font-family="Helvetica"><tspan x="0" y="0">16</tspan></text>
        <text id="_15" data-name="15" transform="translate(38.925 55.508) rotate(-2.826)" fill="#193149" stroke="#707070" stroke-width="1" font-size="1" font-family="Helvetica"><tspan x="0" y="0">15</tspan></text>
        <text id="_14" data-name="14" transform="translate(31.893 55.924) rotate(-2.826)" fill="#193149" stroke="#707070" stroke-width="1" font-size="1" font-family="Helvetica"><tspan x="0" y="0">14</tspan></text>
        <text id="_18" data-name="18" transform="translate(59.524 54.29) rotate(-2.826)" fill="#193149" stroke="#707070" stroke-width="1" font-size="1" font-family="Helvetica"><tspan x="0" y="0">18</tspan></text>
        <text id="_19" data-name="19" transform="translate(25.47 63.597) rotate(-2.826)" fill="#193149" stroke="#707070" stroke-width="1" font-size="1" font-family="Helvetica"><tspan x="0" y="0">19</tspan></text>
        <text id="_23" data-name="23" transform="translate(52.848 61.978) rotate(-2.826)" fill="#193149" stroke="#707070" stroke-width="1" font-size="1" font-family="Helvetica"><tspan x="0" y="0">23</tspan></text>
        <text id="_2-2" data-name="2" transform="translate(46.066 62.379) rotate(-2.826)" fill="#193149" stroke="#707070" stroke-width="1" font-size="1" font-family="Helvetica"><tspan x="0" y="0">2</tspan></text>
        <text id="_2-3" data-name="2" transform="translate(47.624 62.287) rotate(-2.826)" fill="#193149" stroke="#707070" stroke-width="1" font-size="1" font-family="Helvetica"><tspan x="0" y="0">2</tspan></text>
        <text id="_21" data-name="21" transform="translate(39.284 62.78) rotate(-2.826)" fill="#193149" stroke="#707070" stroke-width="1" font-size="1" font-family="Helvetica"><tspan x="0" y="0">21</tspan></text>
        <text id="_20" data-name="20" transform="translate(32.251 63.196) rotate(-2.826)" fill="#193149" stroke="#707070" stroke-width="1" font-size="1" font-family="Helvetica"><tspan x="0" y="0">20</tspan></text>
        <text id="_2-4" data-name="2" transform="translate(59.883 61.562) rotate(-2.826)" fill="#193149" stroke="#707070" stroke-width="1" font-size="1" font-family="Helvetica"><tspan x="0" y="0">2</tspan></text>
        <text id="_4-2" data-name="4" transform="translate(61.402 61.473) rotate(-2.826)" fill="#193149" stroke="#707070" stroke-width="1" font-size="1" font-family="Helvetica"><tspan x="0" y="0">4</tspan></text>
        <text id="_25" data-name="25" transform="translate(26.068 70.585) rotate(-2.826)" fill="#193149" stroke="#707070" stroke-width="1" font-size="1" font-family="Helvetica"><tspan x="0" y="0">25</tspan></text>
        <text id="_29" data-name="29" transform="translate(53.446 68.967) rotate(-2.826)" fill="#193149" stroke="#707070" stroke-width="1" font-size="1" font-family="Helvetica"><tspan x="0" y="0">29</tspan></text>
        <text id="_28" data-name="28" transform="translate(46.664 69.368) rotate(-2.826)" fill="#193149" stroke="#707070" stroke-width="1" font-size="1" font-family="Helvetica"><tspan x="0" y="0">28</tspan></text>
        <text id="_27" data-name="27" transform="translate(39.882 69.769) rotate(-2.826)" fill="#193149" stroke="#707070" stroke-width="1" font-size="1" font-family="Helvetica"><tspan x="0" y="0">27</tspan></text>
        <text id="_26" data-name="26" transform="translate(32.85 70.184) rotate(-2.826)" fill="#193149" stroke="#707070" stroke-width="1" font-size="1" font-family="Helvetica"><tspan x="0" y="0">26</tspan></text>
        <text id="_30" data-name="30" transform="translate(60.481 68.551) rotate(-2.826)" fill="#193149" stroke="#707070" stroke-width="1" font-size="1" font-family="Helvetica"><tspan x="0" y="0">30</tspan></text>
        <text id="_31" data-name="31" transform="translate(26.14 77.245) rotate(-2.826)" fill="#193149" stroke="#707070" stroke-width="1" font-size="1" font-family="Helvetica"><tspan x="0" y="0">31</tspan></text>
        <text id="_1-4" data-name="1" transform="translate(33.172 76.829) rotate(-2.826)" fill="#d3deef" stroke="#707070" stroke-width="1" font-size="1" font-family="Helvetica"><tspan x="0" y="0">1</tspan></text>
        <text id="_2-5" data-name="2" transform="translate(39.704 76.443) rotate(-2.826)" fill="#d3deef" stroke="#707070" stroke-width="1" font-size="1" font-family="Helvetica"><tspan x="0" y="0">2</tspan></text>
        <text id="_3-2" data-name="3" transform="translate(46.989 76.012) rotate(-2.826)" fill="#d3deef" stroke="#707070" stroke-width="1" font-size="1" font-family="Helvetica"><tspan x="0" y="0">3</tspan></text>
        <text id="_4-3" data-name="4" transform="translate(53.508 75.358) rotate(-2.826)" fill="#d3deef" stroke="#707070" stroke-width="1" font-size="1" font-family="Helvetica"><tspan x="0" y="0">4</tspan></text>
        <text id="_5-2" data-name="5" transform="translate(60.793 74.927) rotate(-2.826)" fill="#d3deef" stroke="#707070" stroke-width="1" font-size="1" font-family="Helvetica"><tspan x="0" y="0">5</tspan></text>
        <path id="Path_12575" data-name="Path 12575" d="M173.335,178.029a3.968,3.968,0,0,1-4.3,3.576,3.925,3.925,0,0,1-3.587-4.26,3.968,3.968,0,0,1,4.3-3.576,3.926,3.926,0,0,1,3.587,4.26" transform="translate(-115.83 -121.658)" fill="none" stroke="#ff5757" stroke-miterlimit="10" stroke-width="2.767"/>
        <path id="Path_12576" data-name="Path 12576" d="M223.115,21.386a2.571,2.571,0,1,1,1.3-3.4,2.574,2.574,0,0,1-1.3,3.4M222.944,21a2.151,2.151,0,1,0-2.842-1.084A2.154,2.154,0,0,0,222.944,21" transform="translate(-153.683 -11.531)" fill="#86aef7" stroke="#707070" stroke-width="1"/>
        <path id="Path_12577" data-name="Path 12577" d="M248.058,27.22A1.873,1.873,0,1,1,249,24.745a1.875,1.875,0,0,1-.944,2.475m-.125-.279a1.567,1.567,0,1,0-2.07-.789,1.569,1.569,0,0,0,2.07.789" transform="translate(-171.836 -16.55)" fill="#86aef7" stroke="#707070" stroke-width="1"/>
        <path id="Path_12578" data-name="Path 12578" d="M235.1,39.547a1.149,1.149,0,1,1,.579-1.518,1.15,1.15,0,0,1-.579,1.518m-.077-.172a.961.961,0,1,0-1.27-.484.962.962,0,0,0,1.27.484" transform="translate(-163.478 -26.151)" fill="#86aef7" stroke="#707070" stroke-width="1"/>
        <path id="Path_12579" data-name="Path 12579" d="M252.313,57.3a.678.678,0,0,0,.678-.678V51.894a.678.678,0,1,0-1.356,0v4.732a.678.678,0,0,0,.678.678" transform="translate(-176.188 -35.86)" fill="#86aef7" stroke="#707070" stroke-width="1"/>
        <path id="Path_12580" data-name="Path 12580" d="M244.422,60.465h4.732a.678.678,0,1,0,0-1.356h-4.732a.678.678,0,1,0,0,1.356" transform="translate(-170.663 -41.386)" fill="#86aef7" stroke="#707070" stroke-width="1"/>
        <path id="Path_12581" data-name="Path 12581" d="M28.451,271.382a2.075,2.075,0,1,1,2.075,2.076,2.078,2.078,0,0,1-2.075-2.076m.339,0a1.736,1.736,0,1,0,1.736-1.736,1.738,1.738,0,0,0-1.736,1.736" transform="translate(-19.921 -188.561)" fill="#86aef7" stroke="#707070" stroke-width="1"/>
        <path id="Path_12582" data-name="Path 12582" d="M31.387,300.632a1.512,1.512,0,1,1,1.512,1.512,1.514,1.514,0,0,1-1.512-1.512m.247,0a1.265,1.265,0,1,0,1.265-1.265,1.266,1.266,0,0,0-1.265,1.265" transform="translate(-21.976 -209.436)" fill="#86aef7" stroke="#707070" stroke-width="1"/>
        <path id="Path_12583" data-name="Path 12583" d="M22.267,291.667a.927.927,0,1,1,.927.927.928.928,0,0,1-.927-.927m.151,0a.776.776,0,1,0,.776-.776.777.777,0,0,0-.776.776" transform="translate(-15.591 -203.568)" fill="#86aef7" stroke="#707070" stroke-width="1"/>
        <path id="Path_12584" data-name="Path 12584" d="M19.381,315.293a.678.678,0,0,0,.678-.678v-4.732a.678.678,0,0,0-1.356,0v4.732a.678.678,0,0,0,.678.678" transform="translate(-13.095 -216.496)" fill="#86aef7" stroke="#707070" stroke-width="1"/>
        <path id="Path_12585" data-name="Path 12585" d="M11.49,318.453h4.732a.678.678,0,1,0,0-1.356H11.49a.678.678,0,1,0,0,1.356" transform="translate(-7.57 -222.023)" fill="#86aef7" stroke="#707070" stroke-width="1"/>
        <rect id="Rectangle_1034" data-name="Rectangle 1034" width="11.456" height="17.131" transform="translate(91.119 11.293) rotate(-80.316)" fill="#fff" stroke="#707070" stroke-width="1"/>
        <path id="Path_12586" data-name="Path 12586" d="M317.5,8.914l9.407-4.206L310.022,1.827Z" transform="translate(-217.069 -1.279)" fill="#b8d2ff" stroke="#707070" stroke-width="1"/>
        <rect id="Rectangle_1035" data-name="Rectangle 1035" width="0.556" height="17.131" transform="translate(92.953 0.548) rotate(-80.316)" fill="#b8d2ff" stroke="#707070" stroke-width="1"/>
        <path id="Path_12587" data-name="Path 12587" d="M317.813,7.087l9.407-4.206L310.333,0Z" transform="translate(-217.287 0)" fill="#fff" stroke="#707070" stroke-width="1"/>
        <rect id="Rectangle_1036" data-name="Rectangle 1036" width="14.845" height="9.928" transform="translate(4.258 104.026) rotate(-28.141)" fill="#fff" stroke="#707070" stroke-width="1"/>
        <path id="Path_12588" data-name="Path 12588" d="M23.846,332.895l4.2-7.878-13.09,7Z" transform="translate(-10.475 -227.568)" fill="#b8d2ff" stroke="#707070" stroke-width="1"/>
        <rect id="Rectangle_1037" data-name="Rectangle 1037" width="14.845" height="0.481" transform="translate(4.258 104.026) rotate(-28.141)" fill="#b8d2ff" stroke="#707070" stroke-width="1"/>
        <path id="Path_12589" data-name="Path 12589" d="M23.089,331.479l4.2-7.878-13.09,7Z" transform="translate(-9.944 -226.576)" fill="#fff" stroke="#707070" stroke-width="1"/>
        <path id="Path_12590" data-name="Path 12590" d="M340.1,54.712a9.691,9.691,0,1,0-6.828-11.882A9.691,9.691,0,0,0,340.1,54.712" transform="translate(-233.109 -24.971)" fill="#fff" stroke="#707070" stroke-width="1"/>
        <path id="Path_12591" data-name="Path 12591" d="M343.7,33.684a10.394,10.394,0,1,1-12.744,7.323A10.405,10.405,0,0,1,343.7,33.684m-.367,1.357a8.988,8.988,0,1,0,6.333,11.021,9,9,0,0,0-6.333-11.021" transform="translate(-231.471 -23.332)" fill="#3968ff" stroke="#707070" stroke-width="1"/>
        <rect id="Rectangle_1038" data-name="Rectangle 1038" width="0.527" height="1.211" transform="translate(115.943 22.395) rotate(-74.865)" fill="#3968ff" stroke="#707070" stroke-width="1"/>
        <rect id="Rectangle_1039" data-name="Rectangle 1039" width="0.527" height="1.211" transform="translate(101.78 18.57) rotate(-74.896)" fill="#3968ff" stroke="#707070" stroke-width="1"/>
        <rect id="Rectangle_1040" data-name="Rectangle 1040" width="1.211" height="0.527" transform="matrix(0.261, -0.965, 0.965, 0.261, 111.016, 13.821)" fill="#3968ff" stroke="#707070" stroke-width="1"/>
        <rect id="Rectangle_1041" data-name="Rectangle 1041" width="1.211" height="0.527" transform="matrix(0.261, -0.965, 0.965, 0.261, 107.19, 27.983)" fill="#3968ff" stroke="#707070" stroke-width="1"/>
        <path id="Path_12592" data-name="Path 12592" d="M370.671,68.4l-4.7-1.581a.092.092,0,0,0-.119.064l-.157.582a.092.092,0,0,0,.071.115l4.856,1a.093.093,0,0,0,.049-.179" transform="translate(-256.047 -46.778)" fill="#193149" stroke="#707070" stroke-width="1"/>
        <path id="Path_12593" data-name="Path 12593" d="M365.5,54.618l-1.3,3.647a.093.093,0,0,0,.063.12l.578.157a.093.093,0,0,0,.115-.073l.717-3.8a.093.093,0,0,0-.178-.048" transform="translate(-254.999 -38.199)" fill="#193149" stroke="#707070" stroke-width="1"/>
        <path id="Path_12594" data-name="Path 12594" d="M363.119,66.862a.825.825,0,1,0-.581-1.011.825.825,0,0,0,.581,1.011" transform="translate(-253.819 -45.68)" fill="#3968ff" stroke="#707070" stroke-width="1"/>
        <path id="Path_12595" data-name="Path 12595" d="M296.081,51.362a9.311,9.311,0,0,0-9.844.491c-3.627,2.7-3.818,7.31-3.816,8.59,0-2.367-.126-2.362.6,21.075,1.369.284,19.858,0,19.858,0,0-1.858-2.224-20.294-2.465-22.429-.432-3.83-2.168-6.43-4.33-7.728" transform="translate(-197.736 -35.147)" fill="#193149" stroke="#707070" stroke-width="1"/>
        <path id="Path_12596" data-name="Path 12596" d="M226.98,191.9l-.2,2.076-4.01.95-1.475-2.459,1.036-1.421,3.056-.558Z" transform="translate(-154.944 -133.377)" fill="#ffafa1" stroke="#707070" stroke-width="1"/>
        <path id="Path_12597" data-name="Path 12597" d="M229.613,189.167l-.8-.706a2.855,2.855,0,0,0-1.193-.592l-1.174-.272a.217.217,0,0,0-.258.218.824.824,0,0,0,.413.7l1.763,1.007Z" transform="translate(-158.373 -131.346)" fill="#ffafa1" stroke="#707070" stroke-width="1"/>
        <path id="Path_12598" data-name="Path 12598" d="M216.948,192.151l-2.836-.086a.5.5,0,0,0-.5.453A.428.428,0,0,0,214,193l2.938.237.364-.531Z" transform="translate(-149.561 -134.479)" fill="#ffafa1" stroke="#707070" stroke-width="1"/>
        <path id="Path_12599" data-name="Path 12599" d="M212.51,196.608h0a.465.465,0,0,0,.5.486l3.033-.227.309-.511-.507-.478-2.838.2a.55.55,0,0,0-.5.53" transform="translate(-148.793 -137.149)" fill="#ffafa1" stroke="#707070" stroke-width="1"/>
        <path id="Path_12600" data-name="Path 12600" d="M214.771,200.351h0a.435.435,0,0,0,.528.325l2.576-.578.164-.622-.418-.3-2.467.571a.512.512,0,0,0-.383.6" transform="translate(-150.368 -139.457)" fill="#ffafa1" stroke="#707070" stroke-width="1"/>
        <path id="Path_12601" data-name="Path 12601" d="M219.039,203.435h0a.342.342,0,0,0,.425.214l1.711-.485.178-.547-.5-.365-1.6.7a.4.4,0,0,0-.223.488" transform="translate(-153.351 -141.611)" fill="#ffafa1" stroke="#707070" stroke-width="1"/>
        <path id="Path_12602" data-name="Path 12602" d="M242.986,183.069c1.06-.15,1.535-1.244,1.63-2.463a2.5,2.5,0,0,0,.007-.287,1.834,1.834,0,0,0-.631-1.4,1.525,1.525,0,0,0-1.41-.258l-11.809,5.39.977,1.991Z" transform="translate(-161.58 -125.049)" fill="#ffafa1" stroke="#707070" stroke-width="1"/>
        <path id="Path_12603" data-name="Path 12603" d="M264.764,154.73a2,2,0,0,0,.668.41,1.931,1.931,0,0,0,2.454-1.1c1.625-3.94,2.613-8.3,3.917-11.417a2.755,2.755,0,0,0-.671-3.077,2.645,2.645,0,0,0-.568-.4,2.451,2.451,0,0,0-2.027-.129,2.51,2.51,0,0,0-1.451,1.446l-2.9,12.032a2.138,2.138,0,0,0,.579,2.232" transform="translate(-184.901 -97.225)" fill="#ffafa1" stroke="#707070" stroke-width="1"/>
        <path id="Path_12604" data-name="Path 12604" d="M288.693,365.028l-.175-2.918h4.692l-.23,4.241H289.04Z" transform="translate(-202.013 -253.54)" fill="#ffafa1" stroke="#707070" stroke-width="1"/>
        <path id="Path_12605" data-name="Path 12605" d="M326.047,365.273l.1-3.164h-4.692l.23,4.241h3.941Z" transform="translate(-225.071 -253.539)" fill="#ffafa1" stroke="#707070" stroke-width="1"/>
        <path id="Path_12606" data-name="Path 12606" d="M256.735,382.543a4.228,4.228,0,0,1,2.863-1.8,2.614,2.614,0,0,1,1.586,1.8h10.558v1.479H256.121a4.178,4.178,0,0,1,.614-1.479" transform="translate(-179.329 -266.589)" fill="#fff" stroke="#707070" stroke-width="1"/>
        <path id="Path_12607" data-name="Path 12607" d="M269.609,372.762a6.157,6.157,0,0,1,1.437.717l.234-.315a6.179,6.179,0,0,0-1.2-.641l.711-.358a6.218,6.218,0,0,1,1.391.834l.258-.3a6.244,6.244,0,0,0-1.2-.763l2.452-1.236a4.44,4.44,0,0,0,5.177.809l.994,4H269.3a2.614,2.614,0,0,0-1.586-1.8Z" transform="translate(-187.449 -259.557)" fill="#3968ff" stroke="#707070" stroke-width="1"/>
        <path id="Path_12608" data-name="Path 12608" d="M275.463,377.727a6.156,6.156,0,0,0-1.437-.717l.473-.239a6.2,6.2,0,0,1,1.2.641Z" transform="translate(-191.865 -263.805)" fill="#fcfcfb" stroke="#707070" stroke-width="1"/>
        <path id="Path_12609" data-name="Path 12609" d="M279.367,375.886a6.214,6.214,0,0,0-1.391-.834l.446-.225a6.249,6.249,0,0,1,1.2.763Z" transform="translate(-194.631 -262.444)" fill="#fcfcfb" stroke="#707070" stroke-width="1"/>
        <path id="Path_12610" data-name="Path 12610" d="M324.347,380.746a5.6,5.6,0,0,1,4.183,1.8v1.479h-7.524v-1.638a4.621,4.621,0,0,1,3.342-1.638" transform="translate(-224.759 -266.588)" fill="#fff" stroke="#707070" stroke-width="1"/>
        <path id="Path_12611" data-name="Path 12611" d="M321.308,371.291a6.223,6.223,0,0,1,2.208-.587,6.323,6.323,0,0,1,2.22.587l.492,1.757a6.877,6.877,0,0,1,2.3,2.463,5.6,5.6,0,0,0-4.183-1.8,4.621,4.621,0,0,0-3.342,1.638,19.96,19.96,0,0,1,.35-2.029Z" transform="translate(-224.759 -259.557)" fill="#3968ff" stroke="#707070" stroke-width="1"/>
        <path id="Path_12612" data-name="Path 12612" d="M326.937,378.127a6.387,6.387,0,0,1,2.429-.038l.086-.382a6.634,6.634,0,0,0-2.6.036Z" transform="translate(-228.856 -264.384)" fill="#fcfcfb" stroke="#707070" stroke-width="1"/>
        <path id="Path_12613" data-name="Path 12613" d="M326.574,375.035a4.329,4.329,0,0,1,1.979-.032l.1-.378a4.674,4.674,0,0,0-2.177.03Z" transform="translate(-228.592 -262.224)" fill="#fcfcfb" stroke="#707070" stroke-width="1"/>
        <path id="Path_12614" data-name="Path 12614" d="M319.352,180.564h0A32.21,32.21,0,0,1,323.94,199.8l-3.257,36.428h-5.6l-2-46.266v-9.4Z" transform="translate(-219.213 -126.426)" fill="#193149" stroke="#707070" stroke-width="1"/>
        <path id="Path_12615" data-name="Path 12615" d="M281.234,180.564h0a32.21,32.21,0,0,0-4.588,19.241l3.093,36.428h5.6l2.167-46.266v-9.4Z" transform="translate(-193.631 -126.426)" fill="#193149" stroke="#707070" stroke-width="1"/>
        <path id="Path_12616" data-name="Path 12616" d="M307.914,209.376l-.508,3.826,2.642.909,1.208-5.283Z" transform="translate(-215.238 -146.216)" fill="#193149" stroke="#707070" stroke-width="1"/>
        <rect id="Rectangle_1042" data-name="Rectangle 1042" width="0.381" height="4.524" transform="translate(91.296 66.887) rotate(-71.016)" fill="#224a6b" stroke="#707070" stroke-width="1"/>
        <path id="Path_12617" data-name="Path 12617" d="M284.446,195.969l-.189-.331a5.388,5.388,0,0,0,2.723-3.852l.38.033a5.669,5.669,0,0,1-2.914,4.151" transform="translate(-199.029 -134.283)" fill="#224a6b" stroke="#707070" stroke-width="1"/>
        <rect id="Rectangle_1043" data-name="Rectangle 1043" width="5.261" height="7.007" transform="translate(91.138 30.404)" fill="#ffafa1" stroke="#707070" stroke-width="1"/>
        <path id="Path_12618" data-name="Path 12618" d="M311.71,110.671V107.9l-4.2,1.648Z" transform="translate(-215.31 -75.551)" fill="#f57c71" stroke="#707070" stroke-width="1"/>
        <path id="Path_12619" data-name="Path 12619" d="M288.518,87.672a1.572,1.572,0,0,1-1.344-.719c-.828-1.144-1.1-3.108.759-3.374s2.178,1.663,1.716,2.992a1.629,1.629,0,0,1-1.132,1.1" transform="translate(-200.624 -58.502)" fill="#f57c71" stroke="#707070" stroke-width="1"/>
        <path id="Path_12620" data-name="Path 12620" d="M295.657,77.519a5.729,5.729,0,0,0,5.291-3.339c2.449-5.077,2.223-12.609-5.291-12.609-7.458,0-7.671,7.8-5.095,12.8a5.765,5.765,0,0,0,5.095,3.151" transform="translate(-202.401 -43.11)" fill="#ffafa1" stroke="#707070" stroke-width="1"/>
        <path id="Path_12621" data-name="Path 12621" d="M327.747,87.672a1.571,1.571,0,0,0,1.344-.719c.828-1.144,1.1-3.108-.759-3.374s-2.178,1.663-1.716,2.992a1.629,1.629,0,0,0,1.132,1.1" transform="translate(-228.556 -58.502)" fill="#ffafa1" stroke="#707070" stroke-width="1"/>
        <path id="Path_12622" data-name="Path 12622" d="M305.911,92.558c-.438-.01-1.179-.186-1.179-.78a.887.887,0,0,1,.84-.833l.041.362-.021-.181.021.181c-.021,0-.518.067-.518.471,0,.378.815.416.823.416Z" transform="translate(-213.365 -63.677)" fill="#f57c71" stroke="#707070" stroke-width="1"/>
        <path id="Path_12623" data-name="Path 12623" d="M316.648,80.3a4.167,4.167,0,0,0-1.913-.382l-.035-.441a4.579,4.579,0,0,1,2.14.424Z" transform="translate(-220.344 -55.644)" fill="#193149" stroke="#707070" stroke-width="1"/>
        <path id="Path_12624" data-name="Path 12624" d="M295.479,80.329l-.18-.4a4.576,4.576,0,0,1,2.152-.359l-.048.439a4.2,4.2,0,0,0-1.924.324" transform="translate(-206.76 -55.7)" fill="#193149" stroke="#707070" stroke-width="1"/>
        <path id="Path_12625" data-name="Path 12625" d="M306.836,101.851a1.973,1.973,0,0,0-.793.993,1.656,1.656,0,0,0,.754.171,1.721,1.721,0,0,0,1.6-1.164Z" transform="translate(-214.283 -71.313)" fill="#ff8aae" stroke="#707070" stroke-width="1"/>
        <path id="Path_12626" data-name="Path 12626" d="M304.859,101.851h-1.64a1.8,1.8,0,0,0,.847.993,1.973,1.973,0,0,1,.793-.993" transform="translate(-212.306 -71.313)" fill="#193149" stroke="#707070" stroke-width="1"/>
        <path id="Path_12627" data-name="Path 12627" d="M317.7,85.812a1.8,1.8,0,0,0,.551-.192,1,1,0,0,1-.506.546Z" transform="translate(-222.443 -59.949)" fill="#193149" stroke="#707070" stroke-width="1"/>
        <path id="Path_12628" data-name="Path 12628" d="M298.133,85.812a1.8,1.8,0,0,1-.55-.192,1,1,0,0,0,.506.546Z" transform="translate(-208.359 -59.949)" fill="#193149" stroke="#707070" stroke-width="1"/>
        <path id="Path_12629" data-name="Path 12629" d="M316.053,85.836c0,.486-.264.881-.59.881s-.59-.395-.59-.881.264-.881.59-.881.59.394.59.881" transform="translate(-220.465 -59.483)" fill="#193149" stroke="#707070" stroke-width="1"/>
        <path id="Path_12630" data-name="Path 12630" d="M299.838,85.836c0,.486-.264.881-.59.881s-.59-.395-.59-.881.264-.881.59-.881.59.394.59.881" transform="translate(-209.112 -59.483)" fill="#193149" stroke="#707070" stroke-width="1"/>
        <path id="Path_12631" data-name="Path 12631" d="M298.575,87.145a.211.211,0,1,1-.211-.211.211.211,0,0,1,.211.211" transform="translate(-208.759 -60.869)" fill="#fff" stroke="#707070" stroke-width="1"/>
        <path id="Path_12632" data-name="Path 12632" d="M314.824,87.145a.211.211,0,1,1-.211-.211.211.211,0,0,1,.211.211" transform="translate(-220.136 -60.869)" fill="#fff" stroke="#707070" stroke-width="1"/>
        <path id="Path_12633" data-name="Path 12633" d="M301,67.946a9.823,9.823,0,0,0-5.016-6.141s-4.164.159-5.106,1.61-.492,4.531-3.092,4.531c0,0-2.9-9.934,6.673-9.934,8.875,0,7.21,8.854,6.541,9.934" transform="translate(-201.213 -40.618)" fill="#193149" stroke="#707070" stroke-width="1"/>
        <path id="Path_12634" data-name="Path 12634" d="M306.036,68.8a9.741,9.741,0,0,0-4.22,2.461,3.6,3.6,0,0,1,1.518-2.806,1.85,1.85,0,0,1,2.7.345" transform="translate(-211.323 -47.608)" fill="#193149" stroke="#707070" stroke-width="1"/>
        <path id="Path_12635" data-name="Path 12635" d="M271.133,127.839a39.771,39.771,0,0,0-1.526,5.621l6.846,1.456,1.305-3.457,2.779-9.287-2.741.686q-.226.057-.449.117c-2.834.763-4.866,1.978-6.215,4.865" transform="translate(-188.771 -85.541)" fill="#ffe164" stroke="#707070" stroke-width="1"/>
        <path id="Path_12636" data-name="Path 12636" d="M334.445,195.89a5.67,5.67,0,0,1-2.687-4.3l.381-.012a5.387,5.387,0,0,0,2.513,3.993Z" transform="translate(-232.288 -134.137)" fill="#224a6b" stroke="#707070" stroke-width="1"/>
        <path id="Path_12637" data-name="Path 12637" d="M327.369,215.866l1.693,1.218-1.2,3.944-2.867.037-.708-1.611,1.056-2.922Z" transform="translate(-227.06 -151.144)" fill="#ffafa1" stroke="#707070" stroke-width="1"/>
        <path id="Path_12638" data-name="Path 12638" d="M324.174,216.976l-1.012.333a2.858,2.858,0,0,0-1.112.732l-.826.878a.217.217,0,0,0,.059.332.824.824,0,0,0,.816,0l1.757-1.017Z" transform="translate(-224.875 -151.921)" fill="#ffafa1" stroke="#707070" stroke-width="1"/>
        <path id="Path_12639" data-name="Path 12639" d="M320.621,227.77l-1.5,2.408a.5.5,0,0,0,.139.662.428.428,0,0,0,.61-.1l1.683-2.42-.275-.582Z" transform="translate(-223.389 -159.459)" fill="#ffafa1" stroke="#707070" stroke-width="1"/>
        <path id="Path_12640" data-name="Path 12640" d="M322.679,233.355h0a.464.464,0,0,0,.673-.191l1.331-2.735-.286-.524-.667.2-1.256,2.553a.549.549,0,0,0,.206.7" transform="translate(-225.75 -160.973)" fill="#ffafa1" stroke="#707070" stroke-width="1"/>
        <path id="Path_12641" data-name="Path 12641" d="M327.749,234.214h0a.434.434,0,0,0,.546-.293l.8-2.516-.455-.455-.47.21-.748,2.42a.512.512,0,0,0,.33.634" transform="translate(-229.235 -161.705)" fill="#ffafa1" stroke="#707070" stroke-width="1"/>
        <path id="Path_12642" data-name="Path 12642" d="M332.679,234.063h0a.343.343,0,0,0,.4-.26l.441-1.723-.383-.429-.566.245-.2,1.729a.4.4,0,0,0,.31.439" transform="translate(-232.714 -162.196)" fill="#ffafa1" stroke="#707070" stroke-width="1"/>
        <path id="Path_12643" data-name="Path 12643" d="M337.55,150.368a1.923,1.923,0,0,0,2.24-2.177c-.6-4.028-1.664-11.263-2.12-14.459a2.529,2.529,0,0,0-2.732-2.166,2.477,2.477,0,0,0-2.224,2.871l3.261,14.429a1.961,1.961,0,0,0,1.575,1.5" transform="translate(-232.934 -92.111)" fill="#ffafa1" stroke="#707070" stroke-width="1"/>
        <path id="Path_12644" data-name="Path 12644" d="M338.263,180.336a4.361,4.361,0,0,0-1.038-4.07c-.078-.058-.018-.121-.1-.168a1.834,1.834,0,0,0-1.517-.216,1.527,1.527,0,0,0-.974,1.052l-3.855,12.559L333,191.022Z" transform="translate(-231.603 -123.092)" fill="#ffafa1" stroke="#707070" stroke-width="1"/>
        <path id="Path_12645" data-name="Path 12645" d="M337.621,134.5s-.187-4.9-.783-6.42c-.7-1.784-2.747-2.836-4.65-3.585l-1.582-.645,1.3,9.571.591,2Z" transform="translate(-231.481 -86.718)" fill="#ffe164" stroke="#707070" stroke-width="1"/>
        <path id="Path_12646" data-name="Path 12646" d="M305.6,120.532l-5.333-1.817-5.122,1.887,4.907,3.25Z" transform="translate(-206.652 -83.12)" fill="#ffafa1" stroke="#707070" stroke-width="1"/>
        <path id="Path_12647" data-name="Path 12647" d="M296.528,123.853l-1.68.934a7.316,7.316,0,0,1-7.114,0l-1.679-.934c-2.007,1.093-4.437,3.366-4.055,5.756l1.967,7.563-.316,4.946,4.743.585a23.371,23.371,0,0,0,5.792-.009l4.559-.576-.447-8,1.058-4.513a5.558,5.558,0,0,0-2.829-5.756" transform="translate(-197.421 -86.718)" fill="#ffe164" stroke="#707070" stroke-width="1"/>
        <path id="Path_12648" data-name="Path 12648" d="M285.871,148.484l-.76-2.922a5.66,5.66,0,0,1,.329-3.766l.846-1.853.331.151-.847,1.853a5.3,5.3,0,0,0-.307,3.523l.76,2.922Z" transform="translate(-199.5 -97.984)" fill="#224a6b" stroke="#707070" stroke-width="1"/>
        <rect id="Rectangle_1044" data-name="Rectangle 1044" width="0.364" height="11.231" transform="matrix(0.108, -0.994, 0.994, 0.108, 87.556, 45.563)" fill="#f2c144" stroke="#707070" stroke-width="1"/>
        <rect id="Rectangle_1045" data-name="Rectangle 1045" width="0.364" height="5.785" transform="translate(100.223 44.511) rotate(-5.715)" fill="#f2c144" stroke="#707070" stroke-width="1"/>
        <path id="Path_12649" data-name="Path 12649" d="M298.63,89.837c0,.345-.606.625-1.354.625s-1.354-.28-1.354-.625.606-.625,1.354-.625,1.354.28,1.354.625" transform="translate(-207.196 -62.464)" fill="#ffafa1" stroke="#707070" stroke-width="1"/>
        <path id="Path_12650" data-name="Path 12650" d="M315.193,89.837c0,.345-.606.625-1.354.625s-1.354-.28-1.354-.625.606-.625,1.354-.625,1.354.28,1.354.625" transform="translate(-218.793 -62.464)" fill="#ffafa1" stroke="#707070" stroke-width="1"/>
      </g>
    </g>
  </g>
</svg>
