<svg xmlns="http://www.w3.org/2000/svg" width="110.438" height="19.903" viewBox="0 0 110.438 19.903">
  <g id="Search_results_for_Review_star_-_Flaticon-12" data-name="Search results for Review star - Flaticon-12" transform="translate(0 -26.233)">
    <path id="Path_3735" data-name="Path 3735" d="M6.468,38.531,4,46.136l6.468-4.7,6.464,4.7-2.466-7.6,6.464-4.7H12.935l-2.471-7.6-2.471,7.6H0Zm28.845-4.7-2.471-7.6-2.471,7.6H22.378l6.468,4.7-2.471,7.6,6.468-4.7,6.468,4.7-2.471-7.6,6.469-4.7Zm22.378,0-2.471-7.6-2.471,7.6H44.755l6.468,4.7-2.471,7.6,6.468-4.7,6.468,4.7-2.471-7.6,6.468-4.7Zm22.378,0-2.471-7.6-2.471,7.6H67.131l6.469,4.7-2.471,7.6,6.468-4.7,6.468,4.7-2.471-7.6,6.468-4.7Zm22.378,0-2.471-7.6-2.471,7.6H89.512l6.464,4.7-2.471,7.6,6.469-4.7,6.468,4.7-2.471-7.6,6.468-4.7Z" fill="#0083bd"/>
  </g>
</svg>
