<svg id="twitter_1" data-name="twitter 1" xmlns="http://www.w3.org/2000/svg" width="20.056" height="20.056" viewBox="0 0 20.056 20.056">
  <rect id="twitter_1-2" data-name="twitter 1" width="20.056" height="20.056" fill="none"/>
  <path id="Vector" d="M16.646,3.075a3.761,3.761,0,0,1,.067.694c0,9.61-9.192,13.788-16.713,9.61a9.727,9.727,0,0,0,5.85-1.671C-1.671,8.365,1.671.844,1.671.844A8.908,8.908,0,0,0,4.956,3.681a8.908,8.908,0,0,0,4.236.948V3.794a3.744,3.744,0,0,1,6.568-2.507A9.109,9.109,0,0,0,18.384.008a6.451,6.451,0,0,1-1.738,3.067Z" transform="translate(0.836 2.499)" fill="#fff"/>
</svg>
