<svg id="youtube_1" data-name="youtube 1" xmlns="http://www.w3.org/2000/svg" width="20" height="20" viewBox="0 0 20.056 20.056">
  <rect id="youtube_1-2" data-name="youtube 1" width="20.056" height="20.056" fill="none"/>
  <path id="Vector" d="M18.385,6.476A24.233,24.233,0,0,1,18,10.864a2.323,2.323,0,0,1-1.621,1.671,54.99,54.99,0,0,1-7.187.384,54.99,54.99,0,0,1-7.187-.384,2.323,2.323,0,0,1-1.621-1.6A24.234,24.234,0,0,1,0,6.476,24.234,24.234,0,0,1,.385,2.056,2.323,2.323,0,0,1,2.006.384,54.99,54.99,0,0,1,9.193,0a60.179,60.179,0,0,1,7.187.351A2.323,2.323,0,0,1,18,2.022a24.234,24.234,0,0,1,.384,4.454Z" transform="translate(0.835 3.343)" fill="#2e84d3"/>
  <path id="Vector-2" data-name="Vector" d="M0,0,4.805,2.733,0,5.465Z" transform="translate(8.148 7.086)" fill="#fff"/>
</svg>
